<svg width="25" height="24" viewBox="0 0 25 24" fill="none" xmlns="http://www.w3.org/2000/svg">
<mask id="mask0_2631_11212" style="mask-type:alpha" maskUnits="userSpaceOnUse" x="0" y="0" width="25" height="24">
<rect x="0.5" width="24" height="24" fill="#D9D9D9"/>
</mask>
<g mask="url(#mask0_2631_11212)">
<path d="M12.5 4.8C11.8583 4.8 11.309 4.565 10.8521 4.095C10.3951 3.625 10.1667 3.06 10.1667 2.4C10.1667 1.74 10.3951 1.175 10.8521 0.705C11.309 0.235 11.8583 0 12.5 0C13.1417 0 13.691 0.235 14.1479 0.705C14.6049 1.175 14.8333 1.74 14.8333 2.4C14.8333 3.06 14.6049 3.625 14.1479 4.095C13.691 4.565 13.1417 4.8 12.5 4.8ZM9 22.8V8.4H3.16667C2.83611 8.4 2.55903 8.285 2.33542 8.055C2.11181 7.825 2 7.54 2 7.2C2 6.86 2.11181 6.575 2.33542 6.345C2.55903 6.115 2.83611 6 3.16667 6H21.8333C22.1639 6 22.441 6.115 22.6646 6.345C22.8882 6.575 23 6.86 23 7.2C23 7.54 22.8882 7.825 22.6646 8.055C22.441 8.285 22.1639 8.4 21.8333 8.4H16V22.8C16 23.14 15.8882 23.425 15.6646 23.655C15.441 23.885 15.1639 24 14.8333 24C14.5028 24 14.2257 23.885 14.0021 23.655C13.7785 23.425 13.6667 23.14 13.6667 22.8V16.8H11.3333V22.8C11.3333 23.14 11.2215 23.425 10.9979 23.655C10.7743 23.885 10.4972 24 10.1667 24C9.83611 24 9.55903 23.885 9.33542 23.655C9.11181 23.425 9 23.14 9 22.8Z" fill="black"/>
</g>
</svg>
