<svg width="40" height="40" viewBox="0 0 40 40" fill="none" xmlns="http://www.w3.org/2000/svg">
<mask id="mask0_2568_9847" style="mask-type:alpha" maskUnits="userSpaceOnUse" x="0" y="0" width="40" height="40">
<rect width="40" height="40" fill="#D9D9D9"/>
</mask>
<g mask="url(#mask0_2568_9847)">
<path d="M28.3333 36.6673C26.0277 36.6673 24.0625 35.8548 22.4375 34.2298C20.8125 32.6048 20 30.6395 20 28.334C20 26.0284 20.8125 24.0632 22.4375 22.4382C24.0625 20.8132 26.0277 20.0007 28.3333 20.0007C30.6388 20.0007 32.6041 20.8132 34.2291 22.4382C35.8541 24.0632 36.6666 26.0284 36.6666 28.334C36.6666 30.6395 35.8541 32.6048 34.2291 34.2298C32.6041 35.8548 30.6388 36.6673 28.3333 36.6673ZM6.66663 18.5007V10.6257C6.66663 9.93121 6.86801 9.30621 7.27079 8.75065C7.67357 8.1951 8.1944 7.79232 8.83329 7.54232L18.8333 3.79232C19.2222 3.65343 19.6111 3.58398 20 3.58398C20.3888 3.58398 20.7777 3.65343 21.1666 3.79232L31.1666 7.54232C31.8055 7.79232 32.3263 8.1951 32.7291 8.75065C33.1319 9.30621 33.3333 9.93121 33.3333 10.6257V15.709C33.3333 16.1812 33.125 16.5632 32.7083 16.8548C32.2916 17.1465 31.8472 17.2229 31.375 17.084C30.875 16.9451 30.375 16.8409 29.875 16.7715C29.375 16.702 28.8611 16.6673 28.3333 16.6673C25.1111 16.6673 22.3611 17.8062 20.0833 20.084C17.8055 22.3618 16.6666 25.1118 16.6666 28.334C16.6666 29.2229 16.7708 30.0909 16.9791 30.9382C17.1875 31.7854 17.4861 32.6395 17.875 33.5007C18.125 34.0284 18.0486 34.5007 17.6458 34.9173C17.243 35.334 16.7777 35.4173 16.25 35.1673C15.0833 34.5562 14.0138 33.8062 13.0416 32.9173C12.0694 32.0284 11.2083 31.0562 10.4583 30.0007C9.26385 28.3618 8.33329 26.5632 7.66663 24.6048C6.99996 22.6465 6.66663 20.6118 6.66663 18.5007ZM28.3333 28.334C29.0277 28.334 29.618 28.0909 30.1041 27.6048C30.5902 27.1187 30.8333 26.5284 30.8333 25.834C30.8333 25.1395 30.5902 24.5493 30.1041 24.0632C29.618 23.577 29.0277 23.334 28.3333 23.334C27.6388 23.334 27.0486 23.577 26.5625 24.0632C26.0763 24.5493 25.8333 25.1395 25.8333 25.834C25.8333 26.5284 26.0763 27.1187 26.5625 27.6048C27.0486 28.0909 27.6388 28.334 28.3333 28.334ZM28.3333 33.334C29.0277 33.334 29.6805 33.202 30.2916 32.9382C30.9027 32.6743 31.4444 32.2923 31.9166 31.7923C32.0555 31.6257 32.1111 31.4382 32.0833 31.2298C32.0555 31.0215 31.9305 30.8618 31.7083 30.7507C31.1805 30.5007 30.6319 30.3132 30.0625 30.1882C29.493 30.0632 28.9166 30.0007 28.3333 30.0007C27.75 30.0007 27.1736 30.0632 26.6041 30.1882C26.0347 30.3132 25.4861 30.5007 24.9583 30.7507C24.7361 30.8618 24.6111 31.0215 24.5833 31.2298C24.5555 31.4382 24.6111 31.6257 24.75 31.7923C25.2222 32.2923 25.7638 32.6743 26.375 32.9382C26.9861 33.202 27.6388 33.334 28.3333 33.334Z" fill="#3F2525"/>
</g>
</svg>
