<svg width="18" height="18" viewBox="0 0 18 18" fill="none" xmlns="http://www.w3.org/2000/svg">
<mask id="mask0_2568_8929" style="mask-type:alpha" maskUnits="userSpaceOnUse" x="0" y="0" width="18" height="18">
<rect width="18" height="18" fill="#D9D9D9"/>
</mask>
<g mask="url(#mask0_2568_8929)">
<path d="M13.5 6.75C12.875 6.75 12.3438 6.53125 11.9062 6.09375C11.4688 5.65625 11.25 5.125 11.25 4.5C11.25 3.875 11.4688 3.34375 11.9062 2.90625C12.3438 2.46875 12.875 2.25 13.5 2.25C14.125 2.25 14.6562 2.46875 15.0938 2.90625C15.5312 3.34375 15.75 3.875 15.75 4.5C15.75 5.125 15.5312 5.65625 15.0938 6.09375C14.6562 6.53125 14.125 6.75 13.5 6.75ZM9 16.5C7.9625 16.5 6.9875 16.3031 6.075 15.9094C5.1625 15.5156 4.36875 14.9813 3.69375 14.3063C3.01875 13.6313 2.48438 12.8375 2.09063 11.925C1.69687 11.0125 1.5 10.0375 1.5 9C1.5 7.9625 1.69687 6.9875 2.09063 6.075C2.48438 5.1625 3.01875 4.36875 3.69375 3.69375C4.36875 3.01875 5.15937 2.48438 6.06563 2.09063C6.97188 1.69687 7.94375 1.5 8.98125 1.5C9.43125 1.5 9.75 1.53125 9.9375 1.59375C10.125 1.65625 10.25 1.775 10.3125 1.95C10.3625 2.0625 10.3781 2.18125 10.3594 2.30625C10.3406 2.43125 10.2937 2.55625 10.2188 2.68125C10.0562 2.94375 9.9375 3.225 9.8625 3.525C9.7875 3.825 9.75 4.15 9.75 4.5C9.75 5.5375 10.1156 6.42188 10.8469 7.15312C11.5781 7.88438 12.4625 8.25 13.5 8.25C13.825 8.25 14.1406 8.2125 14.4469 8.1375C14.7531 8.0625 15.0438 7.94375 15.3188 7.78125C15.4438 7.71875 15.5688 7.67813 15.6938 7.65938C15.8188 7.64063 15.9312 7.65625 16.0312 7.70625C16.2063 7.76875 16.3281 7.89375 16.3969 8.08125C16.4656 8.26875 16.5 8.58125 16.5 9.01875C16.5 10.0563 16.3031 11.0281 15.9094 11.9344C15.5156 12.8406 14.9813 13.6313 14.3063 14.3063C13.6313 14.9813 12.8375 15.5156 11.925 15.9094C11.0125 16.3031 10.0375 16.5 9 16.5Z" fill="#3F3F43"/>
</g>
</svg>
