<svg width="24" height="25" viewBox="0 0 24 25" fill="none" xmlns="http://www.w3.org/2000/svg">
<mask id="mask0_2672_3475" style="mask-type:alpha" maskUnits="userSpaceOnUse" x="0" y="0" width="24" height="25">
<rect y="0.5" width="24" height="24" fill="#D9D9D9"/>
</mask>
<g mask="url(#mask0_2672_3475)">
<path d="M4.24999 14.5009C4.34999 14.8842 4.47082 15.2509 4.61249 15.6009C4.75415 15.9509 4.91665 16.2842 5.09999 16.6009C5.24999 16.8509 5.30832 17.1176 5.27499 17.4009C5.24165 17.6842 5.13332 17.9176 4.94999 18.1009C4.76665 18.2842 4.53749 18.3717 4.26249 18.3634C3.98749 18.3551 3.77499 18.2342 3.62499 18.0009C3.27499 17.4676 2.97915 16.9176 2.73749 16.3509C2.49582 15.7842 2.30832 15.1842 2.17499 14.5509C2.10832 14.2842 2.16249 14.0426 2.33749 13.8259C2.51249 13.6092 2.74165 13.5009 3.02499 13.5009C3.30832 13.5009 3.56249 13.5926 3.78749 13.7759C4.01249 13.9592 4.16665 14.2009 4.24999 14.5009ZM5.09999 8.4009C4.91665 8.71757 4.75415 9.0509 4.61249 9.4009C4.47082 9.7509 4.34999 10.1176 4.24999 10.5009C4.16665 10.8009 4.01249 11.0426 3.78749 11.2259C3.56249 11.4092 3.30832 11.5009 3.02499 11.5009C2.74165 11.5009 2.51249 11.4009 2.33749 11.2009C2.16249 11.0009 2.10832 10.7676 2.17499 10.5009C2.30832 9.8509 2.49999 9.2259 2.74999 8.6259C2.99999 8.0259 3.29999 7.4759 3.64999 6.9759C3.79999 6.75923 4.00832 6.64673 4.27499 6.6384C4.54165 6.63007 4.76665 6.71757 4.94999 6.9009C5.13332 7.08423 5.24165 7.31757 5.27499 7.6009C5.30832 7.88423 5.24999 8.1509 5.09999 8.4009ZM7.87499 19.3509C8.20832 19.5509 8.54999 19.7259 8.89999 19.8759C9.24999 20.0259 9.60832 20.1509 9.97499 20.2509C10.2583 20.3342 10.4917 20.4842 10.675 20.7009C10.8583 20.9176 10.95 21.1676 10.95 21.4509C10.95 21.7342 10.85 21.9592 10.65 22.1259C10.45 22.2926 10.2167 22.3509 9.94999 22.3009C9.33332 22.1676 8.73749 21.9842 8.16249 21.7509C7.58749 21.5176 7.03332 21.2259 6.49999 20.8759C6.26665 20.7259 6.13749 20.5134 6.11249 20.2384C6.08749 19.9634 6.16665 19.7259 6.34999 19.5259C6.54999 19.3259 6.79165 19.2092 7.07499 19.1759C7.35832 19.1426 7.62499 19.2009 7.87499 19.3509ZM10.025 4.7509C9.65832 4.8509 9.30415 4.97173 8.96249 5.1134C8.62082 5.25507 8.28332 5.4259 7.94999 5.6259C7.68332 5.7759 7.40415 5.8384 7.11249 5.8134C6.82082 5.7884 6.57499 5.6759 6.37499 5.4759C6.17499 5.2759 6.08332 5.04257 6.09999 4.7759C6.11665 4.50923 6.24165 4.3009 6.47499 4.1509C7.02499 3.8009 7.59582 3.50507 8.18749 3.2634C8.77915 3.02173 9.39165 2.83423 10.025 2.7009C10.275 2.6509 10.5 2.70923 10.7 2.8759C10.9 3.04257 11 3.26757 11 3.5509C11 3.83423 10.9083 4.08423 10.725 4.3009C10.5417 4.51757 10.3083 4.66757 10.025 4.7509ZM16.075 19.3759C16.325 19.2259 16.5958 19.1634 16.8875 19.1884C17.1792 19.2134 17.425 19.3259 17.625 19.5259C17.825 19.7259 17.9167 19.9634 17.9 20.2384C17.8833 20.5134 17.7583 20.7176 17.525 20.8509C16.9917 21.2009 16.425 21.4967 15.825 21.7384C15.225 21.9801 14.6083 22.1676 13.975 22.3009C13.7083 22.3509 13.4708 22.2926 13.2625 22.1259C13.0542 21.9592 12.95 21.7342 12.95 21.4509C12.95 21.1676 13.0458 20.9176 13.2375 20.7009C13.4292 20.4842 13.6667 20.3342 13.95 20.2509C14.3333 20.1509 14.7 20.0301 15.05 19.8884C15.4 19.7467 15.7417 19.5759 16.075 19.3759ZM13.975 4.7509C13.6917 4.66757 13.4583 4.51757 13.275 4.3009C13.0917 4.08423 13 3.83423 13 3.5509C13 3.26757 13.1 3.04257 13.3 2.8759C13.5 2.70923 13.725 2.6509 13.975 2.7009C14.6083 2.83423 15.225 3.02173 15.825 3.2634C16.425 3.50507 16.9917 3.8009 17.525 4.1509C17.7583 4.3009 17.8833 4.50923 17.9 4.7759C17.9167 5.04257 17.8333 5.2759 17.65 5.4759C17.45 5.6759 17.2083 5.79257 16.925 5.8259C16.6417 5.85923 16.3667 5.8009 16.1 5.6509C15.75 5.4509 15.4 5.2759 15.05 5.1259C14.7 4.9759 14.3417 4.8509 13.975 4.7509ZM19.75 14.4759C19.8333 14.1926 19.9875 13.9592 20.2125 13.7759C20.4375 13.5926 20.6917 13.5009 20.975 13.5009C21.2583 13.5009 21.4875 13.6092 21.6625 13.8259C21.8375 14.0426 21.8917 14.2842 21.825 14.5509C21.6917 15.1842 21.4958 15.7926 21.2375 16.3759C20.9792 16.9592 20.6833 17.5009 20.35 18.0009C20.2 18.2176 19.9917 18.3342 19.725 18.3509C19.4583 18.3676 19.2333 18.2842 19.05 18.1009C18.8667 17.9176 18.7583 17.6801 18.725 17.3884C18.6917 17.0967 18.75 16.8259 18.9 16.5759C19.0833 16.2426 19.2458 15.9051 19.3875 15.5634C19.5292 15.2217 19.65 14.8592 19.75 14.4759ZM18.9 8.4009C18.75 8.1509 18.6917 7.88423 18.725 7.6009C18.7583 7.31757 18.8667 7.08423 19.05 6.9009C19.2333 6.71757 19.4583 6.63423 19.725 6.6509C19.9917 6.66757 20.2 6.78424 20.35 7.0009C20.7167 7.53424 21.025 8.09257 21.275 8.6759C21.525 9.25923 21.7167 9.86757 21.85 10.5009C21.9 10.7676 21.8375 11.0009 21.6625 11.2009C21.4875 11.4009 21.2583 11.5009 20.975 11.5009C20.6917 11.5009 20.4375 11.4092 20.2125 11.2259C19.9875 11.0426 19.8333 10.8009 19.75 10.5009C19.65 10.1176 19.5292 9.7509 19.3875 9.4009C19.2458 9.0509 19.0833 8.71757 18.9 8.4009ZM11.975 17.5009C11.6917 17.5009 11.4542 17.4051 11.2625 17.2134C11.0708 17.0217 10.975 16.7842 10.975 16.5009V11.3759L9.09999 13.2759C8.89999 13.4759 8.66249 13.5759 8.38749 13.5759C8.11249 13.5759 7.87499 13.4759 7.67499 13.2759C7.47499 13.0759 7.37082 12.8384 7.36249 12.5634C7.35415 12.2884 7.44999 12.0509 7.64999 11.8509L11.275 8.2009C11.4583 8.01757 11.6917 7.9259 11.975 7.9259C12.2583 7.9259 12.4917 8.01757 12.675 8.2009L16.25 11.7759C16.45 11.9759 16.5542 12.2176 16.5625 12.5009C16.5708 12.7842 16.475 13.0259 16.275 13.2259C16.075 13.4259 15.8333 13.5259 15.55 13.5259C15.2667 13.5259 15.025 13.4259 14.825 13.2259L12.975 11.3759V16.5009C12.975 16.7842 12.8792 17.0217 12.6875 17.2134C12.4958 17.4051 12.2583 17.5009 11.975 17.5009Z" fill="#092146"/>
</g>
</svg>
