<svg width="18" height="18" viewBox="0 0 18 18" fill="none" xmlns="http://www.w3.org/2000/svg">
<mask id="mask0_2568_8855" style="mask-type:alpha" maskUnits="userSpaceOnUse" x="0" y="0" width="18" height="18">
<rect width="18" height="18" fill="#D9D9D9"/>
</mask>
<g mask="url(#mask0_2568_8855)">
<path d="M3.75 15.75C3.3375 15.75 2.98438 15.6031 2.69063 15.3094C2.39688 15.0156 2.25 14.6625 2.25 14.25V3.75C2.25 3.3375 2.39688 2.98438 2.69063 2.69063C2.98438 2.39688 3.3375 2.25 3.75 2.25H6.9C7.075 1.8 7.35 1.4375 7.725 1.1625C8.1 0.8875 8.525 0.75 9 0.75C9.475 0.75 9.9 0.8875 10.275 1.1625C10.65 1.4375 10.925 1.8 11.1 2.25H14.25C14.6625 2.25 15.0156 2.39688 15.3094 2.69063C15.6031 2.98438 15.75 3.3375 15.75 3.75V14.25C15.75 14.6625 15.6031 15.0156 15.3094 15.3094C15.0156 15.6031 14.6625 15.75 14.25 15.75H3.75ZM9 3.1875C9.1625 3.1875 9.29688 3.13438 9.40313 3.02813C9.50938 2.92188 9.5625 2.7875 9.5625 2.625C9.5625 2.4625 9.50938 2.32812 9.40313 2.22187C9.29688 2.11563 9.1625 2.0625 9 2.0625C8.8375 2.0625 8.70313 2.11563 8.59688 2.22187C8.49063 2.32812 8.4375 2.4625 8.4375 2.625C8.4375 2.7875 8.49063 2.92188 8.59688 3.02813C8.70313 3.13438 8.8375 3.1875 9 3.1875ZM9 9.75C9.725 9.75 10.3438 9.49375 10.8563 8.98125C11.3688 8.46875 11.625 7.85 11.625 7.125C11.625 6.4 11.3688 5.78125 10.8563 5.26875C10.3438 4.75625 9.725 4.5 9 4.5C8.275 4.5 7.65625 4.75625 7.14375 5.26875C6.63125 5.78125 6.375 6.4 6.375 7.125C6.375 7.85 6.63125 8.46875 7.14375 8.98125C7.65625 9.49375 8.275 9.75 9 9.75ZM3.75 14.25H14.25V13.3875C13.575 12.725 12.7906 12.2031 11.8969 11.8219C11.0031 11.4406 10.0375 11.25 9 11.25C7.9625 11.25 6.99688 11.4406 6.10313 11.8219C5.20938 12.2031 4.425 12.725 3.75 13.3875V14.25Z" fill="#3F3F43"/>
</g>
</svg>
