<svg width="49" height="49" viewBox="0 0 49 49" fill="none" xmlns="http://www.w3.org/2000/svg">
<mask id="mask0_99_7080" style="mask-type:alpha" maskUnits="userSpaceOnUse" x="0" y="0" width="49" height="49">
<rect x="0.25" y="0.8125" width="48" height="48" fill="#D9D9D9"/>
</mask>
<g mask="url(#mask0_99_7080)">
<path d="M6.25 42.8125C5.68333 42.8125 5.20833 42.6208 4.825 42.2375C4.44167 41.8542 4.25 41.3792 4.25 40.8125C4.25 40.2458 4.44167 39.7708 4.825 39.3875C5.20833 39.0042 5.68333 38.8125 6.25 38.8125H22.25V16.4625C21.3833 16.1625 20.6333 15.6958 20 15.0625C19.3667 14.4292 18.9 13.6792 18.6 12.8125H12.25L17.75 25.7125C17.9167 26.0792 18.0167 26.4542 18.05 26.8375C18.0833 27.2208 18.0667 27.6125 18 28.0125C17.7 29.5458 16.875 30.7292 15.525 31.5625C14.175 32.3958 12.75 32.8125 11.25 32.8125C9.75 32.8125 8.325 32.3958 6.975 31.5625C5.625 30.7292 4.8 29.5458 4.5 28.0125C4.43333 27.6125 4.41667 27.2208 4.45 26.8375C4.48333 26.4542 4.58333 26.0792 4.75 25.7125L10.25 12.8125H8.25C7.68333 12.8125 7.20833 12.6208 6.825 12.2375C6.44167 11.8542 6.25 11.3792 6.25 10.8125C6.25 10.2458 6.44167 9.77083 6.825 9.3875C7.20833 9.00417 7.68333 8.8125 8.25 8.8125H18.6C19 7.64583 19.7167 6.6875 20.75 5.9375C21.7833 5.1875 22.95 4.8125 24.25 4.8125C25.55 4.8125 26.7167 5.1875 27.75 5.9375C28.7833 6.6875 29.5 7.64583 29.9 8.8125H40.25C40.8167 8.8125 41.2917 9.00417 41.675 9.3875C42.0583 9.77083 42.25 10.2458 42.25 10.8125C42.25 11.3792 42.0583 11.8542 41.675 12.2375C41.2917 12.6208 40.8167 12.8125 40.25 12.8125H38.25L43.75 25.7125C43.9167 26.0792 44.0167 26.4542 44.05 26.8375C44.0833 27.2208 44.0667 27.6125 44 28.0125C43.7 29.5458 42.875 30.7292 41.525 31.5625C40.175 32.3958 38.75 32.8125 37.25 32.8125C35.75 32.8125 34.325 32.3958 32.975 31.5625C31.625 30.7292 30.8 29.5458 30.5 28.0125C30.4333 27.6125 30.4167 27.2208 30.45 26.8375C30.4833 26.4542 30.5833 26.0792 30.75 25.7125L36.25 12.8125H29.9C29.6 13.6792 29.1333 14.4292 28.5 15.0625C27.8667 15.6958 27.1167 16.1625 26.25 16.4625V38.8125H42.25C42.8167 38.8125 43.2917 39.0042 43.675 39.3875C44.0583 39.7708 44.25 40.2458 44.25 40.8125C44.25 41.3792 44.0583 41.8542 43.675 42.2375C43.2917 42.6208 42.8167 42.8125 42.25 42.8125H6.25ZM33.5 26.8125H41L37.25 18.1125L33.5 26.8125ZM7.5 26.8125H15L11.25 18.1125L7.5 26.8125ZM24.25 12.8125C24.8167 12.8125 25.2917 12.6208 25.675 12.2375C26.0583 11.8542 26.25 11.3792 26.25 10.8125C26.25 10.2458 26.0583 9.77083 25.675 9.3875C25.2917 9.00417 24.8167 8.8125 24.25 8.8125C23.6833 8.8125 23.2083 9.00417 22.825 9.3875C22.4417 9.77083 22.25 10.2458 22.25 10.8125C22.25 11.3792 22.4417 11.8542 22.825 12.2375C23.2083 12.6208 23.6833 12.8125 24.25 12.8125Z" fill="#071652"/>
</g>
</svg>
