<svg width="32" height="32" viewBox="0 0 32 32" fill="none" xmlns="http://www.w3.org/2000/svg">
<mask id="mask0_2575_641" style="mask-type:alpha" maskUnits="userSpaceOnUse" x="0" y="0" width="32" height="32">
<rect width="32" height="32" fill="#D9D9D9"/>
</mask>
<g mask="url(#mask0_2575_641)">
<path d="M16.1332 29.3334C14.2665 29.3334 12.5165 28.9778 10.8832 28.2667C9.24984 27.5556 7.82761 26.5945 6.6165 25.3834C5.40539 24.1723 4.44428 22.75 3.73317 21.1167C3.02206 19.4834 2.6665 17.7334 2.6665 15.8667C2.6665 13.0223 3.4665 10.4445 5.0665 8.13337C6.6665 5.82226 8.81095 4.20004 11.4998 3.26671C11.9887 3.08893 12.4443 3.15004 12.8665 3.45004C13.2887 3.75004 13.4887 4.15559 13.4665 4.66671C13.3998 6.55559 13.6998 8.35559 14.3665 10.0667C15.0332 11.7778 16.0332 13.3 17.3665 14.6334C18.6998 15.9667 20.2221 16.9667 21.9332 17.6334C23.6443 18.3 25.4443 18.6 27.3332 18.5334C27.9109 18.5112 28.3387 18.7056 28.6165 19.1167C28.8943 19.5278 28.9443 19.9889 28.7665 20.5C27.7887 23.1667 26.1498 25.3056 23.8498 26.9167C21.5498 28.5278 18.9776 29.3334 16.1332 29.3334Z" fill="#3F2525"/>
</g>
</svg>
