<svg width="32" height="32" viewBox="0 0 32 32" fill="none" xmlns="http://www.w3.org/2000/svg">
<mask id="mask0_2568_7081" style="mask-type:alpha" maskUnits="userSpaceOnUse" x="0" y="0" width="32" height="32">
<rect width="32" height="32" fill="#D9D9D9"/>
</mask>
<g mask="url(#mask0_2568_7081)">
<path d="M11.5333 26.6667H8C7.26667 26.6667 6.63889 26.4056 6.11667 25.8833C5.59444 25.3611 5.33333 24.7333 5.33333 24L5.33333 20.4667L2.76667 17.8667C2.52222 17.6 2.33333 17.3056 2.2 16.9833C2.06667 16.6611 2 16.3333 2 16C2 15.6667 2.06667 15.3389 2.2 15.0167C2.33333 14.6944 2.52222 14.4 2.76667 14.1333L5.33333 11.5333V8C5.33333 7.26667 5.59444 6.63889 6.11667 6.11667C6.63889 5.59444 7.26667 5.33333 8 5.33333H11.5333L14.1333 2.76667C14.4 2.52222 14.6944 2.33333 15.0167 2.2C15.3389 2.06667 15.6667 2 16 2C16.3333 2 16.6611 2.06667 16.9833 2.2C17.3056 2.33333 17.6 2.52222 17.8667 2.76667L20.4667 5.33333L24 5.33333C24.7333 5.33333 25.3611 5.59444 25.8833 6.11667C26.4056 6.63889 26.6667 7.26667 26.6667 8V11.5333L29.2333 14.1333C29.4778 14.4 29.6667 14.6944 29.8 15.0167C29.9333 15.3389 30 15.6667 30 16C30 16.3333 29.9333 16.6611 29.8 16.9833C29.6667 17.3056 29.4778 17.6 29.2333 17.8667L26.6667 20.4667V24C26.6667 24.7333 26.4056 25.3611 25.8833 25.8833C25.3611 26.4056 24.7333 26.6667 24 26.6667H20.4667L17.8667 29.2333C17.6 29.4778 17.3056 29.6667 16.9833 29.8C16.6611 29.9333 16.3333 30 16 30C15.6667 30 15.3389 29.9333 15.0167 29.8C14.6944 29.6667 14.4 29.4778 14.1333 29.2333L11.5333 26.6667Z" fill="#3F2525"/>
</g>
</svg>
