<svg width="18" height="18" viewBox="0 0 18 18" fill="none" xmlns="http://www.w3.org/2000/svg">
<mask id="mask0_2568_8919" style="mask-type:alpha" maskUnits="userSpaceOnUse" x="0" y="0" width="18" height="18">
<rect width="18" height="18" fill="#D9D9D9"/>
</mask>
<g mask="url(#mask0_2568_8919)">
<path d="M5.56875 7.10586L8.3625 2.54961C8.4375 2.42461 8.53125 2.33398 8.64375 2.27773C8.75625 2.22148 8.875 2.19336 9 2.19336C9.125 2.19336 9.24375 2.22148 9.35625 2.27773C9.46875 2.33398 9.5625 2.42461 9.6375 2.54961L12.4312 7.10586C12.5062 7.23086 12.5438 7.36211 12.5438 7.49961C12.5438 7.63711 12.5125 7.76211 12.45 7.87461C12.3875 7.98711 12.3 8.07773 12.1875 8.14648C12.075 8.21523 11.9438 8.24961 11.7938 8.24961H6.20625C6.05625 8.24961 5.925 8.21523 5.8125 8.14648C5.7 8.07773 5.6125 7.98711 5.55 7.87461C5.4875 7.76211 5.45625 7.63711 5.45625 7.49961C5.45625 7.36211 5.49375 7.23086 5.56875 7.10586ZM13.125 16.4996C12.1875 16.4996 11.3906 16.1715 10.7344 15.5152C10.0781 14.859 9.75 14.0621 9.75 13.1246C9.75 12.1871 10.0781 11.3902 10.7344 10.734C11.3906 10.0777 12.1875 9.74961 13.125 9.74961C14.0625 9.74961 14.8594 10.0777 15.5156 10.734C16.1719 11.3902 16.5 12.1871 16.5 13.1246C16.5 14.0621 16.1719 14.859 15.5156 15.5152C14.8594 16.1715 14.0625 16.4996 13.125 16.4996ZM2.25 15.3746V10.8746C2.25 10.6621 2.32187 10.484 2.46562 10.3402C2.60938 10.1965 2.7875 10.1246 3 10.1246H7.5C7.7125 10.1246 7.89062 10.1965 8.03438 10.3402C8.17812 10.484 8.25 10.6621 8.25 10.8746V15.3746C8.25 15.5871 8.17812 15.7652 8.03438 15.909C7.89062 16.0527 7.7125 16.1246 7.5 16.1246H3C2.7875 16.1246 2.60938 16.0527 2.46562 15.909C2.32187 15.7652 2.25 15.5871 2.25 15.3746Z" fill="#3F3F43"/>
</g>
</svg>
