<svg width="18" height="18" viewBox="0 0 18 18" fill="none" xmlns="http://www.w3.org/2000/svg">
<mask id="mask0_2465_19839" style="mask-type:alpha" maskUnits="userSpaceOnUse" x="0" y="0" width="18" height="18">
<rect width="18" height="18" fill="#D9D9D9"/>
</mask>
<g mask="url(#mask0_2465_19839)">
<path d="M9.4501 8.99961L6.5251 6.07461C6.3876 5.93711 6.31885 5.76211 6.31885 5.54961C6.31885 5.33711 6.3876 5.16211 6.5251 5.02461C6.6626 4.88711 6.8376 4.81836 7.0501 4.81836C7.2626 4.81836 7.4376 4.88711 7.5751 5.02461L11.0251 8.47461C11.1001 8.54961 11.1532 8.63086 11.1845 8.71836C11.2157 8.80586 11.2313 8.89961 11.2313 8.99961C11.2313 9.09961 11.2157 9.19336 11.1845 9.28086C11.1532 9.36836 11.1001 9.44961 11.0251 9.52461L7.5751 12.9746C7.4376 13.1121 7.2626 13.1809 7.0501 13.1809C6.8376 13.1809 6.6626 13.1121 6.5251 12.9746C6.3876 12.8371 6.31885 12.6621 6.31885 12.4496C6.31885 12.2371 6.3876 12.0621 6.5251 11.9246L9.4501 8.99961Z" fill="#3F3F43"/>
</g>
</svg>
