<svg width="24" height="25" viewBox="0 0 24 25" fill="none" xmlns="http://www.w3.org/2000/svg">
<mask id="mask0_2631_9718" style="mask-type:alpha" maskUnits="userSpaceOnUse" x="0" y="0" width="24" height="25">
<rect y="0.5" width="24" height="24" fill="#D9D9D9"/>
</mask>
<g mask="url(#mask0_2631_9718)">
<path d="M9 13.5H15C15.2833 13.5 15.5208 13.4042 15.7125 13.2125C15.9042 13.0208 16 12.7833 16 12.5C16 12.2167 15.9042 11.9792 15.7125 11.7875C15.5208 11.5958 15.2833 11.5 15 11.5H9C8.71667 11.5 8.47917 11.5958 8.2875 11.7875C8.09583 11.9792 8 12.2167 8 12.5C8 12.7833 8.09583 13.0208 8.2875 13.2125C8.47917 13.4042 8.71667 13.5 9 13.5ZM9 16.5H15C15.2833 16.5 15.5208 16.4042 15.7125 16.2125C15.9042 16.0208 16 15.7833 16 15.5C16 15.2167 15.9042 14.9792 15.7125 14.7875C15.5208 14.5958 15.2833 14.5 15 14.5H9C8.71667 14.5 8.47917 14.5958 8.2875 14.7875C8.09583 14.9792 8 15.2167 8 15.5C8 15.7833 8.09583 16.0208 8.2875 16.2125C8.47917 16.4042 8.71667 16.5 9 16.5ZM9 19.5H12C12.2833 19.5 12.5208 19.4042 12.7125 19.2125C12.9042 19.0208 13 18.7833 13 18.5C13 18.2167 12.9042 17.9792 12.7125 17.7875C12.5208 17.5958 12.2833 17.5 12 17.5H9C8.71667 17.5 8.47917 17.5958 8.2875 17.7875C8.09583 17.9792 8 18.2167 8 18.5C8 18.7833 8.09583 19.0208 8.2875 19.2125C8.47917 19.4042 8.71667 19.5 9 19.5ZM6 22.5C5.45 22.5 4.97917 22.3042 4.5875 21.9125C4.19583 21.5208 4 21.05 4 20.5V4.5C4 3.95 4.19583 3.47917 4.5875 3.0875C4.97917 2.69583 5.45 2.5 6 2.5H13.175C13.4417 2.5 13.6958 2.55 13.9375 2.65C14.1792 2.75 14.3917 2.89167 14.575 3.075L19.425 7.925C19.6083 8.10833 19.75 8.32083 19.85 8.5625C19.95 8.80417 20 9.05833 20 9.325V20.5C20 21.05 19.8042 21.5208 19.4125 21.9125C19.0208 22.3042 18.55 22.5 18 22.5H6ZM18 9.5H14.5C14.0833 9.5 13.7292 9.35417 13.4375 9.0625C13.1458 8.77083 13 8.41667 13 8V4.5H6V20.5H18V9.5Z" fill="#3F2525"/>
</g>
</svg>
