<svg width="72" height="72" viewBox="0 0 72 72" fill="none" xmlns="http://www.w3.org/2000/svg">
<mask id="mask0_3069_7116" style="mask-type:alpha" maskUnits="userSpaceOnUse" x="0" y="0" width="72" height="72">
<rect width="72" height="72" fill="#D9D9D9"/>
</mask>
<g mask="url(#mask0_3069_7116)">
<path d="M15 57H19.275L48.6 27.675L44.325 23.4L15 52.725V57ZM12 63C11.15 63 10.4375 62.7125 9.8625 62.1375C9.2875 61.5625 9 60.85 9 60V52.725C9 51.925 9.15 51.1625 9.45 50.4375C9.75 49.7125 10.175 49.075 10.725 48.525L48.6 10.725C49.2 10.175 49.8625 9.75 50.5875 9.45C51.3125 9.15 52.075 9 52.875 9C53.675 9 54.45 9.15 55.2 9.45C55.95 9.75 56.6 10.2 57.15 10.8L61.275 15C61.875 15.55 62.3125 16.2 62.5875 16.95C62.8625 17.7 63 18.45 63 19.2C63 20 62.8625 20.7625 62.5875 21.4875C62.3125 22.2125 61.875 22.875 61.275 23.475L23.475 61.275C22.925 61.825 22.2875 62.25 21.5625 62.55C20.8375 62.85 20.075 63 19.275 63H12ZM46.425 25.575L44.325 23.4L48.6 27.675L46.425 25.575Z" fill="#1E1F24"/>
</g>
</svg>
