<svg width="25" height="24" viewBox="0 0 25 24" fill="none" xmlns="http://www.w3.org/2000/svg">
<mask id="mask0_2465_19843" style="mask-type:alpha" maskUnits="userSpaceOnUse" x="0" y="0" width="25" height="24">
<rect x="0.5" width="24" height="24" fill="#D9D9D9"/>
</mask>
<g mask="url(#mask0_2465_19843)">
<path d="M5.5 20.9996C4.95 20.9996 4.47917 20.8038 4.0875 20.4121C3.69583 20.0204 3.5 19.5496 3.5 18.9996V4.99961C3.5 4.44961 3.69583 3.97878 4.0875 3.58711C4.47917 3.19544 4.95 2.99961 5.5 2.99961H12.025C12.3583 2.99961 12.6083 3.10378 12.775 3.31211C12.9417 3.52044 13.025 3.74961 13.025 3.99961C13.025 4.24961 12.9375 4.47878 12.7625 4.68711C12.5875 4.89544 12.3333 4.99961 12 4.99961H5.5V18.9996H19.5V12.4746C19.5 12.1413 19.6042 11.8913 19.8125 11.7246C20.0208 11.5579 20.25 11.4746 20.5 11.4746C20.75 11.4746 20.9792 11.5579 21.1875 11.7246C21.3958 11.8913 21.5 12.1413 21.5 12.4746V18.9996C21.5 19.5496 21.3042 20.0204 20.9125 20.4121C20.5208 20.8038 20.05 20.9996 19.5 20.9996H5.5ZM9.5 13.9996V11.5746C9.5 11.3079 9.55 11.0538 9.65 10.8121C9.75 10.5704 9.89167 10.3579 10.075 10.1746L18.675 1.57461C18.875 1.37461 19.1 1.22461 19.35 1.12461C19.6 1.02461 19.85 0.974609 20.1 0.974609C20.3667 0.974609 20.6208 1.02461 20.8625 1.12461C21.1042 1.22461 21.325 1.37461 21.525 1.57461L22.925 2.99961C23.1083 3.19961 23.25 3.42044 23.35 3.66211C23.45 3.90378 23.5 4.14961 23.5 4.39961C23.5 4.64961 23.4542 4.89544 23.3625 5.13711C23.2708 5.37878 23.125 5.59961 22.925 5.79961L14.325 14.3996C14.1417 14.5829 13.9292 14.7288 13.6875 14.8371C13.4458 14.9454 13.1917 14.9996 12.925 14.9996H10.5C10.2167 14.9996 9.97917 14.9038 9.7875 14.7121C9.59583 14.5204 9.5 14.2829 9.5 13.9996ZM11.5 12.9996H12.9L18.7 7.19961L18 6.49961L17.275 5.79961L11.5 11.5746V12.9996Z" fill="#072C0B"/>
</g>
</svg>
