<svg width="18" height="18" viewBox="0 0 18 18" fill="none" xmlns="http://www.w3.org/2000/svg">
<mask id="mask0_2568_8850" style="mask-type:alpha" maskUnits="userSpaceOnUse" x="0" y="0" width="18" height="18">
<rect width="18" height="18" fill="#D9D9D9"/>
</mask>
<g mask="url(#mask0_2568_8850)">
<path d="M14.25 16.5H12C11.7875 16.5 11.6094 16.4281 11.4656 16.2844C11.3219 16.1406 11.25 15.9625 11.25 15.75C11.25 15.5375 11.3219 15.3594 11.4656 15.2156C11.6094 15.0719 11.7875 15 12 15H14.25V7.5H3.75V9.75C3.75 9.9625 3.67813 10.1406 3.53438 10.2844C3.39062 10.4281 3.2125 10.5 3 10.5C2.7875 10.5 2.60938 10.4281 2.46563 10.2844C2.32188 10.1406 2.25 9.9625 2.25 9.75V4.5C2.25 4.0875 2.39688 3.73438 2.69063 3.44063C2.98438 3.14688 3.3375 3 3.75 3H4.5V2.25C4.5 2.0375 4.57187 1.85938 4.71562 1.71563C4.85938 1.57188 5.0375 1.5 5.25 1.5C5.4625 1.5 5.64062 1.57188 5.78438 1.71563C5.92812 1.85938 6 2.0375 6 2.25V3H12V2.25C12 2.0375 12.0719 1.85938 12.2156 1.71563C12.3594 1.57188 12.5375 1.5 12.75 1.5C12.9625 1.5 13.1406 1.57188 13.2844 1.71563C13.4281 1.85938 13.5 2.0375 13.5 2.25V3H14.25C14.6625 3 15.0156 3.14688 15.3094 3.44063C15.6031 3.73438 15.75 4.0875 15.75 4.5V15C15.75 15.4125 15.6031 15.7656 15.3094 16.0594C15.0156 16.3531 14.6625 16.5 14.25 16.5ZM6.88125 15H1.5C1.2875 15 1.10938 14.9281 0.965625 14.7844C0.821875 14.6406 0.75 14.4625 0.75 14.25C0.75 14.0375 0.821875 13.8594 0.965625 13.7156C1.10938 13.5719 1.2875 13.5 1.5 13.5H6.88125L5.475 12.075C5.3375 11.9375 5.26562 11.7656 5.25938 11.5594C5.25313 11.3531 5.325 11.175 5.475 11.025C5.6125 10.8875 5.7875 10.8188 6 10.8188C6.2125 10.8188 6.3875 10.8875 6.525 11.025L9.225 13.725C9.375 13.875 9.45 14.05 9.45 14.25C9.45 14.45 9.375 14.625 9.225 14.775L6.525 17.475C6.3875 17.6125 6.21563 17.6844 6.00938 17.6906C5.80313 17.6969 5.625 17.625 5.475 17.475C5.3375 17.3375 5.26875 17.1625 5.26875 16.95C5.26875 16.7375 5.3375 16.5625 5.475 16.425L6.88125 15Z" fill="#3F3F43"/>
</g>
</svg>
