<svg width="49" height="48" viewBox="0 0 49 48" fill="none" xmlns="http://www.w3.org/2000/svg">
<mask id="mask0_2945_2418" style="mask-type:alpha" maskUnits="userSpaceOnUse" x="0" y="0" width="49" height="48">
<rect x="0.5" width="48" height="48" fill="#D9D9D9"/>
</mask>
<g mask="url(#mask0_2945_2418)">
<path d="M36.5 12C35.4 12 34.4583 11.6083 33.675 10.825C32.8917 10.0417 32.5 9.1 32.5 8C32.5 6.9 32.8917 5.95833 33.675 5.175C34.4583 4.39167 35.4 4 36.5 4C37.6 4 38.5417 4.39167 39.325 5.175C40.1083 5.95833 40.5 6.9 40.5 8C40.5 9.1 40.1083 10.0417 39.325 10.825C38.5417 11.6083 37.6 12 36.5 12ZM34.5 42V28C34.5 26.6667 34.1583 25.4667 33.475 24.4C32.7917 23.3333 31.9167 22.5 30.85 21.9L32.6 16.75C32.8667 15.9167 33.3583 15.25 34.075 14.75C34.7917 14.25 35.6 14 36.5 14C37.4 14 38.2083 14.25 38.925 14.75C39.6417 15.25 40.1333 15.9167 40.4 16.75L44.6 29.35C44.8333 30.0167 44.7417 30.625 44.325 31.175C43.9083 31.725 43.3667 32 42.7 32H40.5V42C40.5 42.5667 40.3083 43.0417 39.925 43.425C39.5417 43.8083 39.0667 44 38.5 44H36.5C35.9333 44 35.4583 43.8083 35.075 43.425C34.6917 43.0417 34.5 42.5667 34.5 42ZM25.5 23C24.6667 23 23.9583 22.7083 23.375 22.125C22.7917 21.5417 22.5 20.8333 22.5 20C22.5 19.1667 22.7917 18.4583 23.375 17.875C23.9583 17.2917 24.6667 17 25.5 17C26.3333 17 27.0417 17.2917 27.625 17.875C28.2083 18.4583 28.5 19.1667 28.5 20C28.5 20.8333 28.2083 21.5417 27.625 22.125C27.0417 22.7083 26.3333 23 25.5 23ZM11.5 12C10.4 12 9.45833 11.6083 8.675 10.825C7.89167 10.0417 7.5 9.1 7.5 8C7.5 6.9 7.89167 5.95833 8.675 5.175C9.45833 4.39167 10.4 4 11.5 4C12.6 4 13.5417 4.39167 14.325 5.175C15.1083 5.95833 15.5 6.9 15.5 8C15.5 9.1 15.1083 10.0417 14.325 10.825C13.5417 11.6083 12.6 12 11.5 12ZM7.5 42V30H6.5C5.93333 30 5.45833 29.8083 5.075 29.425C4.69167 29.0417 4.5 28.5667 4.5 28V18C4.5 16.9 4.89167 15.9583 5.675 15.175C6.45833 14.3917 7.4 14 8.5 14H14.5C15.6 14 16.5417 14.3917 17.325 15.175C18.1083 15.9583 18.5 16.9 18.5 18V28C18.5 28.5667 18.3083 29.0417 17.925 29.425C17.5417 29.8083 17.0667 30 16.5 30H15.5V42C15.5 42.5667 15.3083 43.0417 14.925 43.425C14.5417 43.8083 14.0667 44 13.5 44H9.5C8.93333 44 8.45833 43.8083 8.075 43.425C7.69167 43.0417 7.5 42.5667 7.5 42ZM22.5 42V36C21.9333 36 21.4583 35.8083 21.075 35.425C20.6917 35.0417 20.5 34.5667 20.5 34V28C20.5 27.1667 20.7917 26.4583 21.375 25.875C21.9583 25.2917 22.6667 25 23.5 25H27.5C28.3333 25 29.0417 25.2917 29.625 25.875C30.2083 26.4583 30.5 27.1667 30.5 28V34C30.5 34.5667 30.3083 35.0417 29.925 35.425C29.5417 35.8083 29.0667 36 28.5 36V42C28.5 42.5667 28.3083 43.0417 27.925 43.425C27.5417 43.8083 27.0667 44 26.5 44H24.5C23.9333 44 23.4583 43.8083 23.075 43.425C22.6917 43.0417 22.5 42.5667 22.5 42Z" fill="#5E4007"/>
</g>
</svg>
