<svg width="49" height="49" viewBox="0 0 49 49" fill="none" xmlns="http://www.w3.org/2000/svg">
<mask id="mask0_99_7068" style="mask-type:alpha" maskUnits="userSpaceOnUse" x="0" y="0" width="49" height="49">
<rect x="0.25" y="0.8125" width="48" height="48" fill="#D9D9D9"/>
</mask>
<g mask="url(#mask0_99_7068)">
<path d="M36.25 12.8125C35.15 12.8125 34.2083 12.4208 33.425 11.6375C32.6417 10.8542 32.25 9.9125 32.25 8.8125C32.25 7.7125 32.6417 6.77083 33.425 5.9875C34.2083 5.20417 35.15 4.8125 36.25 4.8125C37.35 4.8125 38.2917 5.20417 39.075 5.9875C39.8583 6.77083 40.25 7.7125 40.25 8.8125C40.25 9.9125 39.8583 10.8542 39.075 11.6375C38.2917 12.4208 37.35 12.8125 36.25 12.8125ZM34.25 42.8125V28.8125C34.25 27.4792 33.9083 26.2792 33.225 25.2125C32.5417 24.1458 31.6667 23.3125 30.6 22.7125L32.35 17.5625C32.6167 16.7292 33.1083 16.0625 33.825 15.5625C34.5417 15.0625 35.35 14.8125 36.25 14.8125C37.15 14.8125 37.9583 15.0625 38.675 15.5625C39.3917 16.0625 39.8833 16.7292 40.15 17.5625L44.35 30.1625C44.5833 30.8292 44.4917 31.4375 44.075 31.9875C43.6583 32.5375 43.1167 32.8125 42.45 32.8125H40.25V42.8125C40.25 43.3792 40.0583 43.8542 39.675 44.2375C39.2917 44.6208 38.8167 44.8125 38.25 44.8125H36.25C35.6833 44.8125 35.2083 44.6208 34.825 44.2375C34.4417 43.8542 34.25 43.3792 34.25 42.8125ZM25.25 23.8125C24.4167 23.8125 23.7083 23.5208 23.125 22.9375C22.5417 22.3542 22.25 21.6458 22.25 20.8125C22.25 19.9792 22.5417 19.2708 23.125 18.6875C23.7083 18.1042 24.4167 17.8125 25.25 17.8125C26.0833 17.8125 26.7917 18.1042 27.375 18.6875C27.9583 19.2708 28.25 19.9792 28.25 20.8125C28.25 21.6458 27.9583 22.3542 27.375 22.9375C26.7917 23.5208 26.0833 23.8125 25.25 23.8125ZM11.25 12.8125C10.15 12.8125 9.20833 12.4208 8.425 11.6375C7.64167 10.8542 7.25 9.9125 7.25 8.8125C7.25 7.7125 7.64167 6.77083 8.425 5.9875C9.20833 5.20417 10.15 4.8125 11.25 4.8125C12.35 4.8125 13.2917 5.20417 14.075 5.9875C14.8583 6.77083 15.25 7.7125 15.25 8.8125C15.25 9.9125 14.8583 10.8542 14.075 11.6375C13.2917 12.4208 12.35 12.8125 11.25 12.8125ZM7.25 42.8125V30.8125H6.25C5.68333 30.8125 5.20833 30.6208 4.825 30.2375C4.44167 29.8542 4.25 29.3792 4.25 28.8125V18.8125C4.25 17.7125 4.64167 16.7708 5.425 15.9875C6.20833 15.2042 7.15 14.8125 8.25 14.8125H14.25C15.35 14.8125 16.2917 15.2042 17.075 15.9875C17.8583 16.7708 18.25 17.7125 18.25 18.8125V28.8125C18.25 29.3792 18.0583 29.8542 17.675 30.2375C17.2917 30.6208 16.8167 30.8125 16.25 30.8125H15.25V42.8125C15.25 43.3792 15.0583 43.8542 14.675 44.2375C14.2917 44.6208 13.8167 44.8125 13.25 44.8125H9.25C8.68333 44.8125 8.20833 44.6208 7.825 44.2375C7.44167 43.8542 7.25 43.3792 7.25 42.8125ZM22.25 42.8125V36.8125C21.6833 36.8125 21.2083 36.6208 20.825 36.2375C20.4417 35.8542 20.25 35.3792 20.25 34.8125V28.8125C20.25 27.9792 20.5417 27.2708 21.125 26.6875C21.7083 26.1042 22.4167 25.8125 23.25 25.8125H27.25C28.0833 25.8125 28.7917 26.1042 29.375 26.6875C29.9583 27.2708 30.25 27.9792 30.25 28.8125V34.8125C30.25 35.3792 30.0583 35.8542 29.675 36.2375C29.2917 36.6208 28.8167 36.8125 28.25 36.8125V42.8125C28.25 43.3792 28.0583 43.8542 27.675 44.2375C27.2917 44.6208 26.8167 44.8125 26.25 44.8125H24.25C23.6833 44.8125 23.2083 44.6208 22.825 44.2375C22.4417 43.8542 22.25 43.3792 22.25 42.8125Z" fill="#5E4007"/>
</g>
</svg>
