<svg width="24" height="25" viewBox="0 0 24 25" fill="none" xmlns="http://www.w3.org/2000/svg">
<mask id="mask0_2390_8513" style="mask-type:alpha" maskUnits="userSpaceOnUse" x="0" y="0" width="24" height="25">
<rect y="0.5" width="24" height="24" fill="#D9D9D9"/>
</mask>
<g mask="url(#mask0_2390_8513)">
<path d="M12 20.8249C11.7667 20.8249 11.5292 20.7832 11.2875 20.6999C11.0458 20.6166 10.8333 20.4832 10.65 20.2999L8.925 18.7249C7.15833 17.1082 5.5625 15.5041 4.1375 13.9124C2.7125 12.3207 2 10.5666 2 8.6499C2 7.08324 2.525 5.7749 3.575 4.7249C4.625 3.6749 5.93333 3.1499 7.5 3.1499C8.38333 3.1499 9.21667 3.3374 10 3.7124C10.7833 4.0874 11.45 4.5999 12 5.2499C12.55 4.5999 13.2167 4.0874 14 3.7124C14.7833 3.3374 15.6167 3.1499 16.5 3.1499C18.0667 3.1499 19.375 3.6749 20.425 4.7249C21.475 5.7749 22 7.08324 22 8.6499C22 10.5666 21.2917 12.3249 19.875 13.9249C18.4583 15.5249 16.85 17.1332 15.05 18.7499L13.35 20.2999C13.1667 20.4832 12.9542 20.6166 12.7125 20.6999C12.4708 20.7832 12.2333 20.8249 12 20.8249ZM11.05 7.2499C10.5667 6.56657 10.05 6.04574 9.5 5.6874C8.95 5.32907 8.28333 5.1499 7.5 5.1499C6.5 5.1499 5.66667 5.48324 5 6.1499C4.33333 6.81657 4 7.6499 4 8.6499C4 9.51657 4.30833 10.4374 4.925 11.4124C5.54167 12.3874 6.27917 13.3332 7.1375 14.2499C7.99583 15.1666 8.87917 16.0249 9.7875 16.8249C10.6958 17.6249 11.4333 18.2832 12 18.7999C12.5667 18.2832 13.3042 17.6249 14.2125 16.8249C15.1208 16.0249 16.0042 15.1666 16.8625 14.2499C17.7208 13.3332 18.4583 12.3874 19.075 11.4124C19.6917 10.4374 20 9.51657 20 8.6499C20 7.6499 19.6667 6.81657 19 6.1499C18.3333 5.48324 17.5 5.1499 16.5 5.1499C15.7167 5.1499 15.05 5.32907 14.5 5.6874C13.95 6.04574 13.4333 6.56657 12.95 7.2499C12.8333 7.41657 12.6917 7.54157 12.525 7.6249C12.3583 7.70824 12.1833 7.7499 12 7.7499C11.8167 7.7499 11.6417 7.70824 11.475 7.6249C11.3083 7.54157 11.1667 7.41657 11.05 7.2499Z" fill="#3F2525"/>
</g>
</svg>
