<svg width="18" height="18" viewBox="0 0 18 18" fill="none" xmlns="http://www.w3.org/2000/svg">
<mask id="mask0_2568_8860" style="mask-type:alpha" maskUnits="userSpaceOnUse" x="0" y="0" width="18" height="18">
<rect width="18" height="18" fill="#D9D9D9"/>
</mask>
<g mask="url(#mask0_2568_8860)">
<path d="M2.1188 7.14375L4.5938 2.68125C4.6688 2.54375 4.76255 2.44375 4.87505 2.38125C4.98755 2.31875 5.11255 2.2875 5.25005 2.2875C5.38755 2.2875 5.51255 2.31875 5.62505 2.38125C5.73755 2.44375 5.8313 2.54375 5.9063 2.68125L8.3813 7.14375C8.4438 7.26875 8.47192 7.39375 8.46567 7.51875C8.45942 7.64375 8.42505 7.7625 8.36255 7.875C8.30005 7.9875 8.21255 8.07812 8.10005 8.14688C7.98755 8.21563 7.86255 8.25 7.72505 8.25H2.77505C2.63755 8.25 2.51255 8.21563 2.40005 8.14688C2.28755 8.07812 2.20005 7.9875 2.13755 7.875C2.07505 7.7625 2.04067 7.64375 2.03442 7.51875C2.02817 7.39375 2.0563 7.26875 2.1188 7.14375ZM5.25005 15.75C4.42505 15.75 3.7188 15.4563 3.1313 14.8688C2.5438 14.2813 2.25005 13.575 2.25005 12.75C2.25005 11.925 2.5438 11.2188 3.1313 10.6313C3.7188 10.0437 4.42505 9.75 5.25005 9.75C6.07505 9.75 6.7813 10.0437 7.3688 10.6313C7.9563 11.2188 8.25005 11.925 8.25005 12.75C8.25005 13.575 7.9563 14.2813 7.3688 14.8688C6.7813 15.4563 6.07505 15.75 5.25005 15.75ZM9.75005 15V10.5C9.75005 10.2875 9.82192 10.1094 9.96567 9.96563C10.1094 9.82188 10.2875 9.75 10.5 9.75H15C15.2125 9.75 15.3907 9.82188 15.5344 9.96563C15.6782 10.1094 15.75 10.2875 15.75 10.5V15C15.75 15.2125 15.6782 15.3906 15.5344 15.5344C15.3907 15.6781 15.2125 15.75 15 15.75H10.5C10.2875 15.75 10.1094 15.6781 9.96567 15.5344C9.82192 15.3906 9.75005 15.2125 9.75005 15ZM12.2625 7.8375L11.2688 6.99375C10.4063 6.26875 9.81255 5.69687 9.48755 5.27812C9.16255 4.85938 9.00005 4.39375 9.00005 3.88125C9.00005 3.31875 9.19692 2.84375 9.59067 2.45625C9.98442 2.06875 10.475 1.875 11.0625 1.875C11.4 1.875 11.7157 1.95312 12.0094 2.10938C12.3032 2.26562 12.55 2.48125 12.75 2.75625C12.95 2.48125 13.1969 2.26562 13.4907 2.10938C13.7844 1.95312 14.1 1.875 14.4375 1.875C15.025 1.875 15.5157 2.06875 15.9094 2.45625C16.3032 2.84375 16.5 3.31875 16.5 3.88125C16.5 4.39375 16.3375 4.85938 16.0125 5.27812C15.6875 5.69687 15.0938 6.26875 14.2313 6.99375L13.2375 7.8375C13.1 7.9625 12.9375 8.025 12.75 8.025C12.5625 8.025 12.4 7.9625 12.2625 7.8375Z" fill="#3F3F43"/>
</g>
</svg>
