<svg width="49" height="49" viewBox="0 0 49 49" fill="none" xmlns="http://www.w3.org/2000/svg">
<mask id="mask0_99_7074" style="mask-type:alpha" maskUnits="userSpaceOnUse" x="0" y="0" width="49" height="49">
<rect x="0.75" y="0.8125" width="48" height="48" fill="#D9D9D9"/>
</mask>
<g mask="url(#mask0_99_7074)">
<path d="M24.75 44.8125C22.0167 44.8125 19.4333 44.2875 17 43.2375C14.5667 42.1875 12.4417 40.7542 10.625 38.9375C8.80833 37.1208 7.375 34.9958 6.325 32.5625C5.275 30.1292 4.75 27.5458 4.75 24.8125C4.75 22.0458 5.275 19.4542 6.325 17.0375C7.375 14.6208 8.80833 12.5042 10.625 10.6875C12.4417 8.87083 14.5667 7.4375 17 6.3875C19.4333 5.3375 22.0167 4.8125 24.75 4.8125C27.5167 4.8125 30.1083 5.3375 32.525 6.3875C34.9417 7.4375 37.0583 8.87083 38.875 10.6875C40.6917 12.5042 42.125 14.6208 43.175 17.0375C44.225 19.4542 44.75 22.0458 44.75 24.8125C44.75 27.5458 44.225 30.1292 43.175 32.5625C42.125 34.9958 40.6917 37.1208 38.875 38.9375C37.0583 40.7542 34.9417 42.1875 32.525 43.2375C30.1083 44.2875 27.5167 44.8125 24.75 44.8125ZM24.75 40.7125C25.6167 39.5125 26.3667 38.2625 27 36.9625C27.6333 35.6625 28.15 34.2792 28.55 32.8125H20.95C21.35 34.2792 21.8667 35.6625 22.5 36.9625C23.1333 38.2625 23.8833 39.5125 24.75 40.7125ZM19.55 39.9125C18.95 38.8125 18.425 37.6708 17.975 36.4875C17.525 35.3042 17.15 34.0792 16.85 32.8125H10.95C11.9167 34.4792 13.125 35.9292 14.575 37.1625C16.025 38.3958 17.6833 39.3125 19.55 39.9125ZM29.95 39.9125C31.8167 39.3125 33.475 38.3958 34.925 37.1625C36.375 35.9292 37.5833 34.4792 38.55 32.8125H32.65C32.35 34.0792 31.975 35.3042 31.525 36.4875C31.075 37.6708 30.55 38.8125 29.95 39.9125ZM9.25 28.8125H16.05C15.95 28.1458 15.875 27.4875 15.825 26.8375C15.775 26.1875 15.75 25.5125 15.75 24.8125C15.75 24.1125 15.775 23.4375 15.825 22.7875C15.875 22.1375 15.95 21.4792 16.05 20.8125H9.25C9.08333 21.4792 8.95833 22.1375 8.875 22.7875C8.79167 23.4375 8.75 24.1125 8.75 24.8125C8.75 25.5125 8.79167 26.1875 8.875 26.8375C8.95833 27.4875 9.08333 28.1458 9.25 28.8125ZM20.05 28.8125H29.45C29.55 28.1458 29.625 27.4875 29.675 26.8375C29.725 26.1875 29.75 25.5125 29.75 24.8125C29.75 24.1125 29.725 23.4375 29.675 22.7875C29.625 22.1375 29.55 21.4792 29.45 20.8125H20.05C19.95 21.4792 19.875 22.1375 19.825 22.7875C19.775 23.4375 19.75 24.1125 19.75 24.8125C19.75 25.5125 19.775 26.1875 19.825 26.8375C19.875 27.4875 19.95 28.1458 20.05 28.8125ZM33.45 28.8125H40.25C40.4167 28.1458 40.5417 27.4875 40.625 26.8375C40.7083 26.1875 40.75 25.5125 40.75 24.8125C40.75 24.1125 40.7083 23.4375 40.625 22.7875C40.5417 22.1375 40.4167 21.4792 40.25 20.8125H33.45C33.55 21.4792 33.625 22.1375 33.675 22.7875C33.725 23.4375 33.75 24.1125 33.75 24.8125C33.75 25.5125 33.725 26.1875 33.675 26.8375C33.625 27.4875 33.55 28.1458 33.45 28.8125ZM32.65 16.8125H38.55C37.5833 15.1458 36.375 13.6958 34.925 12.4625C33.475 11.2292 31.8167 10.3125 29.95 9.7125C30.55 10.8125 31.075 11.9542 31.525 13.1375C31.975 14.3208 32.35 15.5458 32.65 16.8125ZM20.95 16.8125H28.55C28.15 15.3458 27.6333 13.9625 27 12.6625C26.3667 11.3625 25.6167 10.1125 24.75 8.9125C23.8833 10.1125 23.1333 11.3625 22.5 12.6625C21.8667 13.9625 21.35 15.3458 20.95 16.8125ZM10.95 16.8125H16.85C17.15 15.5458 17.525 14.3208 17.975 13.1375C18.425 11.9542 18.95 10.8125 19.55 9.7125C17.6833 10.3125 16.025 11.2292 14.575 12.4625C13.125 13.6958 11.9167 15.1458 10.95 16.8125Z" fill="#7C2908"/>
</g>
</svg>
