<svg width="18" height="18" viewBox="0 0 18 18" fill="none" xmlns="http://www.w3.org/2000/svg">
<mask id="mask0_2568_8845" style="mask-type:alpha" maskUnits="userSpaceOnUse" x="0" y="0" width="18" height="18">
<rect width="18" height="18" fill="#D9D9D9"/>
</mask>
<g mask="url(#mask0_2568_8845)">
<path d="M3 15C2.5875 15 2.23438 14.8531 1.94063 14.5594C1.64688 14.2656 1.5 13.9125 1.5 13.5V4.5C1.5 4.0875 1.64688 3.73438 1.94063 3.44063C2.23438 3.14688 2.5875 3 3 3H15C15.4125 3 15.7656 3.14688 16.0594 3.44063C16.3531 3.73438 16.5 4.0875 16.5 4.5V13.5C16.5 13.9125 16.3531 14.2656 16.0594 14.5594C15.7656 14.8531 15.4125 15 15 15H3ZM9 9.61875C9.0625 9.61875 9.12812 9.60938 9.19687 9.59063C9.26562 9.57188 9.33125 9.54375 9.39375 9.50625L14.7 6.1875C14.8 6.125 14.875 6.04688 14.925 5.95312C14.975 5.85938 15 5.75625 15 5.64375C15 5.39375 14.8938 5.20625 14.6813 5.08125C14.4688 4.95625 14.25 4.9625 14.025 5.1L9 8.25L3.975 5.1C3.75 4.9625 3.53125 4.95938 3.31875 5.09063C3.10625 5.22188 3 5.40625 3 5.64375C3 5.76875 3.025 5.87813 3.075 5.97188C3.125 6.06563 3.2 6.1375 3.3 6.1875L8.60625 9.50625C8.66875 9.54375 8.73438 9.57188 8.80313 9.59063C8.87188 9.60938 8.9375 9.61875 9 9.61875Z" fill="#3F3F43"/>
</g>
</svg>
