<svg width="40" height="40" viewBox="0 0 40 40" fill="none" xmlns="http://www.w3.org/2000/svg">
<mask id="mask0_2204_8258" style="mask-type:alpha" maskUnits="userSpaceOnUse" x="0" y="0" width="40" height="40">
<rect width="40" height="40" fill="#D9D9D9"/>
</mask>
<g mask="url(#mask0_2204_8258)">
<path d="M3.3335 30.0003V28.667C3.3335 27.7225 3.56961 26.8545 4.04183 26.0628C4.51405 25.2712 5.16683 24.667 6.00016 24.2503C7.5835 23.4448 9.22933 22.8059 10.9377 22.3337C12.646 21.8614 14.3891 21.6253 16.1668 21.6253C16.5557 21.6253 16.8613 21.7989 17.0835 22.1462C17.3057 22.4934 17.3474 22.8614 17.2085 23.2503C17.0418 23.8337 16.9168 24.417 16.8335 25.0003C16.7502 25.5837 16.7085 26.1809 16.7085 26.792C16.7085 27.5975 16.7918 28.3753 16.9585 29.1253C17.1252 29.8753 17.3613 30.6114 17.6668 31.3337C17.8891 31.8059 17.8682 32.2573 17.6043 32.6878C17.3404 33.1184 16.9724 33.3337 16.5002 33.3337H6.66683C5.75016 33.3337 4.96544 33.0073 4.31266 32.3545C3.65989 31.7017 3.3335 30.917 3.3335 30.0003ZM28.3335 30.0003C29.2502 30.0003 30.0349 29.6739 30.6877 29.0212C31.3404 28.3684 31.6668 27.5837 31.6668 26.667C31.6668 25.7503 31.3404 24.9656 30.6877 24.3128C30.0349 23.66 29.2502 23.3337 28.3335 23.3337C27.4168 23.3337 26.6321 23.66 25.9793 24.3128C25.3266 24.9656 25.0002 25.7503 25.0002 26.667C25.0002 27.5837 25.3266 28.3684 25.9793 29.0212C26.6321 29.6739 27.4168 30.0003 28.3335 30.0003ZM16.6668 20.0003C14.8335 20.0003 13.2641 19.3475 11.9585 18.042C10.6529 16.7364 10.0002 15.167 10.0002 13.3337C10.0002 11.5003 10.6529 9.93088 11.9585 8.62533C13.2641 7.31977 14.8335 6.66699 16.6668 6.66699C18.5002 6.66699 20.0696 7.31977 21.3752 8.62533C22.6807 9.93088 23.3335 11.5003 23.3335 13.3337C23.3335 15.167 22.6807 16.7364 21.3752 18.042C20.0696 19.3475 18.5002 20.0003 16.6668 20.0003ZM26.4168 33.667L26.1668 32.5003C25.8335 32.3614 25.521 32.2156 25.2293 32.0628C24.9377 31.91 24.6391 31.7225 24.3335 31.5003L23.1252 31.8753C22.7641 31.9864 22.4099 31.9725 22.0627 31.8337C21.7154 31.6948 21.4446 31.4725 21.2502 31.167L20.9168 30.5837C20.7224 30.2503 20.6529 29.8892 20.7085 29.5003C20.7641 29.1114 20.9446 28.792 21.2502 28.542L22.1668 27.7503C22.1113 27.3614 22.0835 27.0003 22.0835 26.667C22.0835 26.3337 22.1113 25.9725 22.1668 25.5837L21.2502 24.792C20.9446 24.542 20.7641 24.2295 20.7085 23.8545C20.6529 23.4795 20.7224 23.1253 20.9168 22.792L21.2918 22.167C21.4863 21.8614 21.7502 21.6392 22.0835 21.5003C22.4168 21.3614 22.7641 21.3475 23.1252 21.4587L24.3335 21.8337C24.6391 21.6114 24.9377 21.4239 25.2293 21.2712C25.521 21.1184 25.8335 20.9725 26.1668 20.8337L26.4168 19.6253C26.5002 19.2364 26.6877 18.9239 26.9793 18.6878C27.271 18.4517 27.6113 18.3337 28.0002 18.3337H28.6668C29.0557 18.3337 29.396 18.4587 29.6877 18.7087C29.9793 18.9587 30.1668 19.2781 30.2502 19.667L30.5002 20.8337C30.8335 20.9725 31.146 21.1253 31.4377 21.292C31.7293 21.4587 32.0279 21.667 32.3335 21.917L33.4585 21.542C33.8474 21.4031 34.2224 21.4031 34.5835 21.542C34.9446 21.6809 35.2224 21.917 35.4168 22.2503L35.7502 22.8337C35.9446 23.167 36.0141 23.5281 35.9585 23.917C35.9029 24.3059 35.7224 24.6253 35.4168 24.8753L34.5002 25.667C34.5557 26.0003 34.5835 26.3475 34.5835 26.7087C34.5835 27.0698 34.5557 27.417 34.5002 27.7503L35.4168 28.542C35.7224 28.792 35.9029 29.1045 35.9585 29.4795C36.0141 29.8545 35.9446 30.2087 35.7502 30.542L35.3752 31.167C35.1807 31.4725 34.9168 31.6948 34.5835 31.8337C34.2502 31.9725 33.9029 31.9864 33.5418 31.8753L32.3335 31.5003C32.0279 31.7225 31.7293 31.91 31.4377 32.0628C31.146 32.2156 30.8335 32.3614 30.5002 32.5003L30.2502 33.7087C30.1668 34.0975 29.9793 34.41 29.6877 34.6462C29.396 34.8823 29.0557 35.0003 28.6668 35.0003H28.0002C27.6113 35.0003 27.271 34.8753 26.9793 34.6253C26.6877 34.3753 26.5002 34.0559 26.4168 33.667Z" fill="#3F2525"/>
</g>
</svg>
