<svg width="24" height="24" viewBox="0 0 24 24" fill="none" xmlns="http://www.w3.org/2000/svg">
<mask id="mask0_98_4723" style="mask-type:alpha" maskUnits="userSpaceOnUse" x="0" y="0" width="24" height="24">
<rect width="24" height="24" fill="#D9D9D9"/>
</mask>
<g mask="url(#mask0_98_4723)">
<path d="M3 19.025C2.45 19.025 1.97917 18.8292 1.5875 18.4375C1.19583 18.0458 1 17.575 1 17.025V15.025C1 14.7417 1.09583 14.5042 1.2875 14.3125C1.47917 14.1208 1.71667 14.025 2 14.025C2.28333 14.025 2.52083 14.1208 2.7125 14.3125C2.90417 14.5042 3 14.7417 3 15.025V17.025H21V15.025C21 14.7417 21.0958 14.5042 21.2875 14.3125C21.4792 14.1208 21.7167 14.025 22 14.025C22.2833 14.025 22.5208 14.1208 22.7125 14.3125C22.9042 14.5042 23 14.7417 23 15.025V17.025C23 17.575 22.8042 18.0458 22.4125 18.4375C22.0208 18.8292 21.55 19.025 21 19.025H3ZM7.35 15.225C6.53333 15.225 5.89167 15.0125 5.425 14.5875C4.95833 14.1625 4.725 13.5833 4.725 12.85C4.725 12.15 4.99583 11.5792 5.5375 11.1375C6.07917 10.6958 6.775 10.475 7.625 10.475C8.00833 10.475 8.3625 10.5042 8.6875 10.5625C9.0125 10.6208 9.29167 10.7167 9.525 10.85V10.5C9.525 10.05 9.37083 9.69167 9.0625 9.42501C8.75417 9.15834 8.33333 9.02501 7.8 9.02501C7.55 9.02501 7.3125 9.06251 7.0875 9.13751C6.8625 9.21251 6.65833 9.31667 6.475 9.45001C6.325 9.56667 6.1625 9.63334 5.9875 9.65001C5.8125 9.66667 5.65 9.61667 5.5 9.50001C5.35 9.38334 5.25833 9.23751 5.225 9.06251C5.19167 8.88751 5.24167 8.73334 5.375 8.60001C5.675 8.31667 6.02917 8.10001 6.4375 7.95001C6.84583 7.80001 7.30833 7.72501 7.825 7.72501C8.85833 7.72501 9.65 7.97084 10.2 8.46251C10.75 8.95417 11.025 9.66667 11.025 10.6V14.275C11.025 14.475 10.9542 14.6458 10.8125 14.7875C10.6708 14.9292 10.5 15 10.3 15C10.0833 15 9.90417 14.9292 9.7625 14.7875C9.62083 14.6458 9.55 14.4667 9.55 14.25V14.15H9.475C9.25833 14.4833 8.96667 14.7458 8.6 14.9375C8.23333 15.1292 7.81667 15.225 7.35 15.225ZM7.9 11.65C7.36667 11.65 6.95833 11.7542 6.675 11.9625C6.39167 12.1708 6.25 12.4667 6.25 12.85C6.25 13.1833 6.375 13.4542 6.625 13.6625C6.875 13.8708 7.2 13.975 7.6 13.975C8.13333 13.975 8.5875 13.7875 8.9625 13.4125C9.3375 13.0375 9.525 12.5833 9.525 12.05C9.29167 11.9167 9.025 11.8167 8.725 11.75C8.425 11.6833 8.15 11.65 7.9 11.65ZM16.325 15.225C15.6417 15.225 15.1208 15.075 14.7625 14.775C14.4042 14.475 14.175 14.2417 14.075 14.075H14V14.4C14 14.6 13.9292 14.7708 13.7875 14.9125C13.6458 15.0542 13.475 15.125 13.275 15.125C13.075 15.125 12.9 15.05 12.75 14.9C12.6 14.75 12.525 14.575 12.525 14.375V5.75001C12.525 5.53334 12.6 5.35001 12.75 5.20001C12.9 5.05001 13.0833 4.97501 13.3 4.97501C13.5167 4.97501 13.7 5.05001 13.85 5.20001C14 5.35001 14.075 5.53334 14.075 5.75001V7.80001L14 8.80001H14.075C14.125 8.71667 14.325 8.50417 14.675 8.16251C15.025 7.82084 15.575 7.65001 16.325 7.65001C17.3917 7.65001 18.2333 8.03334 18.85 8.80001C19.4667 9.56667 19.775 10.45 19.775 11.45C19.775 12.45 19.4708 13.3292 18.8625 14.0875C18.2542 14.8458 17.4083 15.225 16.325 15.225ZM16.1 9.05001C15.4333 9.05001 14.9167 9.29584 14.55 9.78751C14.1833 10.2792 14 10.825 14 11.425C14 12.0417 14.1833 12.5917 14.55 13.075C14.9167 13.5583 15.4333 13.8 16.1 13.8C16.7667 13.8 17.2875 13.5583 17.6625 13.075C18.0375 12.5917 18.225 12.0417 18.225 11.425C18.225 10.8083 18.0375 10.2583 17.6625 9.77501C17.2875 9.29167 16.7667 9.05001 16.1 9.05001Z" fill="#3F2525"/>
</g>
</svg>
