<svg width="32" height="32" viewBox="0 0 32 32" fill="none" xmlns="http://www.w3.org/2000/svg">
<mask id="mask0_2743_1615" style="mask-type:alpha" maskUnits="userSpaceOnUse" x="0" y="0" width="33" height="32">
<rect x="0.000244141" width="32" height="32" fill="#D9D9D9"/>
</mask>
<g mask="url(#mask0_2743_1615)">
<path d="M16.0002 26.2013L13.5335 28.068C13.2668 28.268 13.0002 28.2735 12.7335 28.0846C12.4668 27.8958 12.3891 27.6458 12.5002 27.3346L13.4668 24.268L11.0335 22.5346C10.7668 22.3569 10.6891 22.1124 10.8002 21.8013C10.9113 21.4902 11.1224 21.3346 11.4335 21.3346H14.4002L15.3335 18.268L10.6002 15.468C10.2002 15.2235 9.88905 14.9013 9.66683 14.5013C9.44461 14.1013 9.3335 13.6457 9.3335 13.1346V5.33464C9.3335 4.6013 9.59461 3.97352 10.1168 3.4513C10.6391 2.92908 11.2668 2.66797 12.0002 2.66797H20.0002C20.7335 2.66797 21.3613 2.92908 21.8835 3.4513C22.4057 3.97352 22.6668 4.6013 22.6668 5.33464V13.1346C22.6668 13.6457 22.5557 14.1013 22.3335 14.5013C22.1113 14.9013 21.8002 15.2235 21.4002 15.468L16.6668 18.268L17.6002 21.3346H20.5668C20.8779 21.3346 21.0891 21.4902 21.2002 21.8013C21.3113 22.1124 21.2335 22.3569 20.9668 22.5346L18.5335 24.268L19.5002 27.3346C19.6113 27.6458 19.5335 27.8958 19.2668 28.0846C19.0002 28.2735 18.7335 28.268 18.4668 28.068L16.0002 26.2013ZM14.6668 5.33464V14.7346L16.0002 15.5346L17.3335 14.7346V5.33464H14.6668Z" fill="#3F2525"/>
</g>
</svg>
