<svg width="40" height="40" viewBox="0 0 40 40" fill="none" xmlns="http://www.w3.org/2000/svg">
<mask id="mask0_2204_8254" style="mask-type:alpha" maskUnits="userSpaceOnUse" x="0" y="0" width="40" height="40">
<rect width="40" height="40" fill="#D9D9D9"/>
</mask>
<g mask="url(#mask0_2204_8254)">
<path d="M23.3332 33.3337V31.2503C23.3332 30.8059 23.4234 30.3823 23.604 29.9795C23.7846 29.5767 24.0276 29.2225 24.3332 28.917L32.5415 20.7087C32.7915 20.4587 33.0693 20.2781 33.3748 20.167C33.6804 20.0559 33.9859 20.0003 34.2915 20.0003C34.6248 20.0003 34.9443 20.0628 35.2498 20.1878C35.5554 20.3128 35.8332 20.5003 36.0832 20.7503L37.6248 22.292C37.8471 22.542 38.0207 22.8198 38.1457 23.1253C38.2707 23.4309 38.3332 23.7364 38.3332 24.042C38.3332 24.3475 38.2776 24.66 38.1665 24.9795C38.0554 25.2989 37.8748 25.5837 37.6248 25.8337L29.4165 34.042C29.1109 34.3476 28.7568 34.5837 28.354 34.7503C27.9512 34.917 27.5276 35.0003 27.0832 35.0003H24.9998C24.5276 35.0003 24.1318 34.8406 23.8123 34.5212C23.4929 34.2017 23.3332 33.8059 23.3332 33.3337ZM6.6665 31.667V28.667C6.6665 27.7225 6.90956 26.8545 7.39567 26.0628C7.88178 25.2712 8.52761 24.667 9.33317 24.2503C11.0554 23.3892 12.8054 22.7434 14.5832 22.3128C16.3609 21.8823 18.1665 21.667 19.9998 21.667C21.0276 21.667 22.0415 21.7295 23.0415 21.8545C24.0415 21.9795 25.0415 22.1809 26.0415 22.4587L21.4582 27.042C20.9859 27.5142 20.6248 28.0559 20.3748 28.667C20.1248 29.2781 19.9998 29.917 19.9998 30.5837V33.3337H8.33317C7.86095 33.3337 7.46512 33.1739 7.14567 32.8545C6.82623 32.535 6.6665 32.1392 6.6665 31.667ZM34.2915 25.667L35.8332 24.042L34.2915 22.5003L32.7082 24.0837L34.2915 25.667ZM19.9998 20.0003C18.1665 20.0003 16.5971 19.3475 15.2915 18.042C13.9859 16.7364 13.3332 15.167 13.3332 13.3337C13.3332 11.5003 13.9859 9.93088 15.2915 8.62533C16.5971 7.31977 18.1665 6.66699 19.9998 6.66699C21.8332 6.66699 23.4026 7.31977 24.7082 8.62533C26.0137 9.93088 26.6665 11.5003 26.6665 13.3337C26.6665 15.167 26.0137 16.7364 24.7082 18.042C23.4026 19.3475 21.8332 20.0003 19.9998 20.0003Z" fill="#3F2525"/>
</g>
</svg>
