<svg width="18" height="18" viewBox="0 0 18 18" fill="none" xmlns="http://www.w3.org/2000/svg">
<mask id="mask0_2631_9937" style="mask-type:alpha" maskUnits="userSpaceOnUse" x="0" y="0" width="18" height="18">
<rect width="18" height="18" fill="#D9D9D9"/>
</mask>
<g mask="url(#mask0_2631_9937)">
<path d="M3.75 14.25C3.5375 14.25 3.35938 14.1781 3.21562 14.0344C3.07187 13.8906 3 13.7125 3 13.5C3 13.2875 3.07187 13.1094 3.21562 12.9656C3.35938 12.8219 3.5375 12.75 3.75 12.75H9.75C9.9625 12.75 10.1406 12.8219 10.2844 12.9656C10.4281 13.1094 10.5 13.2875 10.5 13.5C10.5 13.7125 10.4281 13.8906 10.2844 14.0344C10.1406 14.1781 9.9625 14.25 9.75 14.25H3.75ZM3.75 11.25C3.5375 11.25 3.35938 11.1781 3.21562 11.0344C3.07187 10.8906 3 10.7125 3 10.5C3 10.2875 3.07187 10.1094 3.21562 9.96563C3.35938 9.82188 3.5375 9.75 3.75 9.75H14.25C14.4625 9.75 14.6406 9.82188 14.7844 9.96563C14.9281 10.1094 15 10.2875 15 10.5C15 10.7125 14.9281 10.8906 14.7844 11.0344C14.6406 11.1781 14.4625 11.25 14.25 11.25H3.75ZM3.75 8.25C3.5375 8.25 3.35938 8.17812 3.21562 8.03438C3.07187 7.89062 3 7.7125 3 7.5C3 7.2875 3.07187 7.10938 3.21562 6.96562C3.35938 6.82187 3.5375 6.75 3.75 6.75H14.25C14.4625 6.75 14.6406 6.82187 14.7844 6.96562C14.9281 7.10938 15 7.2875 15 7.5C15 7.7125 14.9281 7.89062 14.7844 8.03438C14.6406 8.17812 14.4625 8.25 14.25 8.25H3.75ZM3.75 5.25C3.5375 5.25 3.35938 5.17813 3.21562 5.03437C3.07187 4.89062 3 4.7125 3 4.5C3 4.2875 3.07187 4.10938 3.21562 3.96562C3.35938 3.82187 3.5375 3.75 3.75 3.75H14.25C14.4625 3.75 14.6406 3.82187 14.7844 3.96562C14.9281 4.10938 15 4.2875 15 4.5C15 4.7125 14.9281 4.89062 14.7844 5.03437C14.6406 5.17813 14.4625 5.25 14.25 5.25H3.75Z" fill="#3F3F43"/>
</g>
</svg>
