<svg width="320" height="34" viewBox="0 0 320 34" fill="none" xmlns="http://www.w3.org/2000/svg">
<path d="M0.5 34V0.959998H3.86V34H0.5ZM5.54 34V0.959998H10.58V34H5.54ZM15.62 34V0.959998H17.3V34H15.62ZM20.6644 34V0.959998H22.3444V34H20.6644ZM24.0244 34V0.959998H27.3844V34H24.0244ZM32.4244 34V0.959998H34.1044V34H32.4244ZM40.8288 34V0.959998H45.8688V34H40.8288ZM47.5488 34V0.959998H52.5888V34H47.5488ZM54.2688 34V0.959998H57.6288V34H54.2688ZM60.9931 34V0.959998H62.6731V34H60.9931ZM66.0331 34V0.959998H69.3931V34H66.0331ZM71.0731 34V0.959998H76.1131V34H71.0731ZM81.1575 34V0.959998H86.1975V34H81.1575ZM87.8775 34V0.959998H92.9175V34H87.8775ZM94.5975 34V0.959998H97.9575V34H94.5975ZM101.322 34V0.959998H103.002V34H101.322ZM108.042 34V0.959998H111.402V34H108.042ZM113.082 34V0.959998H118.122V34H113.082ZM121.486 34V0.959998H123.166V34H121.486ZM124.846 34V0.959998H126.526V34H124.846ZM131.566 34V0.959998H134.926V34H131.566ZM141.651 34V0.959998H143.331V34H141.651ZM145.011 34V0.959998H150.051V34H145.011ZM155.091 34V0.959998H158.451V34H155.091ZM161.815 34V0.959998H163.495V34H161.815ZM166.855 34V0.959998H170.215V34H166.855ZM171.895 34V0.959998H176.935V34H171.895ZM181.979 34V0.959998H183.659V34H181.979ZM185.339 34V0.959998H190.379V34H185.339ZM192.059 34V0.959998H195.419V34H192.059ZM202.144 34V0.959998H203.824V34H202.144ZM208.864 34V0.959998H212.224V34H208.864ZM213.904 34V0.959998H215.584V34H213.904ZM222.308 34V0.959998H223.988V34H222.308ZM225.668 34V0.959998H230.708V34H225.668ZM235.748 34V0.959998H239.108V34H235.748ZM242.473 34V0.959998H245.833V34H242.473ZM247.513 34V0.959998H252.553V34H247.513ZM254.233 34V0.959998H255.913V34H254.233ZM262.637 34V0.959998H265.997V34H262.637ZM267.677 34V0.959998H272.717V34H267.677ZM274.397 34V0.959998H279.437V34H274.397ZM282.801 34V0.959998H284.481V34H282.801ZM289.521 34V0.959998H292.881V34H289.521ZM294.561 34V0.959998H296.241V34H294.561ZM302.966 34V0.959998H304.646V34H302.966ZM309.686 34V0.959998H313.046V34H309.686ZM314.726 34V0.959998H319.766V34H314.726Z" fill="#3F3F43"/>
</svg>
