<svg width="49" height="49" viewBox="0 0 49 49" fill="none" xmlns="http://www.w3.org/2000/svg">
<mask id="mask0_99_7062" style="mask-type:alpha" maskUnits="userSpaceOnUse" x="0" y="0" width="49" height="49">
<rect x="0.75" y="0.8125" width="48" height="48" fill="#D9D9D9"/>
</mask>
<g mask="url(#mask0_99_7062)">
<path d="M38.7502 15.8125C39.3169 15.8125 39.7919 15.6208 40.1752 15.2375C40.5586 14.8542 40.7502 14.3792 40.7502 13.8125C40.7502 13.2458 40.5586 12.7708 40.1752 12.3875C39.7919 12.0042 39.3169 11.8125 38.7502 11.8125C38.1836 11.8125 37.7086 12.0042 37.3252 12.3875C36.9419 12.7708 36.7502 13.2458 36.7502 13.8125C36.7502 14.3792 36.9419 14.8542 37.3252 15.2375C37.7086 15.6208 38.1836 15.8125 38.7502 15.8125ZM30.7502 15.8125C31.3169 15.8125 31.7919 15.6208 32.1752 15.2375C32.5586 14.8542 32.7502 14.3792 32.7502 13.8125C32.7502 13.2458 32.5586 12.7708 32.1752 12.3875C31.7919 12.0042 31.3169 11.8125 30.7502 11.8125C30.1836 11.8125 29.7086 12.0042 29.3252 12.3875C28.9419 12.7708 28.7502 13.2458 28.7502 13.8125C28.7502 14.3792 28.9419 14.8542 29.3252 15.2375C29.7086 15.6208 30.1836 15.8125 30.7502 15.8125ZM34.7502 18.8125C33.7836 18.8125 32.8586 19.0042 31.9752 19.3875C31.0919 19.7708 30.4502 20.3958 30.0502 21.2625C29.8836 21.5958 29.9252 21.9042 30.1752 22.1875C30.4252 22.4708 30.7502 22.6125 31.1502 22.6125H38.3502C38.7502 22.6125 39.0752 22.4708 39.3252 22.1875C39.5752 21.9042 39.6169 21.5958 39.4502 21.2625C39.0502 20.3958 38.4086 19.7708 37.5252 19.3875C36.6419 19.0042 35.7169 18.8125 34.7502 18.8125ZM14.7502 44.8125C11.4169 44.8125 8.58358 43.6458 6.25024 41.3125C3.91691 38.9792 2.75024 36.1458 2.75024 32.8125V22.8125C2.75024 21.7125 3.14191 20.7708 3.92524 19.9875C4.70858 19.2042 5.65024 18.8125 6.75024 18.8125H22.7502C23.8502 18.8125 24.7919 19.2042 25.5752 19.9875C26.3586 20.7708 26.7502 21.7125 26.7502 22.8125V32.8125C26.7502 36.1458 25.5836 38.9792 23.2502 41.3125C20.9169 43.6458 18.0836 44.8125 14.7502 44.8125ZM14.7502 40.8125C16.9502 40.8125 18.8336 40.0292 20.4002 38.4625C21.9669 36.8958 22.7502 35.0125 22.7502 32.8125V22.8125H6.75024V32.8125C6.75024 35.0125 7.53358 36.8958 9.10024 38.4625C10.6669 40.0292 12.5502 40.8125 14.7502 40.8125ZM46.7502 8.8125V18.8125C46.7502 22.2125 45.5836 25.0625 43.2502 27.3625C40.9169 29.6625 38.0669 30.8125 34.7002 30.8125C34.1336 30.8125 33.5752 30.7792 33.0252 30.7125C32.4752 30.6458 31.9336 30.5292 31.4002 30.3625C30.8669 30.1958 30.4836 29.8625 30.2502 29.3625C30.0169 28.8625 29.9836 28.3458 30.1502 27.8125C30.3169 27.2792 30.6502 26.8875 31.1502 26.6375C31.6502 26.3875 32.1669 26.3458 32.7002 26.5125C33.0669 26.6125 33.4169 26.6875 33.7502 26.7375C34.0836 26.7875 34.4336 26.8125 34.8002 26.8125C37.0002 26.8125 38.8752 26.0292 40.4252 24.4625C41.9752 22.8958 42.7502 21.0125 42.7502 18.8125V8.8125H26.7502V13.8125C26.7502 14.3792 26.5586 14.8542 26.1752 15.2375C25.7919 15.6208 25.3169 15.8125 24.7502 15.8125C24.1836 15.8125 23.7086 15.6208 23.3252 15.2375C22.9419 14.8542 22.7502 14.3792 22.7502 13.8125V8.8125C22.7502 7.7125 23.1419 6.77083 23.9252 5.9875C24.7086 5.20417 25.6502 4.8125 26.7502 4.8125H42.7502C43.8502 4.8125 44.7919 5.20417 45.5752 5.9875C46.3586 6.77083 46.7502 7.7125 46.7502 8.8125ZM10.7502 29.8125C11.3169 29.8125 11.7919 29.6208 12.1752 29.2375C12.5586 28.8542 12.7502 28.3792 12.7502 27.8125C12.7502 27.2458 12.5586 26.7708 12.1752 26.3875C11.7919 26.0042 11.3169 25.8125 10.7502 25.8125C10.1836 25.8125 9.70858 26.0042 9.32524 26.3875C8.94191 26.7708 8.75024 27.2458 8.75024 27.8125C8.75024 28.3792 8.94191 28.8542 9.32524 29.2375C9.70858 29.6208 10.1836 29.8125 10.7502 29.8125ZM18.7502 29.8125C19.3169 29.8125 19.7919 29.6208 20.1752 29.2375C20.5586 28.8542 20.7502 28.3792 20.7502 27.8125C20.7502 27.2458 20.5586 26.7708 20.1752 26.3875C19.7919 26.0042 19.3169 25.8125 18.7502 25.8125C18.1836 25.8125 17.7086 26.0042 17.3252 26.3875C16.9419 26.7708 16.7502 27.2458 16.7502 27.8125C16.7502 28.3792 16.9419 28.8542 17.3252 29.2375C17.7086 29.6208 18.1836 29.8125 18.7502 29.8125ZM14.7502 36.6125C15.6836 36.6125 16.5669 36.4292 17.4002 36.0625C18.2336 35.6958 18.8836 35.1125 19.3502 34.3125C19.5169 33.9458 19.5002 33.6042 19.3002 33.2875C19.1002 32.9708 18.8169 32.8125 18.4502 32.8125H11.0502C10.6836 32.8125 10.4002 32.9708 10.2002 33.2875C10.0002 33.6042 9.98358 33.9458 10.1502 34.3125C10.6169 35.1125 11.2669 35.6958 12.1002 36.0625C12.9336 36.4292 13.8169 36.6125 14.7502 36.6125Z" fill="#153A03"/>
</g>
</svg>
