<svg width="18" height="18" viewBox="0 0 18 18" fill="none" xmlns="http://www.w3.org/2000/svg">
<mask id="mask0_2631_9927" style="mask-type:alpha" maskUnits="userSpaceOnUse" x="0" y="0" width="18" height="18">
<rect width="18" height="18" fill="#D9D9D9"/>
</mask>
<g mask="url(#mask0_2631_9927)">
<path d="M3 15C2.5875 15 2.23438 14.8531 1.94063 14.5594C1.64688 14.2656 1.5 13.9125 1.5 13.5V4.5C1.5 4.0875 1.64688 3.73438 1.94063 3.44063C2.23438 3.14688 2.5875 3 3 3H6.88125C7.08125 3 7.27187 3.0375 7.45312 3.1125C7.63438 3.1875 7.79375 3.29375 7.93125 3.43125L9 4.5H15C15.4125 4.5 15.7656 4.64688 16.0594 4.94063C16.3531 5.23438 16.5 5.5875 16.5 6V13.5C16.5 13.9125 16.3531 14.2656 16.0594 14.5594C15.7656 14.8531 15.4125 15 15 15H3ZM5.25 12H9.75C9.9625 12 10.1406 11.9281 10.2844 11.7844C10.4281 11.6406 10.5 11.4625 10.5 11.25C10.5 11.0375 10.4281 10.8594 10.2844 10.7156C10.1406 10.5719 9.9625 10.5 9.75 10.5H5.25C5.0375 10.5 4.85938 10.5719 4.71562 10.7156C4.57187 10.8594 4.5 11.0375 4.5 11.25C4.5 11.4625 4.57187 11.6406 4.71562 11.7844C4.85938 11.9281 5.0375 12 5.25 12ZM5.25 9H12.75C12.9625 9 13.1406 8.92812 13.2844 8.78438C13.4281 8.64062 13.5 8.4625 13.5 8.25C13.5 8.0375 13.4281 7.85938 13.2844 7.71562C13.1406 7.57188 12.9625 7.5 12.75 7.5H5.25C5.0375 7.5 4.85938 7.57188 4.71562 7.71562C4.57187 7.85938 4.5 8.0375 4.5 8.25C4.5 8.4625 4.57187 8.64062 4.71562 8.78438C4.85938 8.92812 5.0375 9 5.25 9Z" fill="#3F3F43"/>
</g>
</svg>
