<svg width="24" height="24" viewBox="0 0 24 24" fill="none" xmlns="http://www.w3.org/2000/svg">
<mask id="mask0_2568_8332" style="mask-type:alpha" maskUnits="userSpaceOnUse" x="0" y="0" width="24" height="24">
<rect width="24" height="24" fill="#1B0505"/>
</mask>
<g mask="url(#mask0_2568_8332)">
<path d="M15.175 8.32266C15.6583 8.80599 16.0125 9.35599 16.2375 9.97266C16.4625 10.5893 16.5417 11.2227 16.475 11.8727C16.475 12.1227 16.3833 12.3352 16.2 12.5102C16.0167 12.6852 15.8 12.7727 15.55 12.7727C15.3 12.7727 15.0875 12.6852 14.9125 12.5102C14.7375 12.3352 14.65 12.1227 14.65 11.8727C14.7333 11.4393 14.7083 11.0227 14.575 10.6227C14.4417 10.2227 14.2333 9.88099 13.95 9.59766C13.6667 9.31432 13.325 9.09766 12.925 8.94766C12.525 8.79766 12.1 8.76432 11.65 8.84766C11.4 8.84766 11.1875 8.75599 11.0125 8.57266C10.8375 8.38932 10.75 8.17266 10.75 7.92266C10.75 7.67266 10.8375 7.46016 11.0125 7.28516C11.1875 7.11016 11.4 7.02266 11.65 7.02266C12.2833 6.95599 12.9083 7.03516 13.525 7.26016C14.1417 7.48516 14.6917 7.83932 15.175 8.32266ZM12 5.99766C11.6833 5.99766 11.375 6.01016 11.075 6.03516C10.775 6.06016 10.475 6.10599 10.175 6.17266C9.89167 6.22266 9.6375 6.18099 9.4125 6.04766C9.1875 5.91432 9.03333 5.71432 8.95 5.44766C8.86667 5.18099 8.89583 4.92266 9.0375 4.67266C9.17917 4.42266 9.38333 4.27266 9.65 4.22266C10.0333 4.13932 10.4208 4.08099 10.8125 4.04766C11.2042 4.01432 11.6 3.99766 12 3.99766C14.2833 3.99766 16.3708 4.59766 18.2625 5.79766C20.1542 6.99766 21.6 8.61432 22.6 10.6477C22.6667 10.781 22.7167 10.9185 22.75 11.0602C22.7833 11.2018 22.8 11.3477 22.8 11.4977C22.8 11.6477 22.7875 11.7935 22.7625 11.9352C22.7375 12.0768 22.6917 12.2143 22.625 12.3477C22.325 13.0143 21.9542 13.6393 21.5125 14.2227C21.0708 14.806 20.5833 15.3393 20.05 15.8227C19.85 16.006 19.6167 16.081 19.35 16.0477C19.0833 16.0143 18.8667 15.881 18.7 15.6477C18.5333 15.4143 18.4625 15.1602 18.4875 14.8852C18.5125 14.6102 18.625 14.381 18.825 14.1977C19.225 13.8143 19.5917 13.3977 19.925 12.9477C20.2583 12.4977 20.55 12.0143 20.8 11.4977C19.9667 9.81432 18.7625 8.47682 17.1875 7.48516C15.6125 6.49349 13.8833 5.99766 12 5.99766ZM12 18.9977C9.76667 18.9977 7.725 18.3935 5.875 17.1852C4.025 15.9768 2.56667 14.3893 1.5 12.4227C1.41667 12.2893 1.35417 12.1435 1.3125 11.9852C1.27083 11.8268 1.25 11.6643 1.25 11.4977C1.25 11.331 1.26667 11.1727 1.3 11.0227C1.33333 10.8727 1.39167 10.7227 1.475 10.5727C1.80833 9.90599 2.19583 9.26849 2.6375 8.66016C3.07917 8.05182 3.58333 7.49766 4.15 6.99766L2.075 4.89766C1.89167 4.69766 1.80417 4.46016 1.8125 4.18516C1.82083 3.91016 1.91667 3.68099 2.1 3.49766C2.28333 3.31432 2.51667 3.22266 2.8 3.22266C3.08333 3.22266 3.31667 3.31432 3.5 3.49766L20.5 20.4977C20.6833 20.681 20.7792 20.9102 20.7875 21.1852C20.7958 21.4602 20.7 21.6977 20.5 21.8977C20.3167 22.081 20.0833 22.1727 19.8 22.1727C19.5167 22.1727 19.2833 22.081 19.1 21.8977L15.6 18.4477C15.0167 18.631 14.425 18.7685 13.825 18.8602C13.225 18.9518 12.6167 18.9977 12 18.9977ZM5.55 8.39766C5.06667 8.83099 4.625 9.30599 4.225 9.82266C3.825 10.3393 3.48333 10.8977 3.2 11.4977C4.03333 13.181 5.2375 14.5185 6.8125 15.5102C8.3875 16.5018 10.1167 16.9977 12 16.9977C12.3333 16.9977 12.6583 16.9768 12.975 16.9352C13.2917 16.8935 13.6167 16.8477 13.95 16.7977L13.05 15.8477C12.8667 15.8977 12.6917 15.9352 12.525 15.9602C12.3583 15.9852 12.1833 15.9977 12 15.9977C10.75 15.9977 9.6875 15.5602 8.8125 14.6852C7.9375 13.8102 7.5 12.7477 7.5 11.4977C7.5 11.3143 7.5125 11.1393 7.5375 10.9727C7.5625 10.806 7.6 10.631 7.65 10.4477L5.55 8.39766Z" fill="#1B0505"/>
</g>
</svg>
