<svg width="32" height="32" viewBox="0 0 32 32" fill="none" xmlns="http://www.w3.org/2000/svg">
<mask id="mask0_1_3593" style="mask-type:alpha" maskUnits="userSpaceOnUse" x="0" y="0" width="32" height="32">
<rect width="32" height="32" fill="#D9D9D9"/>
</mask>
<g mask="url(#mask0_1_3593)">
<path d="M8.23329 19.8669L7.16662 22.8336C7.07774 23.078 6.93329 23.2669 6.73329 23.4003C6.53329 23.5336 6.31107 23.6003 6.06662 23.6003C5.6444 23.6003 5.31662 23.428 5.08329 23.0836C4.84996 22.7392 4.81107 22.378 4.96662 22.0003L9.56662 9.73359C9.65551 9.48915 9.80551 9.2947 10.0166 9.15026C10.2277 9.00582 10.4555 8.93359 10.7 8.93359H11.6333C11.8777 8.93359 12.1111 9.00582 12.3333 9.15026C12.5555 9.2947 12.7111 9.48915 12.8 9.73359L17.4 22.0336C17.5555 22.4114 17.5111 22.7669 17.2666 23.1003C17.0222 23.4336 16.7 23.6003 16.3 23.6003C16.0555 23.6003 15.8333 23.528 15.6333 23.3836C15.4333 23.2392 15.2888 23.0447 15.2 22.8003L14.1666 19.8669H8.23329ZM8.99996 17.7336H13.3666L11.2333 11.6669H11.1L8.99996 17.7336ZM22.1666 23.9336C21.0333 23.9336 20.1333 23.628 19.4666 23.0169C18.8 22.4058 18.4666 21.6003 18.4666 20.6003C18.4666 19.6225 18.85 18.8169 19.6166 18.1836C20.3833 17.5503 21.3666 17.2336 22.5666 17.2336C23.0777 17.2336 23.5777 17.278 24.0666 17.3669C24.5555 17.4558 24.9777 17.578 25.3333 17.7336V17.3336C25.3333 16.6891 25.1055 16.1669 24.65 15.7669C24.1944 15.3669 23.5888 15.1669 22.8333 15.1669C22.5 15.1669 22.1722 15.2169 21.85 15.3169C21.5277 15.4169 21.2333 15.5669 20.9666 15.7669C20.6777 15.9891 20.4055 16.0669 20.15 16.0003C19.8944 15.9336 19.6888 15.8114 19.5333 15.6336C19.3777 15.4558 19.3 15.2447 19.3 15.0003C19.3 14.7558 19.4222 14.5447 19.6666 14.3669C20.1111 14.0114 20.6111 13.7503 21.1666 13.5836C21.7222 13.4169 22.2888 13.3336 22.8666 13.3336C24.4 13.3336 25.5444 13.6947 26.3 14.4169C27.0555 15.1391 27.4333 16.2225 27.4333 17.6669V22.5669C27.4333 22.8558 27.3277 23.1003 27.1166 23.3003C26.9055 23.5003 26.6555 23.6003 26.3666 23.6003C26.0777 23.6003 25.8333 23.4947 25.6333 23.2836C25.4333 23.0725 25.3333 22.8225 25.3333 22.5336V22.3669H25.2C24.8888 22.878 24.4666 23.2669 23.9333 23.5336C23.4 23.8003 22.8111 23.9336 22.1666 23.9336ZM22.5666 22.1336C23.3444 22.1336 24.0055 21.8669 24.55 21.3336C25.0944 20.8003 25.3666 20.178 25.3666 19.4669C25.0555 19.2891 24.6833 19.1503 24.25 19.0503C23.8166 18.9503 23.3888 18.9003 22.9666 18.9003C22.2555 18.9003 21.7 19.0558 21.3 19.3669C20.9 19.678 20.7 20.0891 20.7 20.6003C20.7 21.0447 20.8777 21.4114 21.2333 21.7003C21.5888 21.9891 22.0333 22.1336 22.5666 22.1336Z" fill="#3F2525"/>
</g>
</svg>
