<svg width="48" height="48" viewBox="0 0 48 48" fill="none" xmlns="http://www.w3.org/2000/svg">
<rect width="48" height="48" rx="24" fill="#3F2525"/>
<mask id="mask0_1_3592" style="mask-type:alpha" maskUnits="userSpaceOnUse" x="8" y="8" width="32" height="32">
<rect x="8" y="8" width="32" height="32" fill="#D9D9D9"/>
</mask>
<g mask="url(#mask0_1_3592)">
<path d="M16.2333 27.8669L15.1666 30.8336C15.0777 31.078 14.9333 31.2669 14.7333 31.4003C14.5333 31.5336 14.3111 31.6003 14.0666 31.6003C13.6444 31.6003 13.3166 31.428 13.0833 31.0836C12.85 30.7392 12.8111 30.378 12.9666 30.0003L17.5666 17.7336C17.6555 17.4891 17.8055 17.2947 18.0166 17.1503C18.2277 17.0058 18.4555 16.9336 18.7 16.9336H19.6333C19.8777 16.9336 20.1111 17.0058 20.3333 17.1503C20.5555 17.2947 20.7111 17.4891 20.8 17.7336L25.4 30.0336C25.5555 30.4114 25.5111 30.7669 25.2666 31.1003C25.0222 31.4336 24.7 31.6003 24.3 31.6003C24.0555 31.6003 23.8333 31.528 23.6333 31.3836C23.4333 31.2392 23.2888 31.0447 23.2 30.8003L22.1666 27.8669H16.2333ZM17 25.7336H21.3666L19.2333 19.6669H19.1L17 25.7336ZM30.1666 31.9336C29.0333 31.9336 28.1333 31.628 27.4666 31.0169C26.8 30.4058 26.4666 29.6003 26.4666 28.6003C26.4666 27.6225 26.85 26.8169 27.6166 26.1836C28.3833 25.5503 29.3666 25.2336 30.5666 25.2336C31.0777 25.2336 31.5777 25.278 32.0666 25.3669C32.5555 25.4558 32.9777 25.578 33.3333 25.7336V25.3336C33.3333 24.6891 33.1055 24.1669 32.65 23.7669C32.1944 23.3669 31.5888 23.1669 30.8333 23.1669C30.5 23.1669 30.1722 23.2169 29.85 23.3169C29.5277 23.4169 29.2333 23.5669 28.9666 23.7669C28.6777 23.9891 28.4055 24.0669 28.15 24.0003C27.8944 23.9336 27.6888 23.8114 27.5333 23.6336C27.3777 23.4558 27.3 23.2447 27.3 23.0003C27.3 22.7558 27.4222 22.5447 27.6666 22.3669C28.1111 22.0114 28.6111 21.7503 29.1666 21.5836C29.7222 21.4169 30.2888 21.3336 30.8666 21.3336C32.4 21.3336 33.5444 21.6947 34.3 22.4169C35.0555 23.1391 35.4333 24.2225 35.4333 25.6669V30.5669C35.4333 30.8558 35.3277 31.1003 35.1166 31.3003C34.9055 31.5003 34.6555 31.6003 34.3666 31.6003C34.0777 31.6003 33.8333 31.4947 33.6333 31.2836C33.4333 31.0725 33.3333 30.8225 33.3333 30.5336V30.3669H33.2C32.8888 30.878 32.4666 31.2669 31.9333 31.5336C31.4 31.8003 30.8111 31.9336 30.1666 31.9336ZM30.5666 30.1336C31.3444 30.1336 32.0055 29.8669 32.55 29.3336C33.0944 28.8003 33.3666 28.178 33.3666 27.4669C33.0555 27.2891 32.6833 27.1503 32.25 27.0503C31.8166 26.9503 31.3888 26.9003 30.9666 26.9003C30.2555 26.9003 29.7 27.0558 29.3 27.3669C28.9 27.678 28.7 28.0891 28.7 28.6003C28.7 29.0447 28.8777 29.4114 29.2333 29.7003C29.5888 29.9891 30.0333 30.1336 30.5666 30.1336Z" fill="#F3DEDE"/>
</g>
</svg>
