<svg width="32" height="32" viewBox="0 0 32 32" fill="none" xmlns="http://www.w3.org/2000/svg">
<mask id="mask0_29_4562" style="mask-type:alpha" maskUnits="userSpaceOnUse" x="0" y="0" width="32" height="32">
<rect width="32" height="32" fill="#D9D9D9"/>
</mask>
<g mask="url(#mask0_29_4562)">
<path d="M11.7333 25.3327C11 25.3327 10.3722 25.0716 9.84998 24.5493C9.32776 24.0271 9.06665 23.3993 9.06665 22.666V9.33268C9.06665 8.59935 9.32776 7.97157 9.84998 7.44935C10.3722 6.92713 11 6.66602 11.7333 6.66602H16.4333C17.8778 6.66602 19.2111 7.11046 20.4333 7.99935C21.6555 8.88824 22.2667 10.1216 22.2667 11.6993C22.2667 12.8327 22.0111 13.7049 21.5 14.316C20.9889 14.9271 20.5111 15.366 20.0667 15.6327C20.6222 15.8771 21.2389 16.3327 21.9167 16.9993C22.5944 17.666 22.9333 18.666 22.9333 19.9993C22.9333 21.9771 22.2111 23.3605 20.7667 24.1493C19.3222 24.9382 17.9667 25.3327 16.7 25.3327H11.7333ZM13.1 21.5993H16.5667C17.6333 21.5993 18.2833 21.3271 18.5167 20.7827C18.75 20.2382 18.8667 19.8438 18.8667 19.5993C18.8667 19.3549 18.75 18.9605 18.5167 18.416C18.2833 17.8716 17.6 17.5993 16.4667 17.5993H13.1V21.5993ZM13.1 13.9993H16.2C16.9333 13.9993 17.4667 13.8105 17.8 13.4327C18.1333 13.0549 18.3 12.6327 18.3 12.166C18.3 11.6327 18.1111 11.1993 17.7333 10.866C17.3555 10.5327 16.8667 10.366 16.2667 10.366H13.1V13.9993Z" fill="#3F2525"/>
</g>
</svg>
