<svg width="48" height="48" viewBox="0 0 48 48" fill="none" xmlns="http://www.w3.org/2000/svg">
<rect width="48" height="48" rx="24" fill="#3F2525"/>
<mask id="mask0_1_973" style="mask-type:alpha" maskUnits="userSpaceOnUse" x="8" y="8" width="32" height="32">
<rect x="8" y="8" width="32" height="32" fill="#D9D9D9"/>
</mask>
<g mask="url(#mask0_1_973)">
<path d="M19.7336 33.3332C19.0002 33.3332 18.3725 33.0721 17.8502 32.5498C17.328 32.0276 17.0669 31.3998 17.0669 30.6665V17.3332C17.0669 16.5998 17.328 15.9721 17.8502 15.4498C18.3725 14.9276 19.0002 14.6665 19.7336 14.6665H24.4336C25.878 14.6665 27.2113 15.1109 28.4336 15.9998C29.6558 16.8887 30.2669 18.1221 30.2669 19.6998C30.2669 20.8332 30.0113 21.7054 29.5002 22.3165C28.9891 22.9276 28.5113 23.3665 28.0669 23.6332C28.6225 23.8776 29.2391 24.3332 29.9169 24.9998C30.5947 25.6665 30.9336 26.6665 30.9336 27.9998C30.9336 29.9776 30.2113 31.3609 28.7669 32.1498C27.3225 32.9387 25.9669 33.3332 24.7002 33.3332H19.7336ZM21.1002 29.5998H24.5669C25.6336 29.5998 26.2836 29.3276 26.5169 28.7832C26.7502 28.2387 26.8669 27.8443 26.8669 27.5998C26.8669 27.3554 26.7502 26.9609 26.5169 26.4165C26.2836 25.8721 25.6002 25.5998 24.4669 25.5998H21.1002V29.5998ZM21.1002 21.9998H24.2002C24.9336 21.9998 25.4669 21.8109 25.8002 21.4332C26.1336 21.0554 26.3002 20.6332 26.3002 20.1665C26.3002 19.6332 26.1113 19.1998 25.7336 18.8665C25.3558 18.5332 24.8669 18.3665 24.2669 18.3665H21.1002V21.9998Z" fill="#F3DEDE"/>
</g>
</svg>
