<svg width="32" height="32" viewBox="0 0 32 32" fill="none" xmlns="http://www.w3.org/2000/svg">
<mask id="mask0_1_3585" style="mask-type:alpha" maskUnits="userSpaceOnUse" x="0" y="0" width="32" height="32">
<rect width="32" height="32" fill="#D9D9D9"/>
</mask>
<g mask="url(#mask0_1_3585)">
<path d="M8.00008 22.6673C7.6223 22.6673 7.30564 22.5395 7.05008 22.284C6.79453 22.0284 6.66675 21.7118 6.66675 21.334V10.6673C6.66675 10.2895 6.79453 9.97287 7.05008 9.71732C7.30564 9.46176 7.6223 9.33398 8.00008 9.33398C8.37786 9.33398 8.69453 9.46176 8.95008 9.71732C9.20564 9.97287 9.33341 10.2895 9.33341 10.6673V14.6673H14.6667V10.6673C14.6667 10.2895 14.7945 9.97287 15.0501 9.71732C15.3056 9.46176 15.6223 9.33398 16.0001 9.33398C16.3779 9.33398 16.6945 9.46176 16.9501 9.71732C17.2056 9.97287 17.3334 10.2895 17.3334 10.6673V21.334C17.3334 21.7118 17.2056 22.0284 16.9501 22.284C16.6945 22.5395 16.3779 22.6673 16.0001 22.6673C15.6223 22.6673 15.3056 22.5395 15.0501 22.284C14.7945 22.0284 14.6667 21.7118 14.6667 21.334V17.334H9.33341V21.334C9.33341 21.7118 9.20564 22.0284 8.95008 22.284C8.69453 22.5395 8.37786 22.6673 8.00008 22.6673ZM24.0001 22.6673C23.6223 22.6673 23.3056 22.5395 23.0501 22.284C22.7945 22.0284 22.6667 21.7118 22.6667 21.334V12.0007H21.3334C20.9556 12.0007 20.639 11.8729 20.3834 11.6173C20.1279 11.3618 20.0001 11.0451 20.0001 10.6673C20.0001 10.2895 20.1279 9.97287 20.3834 9.71732C20.639 9.46176 20.9556 9.33398 21.3334 9.33398H24.0001C24.3779 9.33398 24.6945 9.46176 24.9501 9.71732C25.2056 9.97287 25.3334 10.2895 25.3334 10.6673V21.334C25.3334 21.7118 25.2056 22.0284 24.9501 22.284C24.6945 22.5395 24.3779 22.6673 24.0001 22.6673Z" fill="#3F2525"/>
</g>
</svg>
