<svg width="48" height="48" viewBox="0 0 48 48" fill="none" xmlns="http://www.w3.org/2000/svg">
<rect width="48" height="48" rx="24" fill="#3F2525"/>
<mask id="mask0_1_3584" style="mask-type:alpha" maskUnits="userSpaceOnUse" x="8" y="8" width="32" height="32">
<rect x="8" y="8" width="32" height="32" fill="#D9D9D9"/>
</mask>
<g mask="url(#mask0_1_3584)">
<path d="M16.0001 30.6673C15.6223 30.6673 15.3056 30.5395 15.0501 30.284C14.7945 30.0284 14.6667 29.7118 14.6667 29.334V18.6673C14.6667 18.2895 14.7945 17.9729 15.0501 17.7173C15.3056 17.4618 15.6223 17.334 16.0001 17.334C16.3779 17.334 16.6945 17.4618 16.9501 17.7173C17.2056 17.9729 17.3334 18.2895 17.3334 18.6673V22.6673H22.6667V18.6673C22.6667 18.2895 22.7945 17.9729 23.0501 17.7173C23.3056 17.4618 23.6223 17.334 24.0001 17.334C24.3779 17.334 24.6945 17.4618 24.9501 17.7173C25.2056 17.9729 25.3334 18.2895 25.3334 18.6673V29.334C25.3334 29.7118 25.2056 30.0284 24.9501 30.284C24.6945 30.5395 24.3779 30.6673 24.0001 30.6673C23.6223 30.6673 23.3056 30.5395 23.0501 30.284C22.7945 30.0284 22.6667 29.7118 22.6667 29.334V25.334H17.3334V29.334C17.3334 29.7118 17.2056 30.0284 16.9501 30.284C16.6945 30.5395 16.3779 30.6673 16.0001 30.6673ZM32.0001 30.6673C31.6223 30.6673 31.3056 30.5395 31.0501 30.284C30.7945 30.0284 30.6667 29.7118 30.6667 29.334V20.0007H29.3334C28.9556 20.0007 28.639 19.8729 28.3834 19.6173C28.1279 19.3618 28.0001 19.0451 28.0001 18.6673C28.0001 18.2895 28.1279 17.9729 28.3834 17.7173C28.639 17.4618 28.9556 17.334 29.3334 17.334H32.0001C32.3779 17.334 32.6945 17.4618 32.9501 17.7173C33.2056 17.9729 33.3334 18.2895 33.3334 18.6673V29.334C33.3334 29.7118 33.2056 30.0284 32.9501 30.284C32.6945 30.5395 32.3779 30.6673 32.0001 30.6673Z" fill="#F3DEDE"/>
</g>
</svg>
