<svg width="32" height="32" viewBox="0 0 32 32" fill="none" xmlns="http://www.w3.org/2000/svg">
<mask id="mask0_1_3589" style="mask-type:alpha" maskUnits="userSpaceOnUse" x="0" y="0" width="32" height="32">
<rect width="32" height="32" fill="#D9D9D9"/>
</mask>
<g mask="url(#mask0_1_3589)">
<path d="M5.33333 22.6673C4.95556 22.6673 4.63889 22.5395 4.38333 22.284C4.12778 22.0284 4 21.7118 4 21.334V10.6673C4 10.2895 4.12778 9.97287 4.38333 9.71732C4.63889 9.46176 4.95556 9.33398 5.33333 9.33398C5.71111 9.33398 6.02778 9.46176 6.28333 9.71732C6.53889 9.97287 6.66667 10.2895 6.66667 10.6673V14.6673H12V10.6673C12 10.2895 12.1278 9.97287 12.3833 9.71732C12.6389 9.46176 12.9556 9.33398 13.3333 9.33398C13.7111 9.33398 14.0278 9.46176 14.2833 9.71732C14.5389 9.97287 14.6667 10.2895 14.6667 10.6673V21.334C14.6667 21.7118 14.5389 22.0284 14.2833 22.284C14.0278 22.5395 13.7111 22.6673 13.3333 22.6673C12.9556 22.6673 12.6389 22.5395 12.3833 22.284C12.1278 22.0284 12 21.7118 12 21.334V17.334H6.66667V21.334C6.66667 21.7118 6.53889 22.0284 6.28333 22.284C6.02778 22.5395 5.71111 22.6673 5.33333 22.6673ZM18.6667 22.6673C18.2889 22.6673 17.9722 22.5395 17.7167 22.284C17.4611 22.0284 17.3333 21.7118 17.3333 21.334V17.334C17.3333 16.6007 17.5944 15.9729 18.1167 15.4507C18.6389 14.9284 19.2667 14.6673 20 14.6673H25.3333V12.0007H18.6667C18.2889 12.0007 17.9722 11.8729 17.7167 11.6173C17.4611 11.3618 17.3333 11.0451 17.3333 10.6673C17.3333 10.2895 17.4611 9.97287 17.7167 9.71732C17.9722 9.46176 18.2889 9.33398 18.6667 9.33398H25.3333C26.0667 9.33398 26.6944 9.5951 27.2167 10.1173C27.7389 10.6395 28 11.2673 28 12.0007V14.6673C28 15.4007 27.7389 16.0284 27.2167 16.5507C26.6944 17.0729 26.0667 17.334 25.3333 17.334H20V20.0007H26.6667C27.0444 20.0007 27.3611 20.1284 27.6167 20.384C27.8722 20.6395 28 20.9562 28 21.334C28 21.7118 27.8722 22.0284 27.6167 22.284C27.3611 22.5395 27.0444 22.6673 26.6667 22.6673H18.6667Z" fill="#3F2525"/>
</g>
</svg>
