<svg width="48" height="48" viewBox="0 0 48 48" fill="none" xmlns="http://www.w3.org/2000/svg">
<rect width="48" height="48" rx="24" fill="#3F2525"/>
<mask id="mask0_1_3588" style="mask-type:alpha" maskUnits="userSpaceOnUse" x="8" y="8" width="32" height="32">
<rect x="8" y="8" width="32" height="32" fill="#D9D9D9"/>
</mask>
<g mask="url(#mask0_1_3588)">
<path d="M13.3333 30.6673C12.9556 30.6673 12.6389 30.5395 12.3833 30.284C12.1278 30.0284 12 29.7118 12 29.334V18.6673C12 18.2895 12.1278 17.9729 12.3833 17.7173C12.6389 17.4618 12.9556 17.334 13.3333 17.334C13.7111 17.334 14.0278 17.4618 14.2833 17.7173C14.5389 17.9729 14.6667 18.2895 14.6667 18.6673V22.6673H20V18.6673C20 18.2895 20.1278 17.9729 20.3833 17.7173C20.6389 17.4618 20.9556 17.334 21.3333 17.334C21.7111 17.334 22.0278 17.4618 22.2833 17.7173C22.5389 17.9729 22.6667 18.2895 22.6667 18.6673V29.334C22.6667 29.7118 22.5389 30.0284 22.2833 30.284C22.0278 30.5395 21.7111 30.6673 21.3333 30.6673C20.9556 30.6673 20.6389 30.5395 20.3833 30.284C20.1278 30.0284 20 29.7118 20 29.334V25.334H14.6667V29.334C14.6667 29.7118 14.5389 30.0284 14.2833 30.284C14.0278 30.5395 13.7111 30.6673 13.3333 30.6673ZM26.6667 30.6673C26.2889 30.6673 25.9722 30.5395 25.7167 30.284C25.4611 30.0284 25.3333 29.7118 25.3333 29.334V25.334C25.3333 24.6007 25.5944 23.9729 26.1167 23.4507C26.6389 22.9284 27.2667 22.6673 28 22.6673H33.3333V20.0007H26.6667C26.2889 20.0007 25.9722 19.8729 25.7167 19.6173C25.4611 19.3618 25.3333 19.0451 25.3333 18.6673C25.3333 18.2895 25.4611 17.9729 25.7167 17.7173C25.9722 17.4618 26.2889 17.334 26.6667 17.334H33.3333C34.0667 17.334 34.6944 17.5951 35.2167 18.1173C35.7389 18.6395 36 19.2673 36 20.0007V22.6673C36 23.4007 35.7389 24.0284 35.2167 24.5507C34.6944 25.0729 34.0667 25.334 33.3333 25.334H28V28.0007H34.6667C35.0444 28.0007 35.3611 28.1284 35.6167 28.384C35.8722 28.6395 36 28.9562 36 29.334C36 29.7118 35.8722 30.0284 35.6167 30.284C35.3611 30.5395 35.0444 30.6673 34.6667 30.6673H26.6667Z" fill="#F3DEDE"/>
</g>
</svg>
