<svg width="48" height="48" viewBox="0 0 48 48" fill="none" xmlns="http://www.w3.org/2000/svg">
<rect width="48" height="48" rx="24" fill="#3F2525"/>
<mask id="mask0_1_977" style="mask-type:alpha" maskUnits="userSpaceOnUse" x="8" y="8" width="32" height="32">
<rect x="8" y="8" width="32" height="32" fill="#D9D9D9"/>
</mask>
<g mask="url(#mask0_1_977)">
<path d="M16.3332 33.3332C15.8665 33.3332 15.4721 33.1721 15.1498 32.8498C14.8276 32.5276 14.6665 32.1332 14.6665 31.6665C14.6665 31.1998 14.8276 30.8054 15.1498 30.4832C15.4721 30.1609 15.8665 29.9998 16.3332 29.9998H19.9998L23.9998 17.9998H20.3332C19.8665 17.9998 19.4721 17.8387 19.1498 17.5165C18.8276 17.1943 18.6665 16.7998 18.6665 16.3332C18.6665 15.8665 18.8276 15.4721 19.1498 15.1498C19.4721 14.8276 19.8665 14.6665 20.3332 14.6665H30.3332C30.7998 14.6665 31.1943 14.8276 31.5165 15.1498C31.8387 15.4721 31.9998 15.8665 31.9998 16.3332C31.9998 16.7998 31.8387 17.1943 31.5165 17.5165C31.1943 17.8387 30.7998 17.9998 30.3332 17.9998H27.3332L23.3332 29.9998H26.3332C26.7998 29.9998 27.1943 30.1609 27.5165 30.4832C27.8387 30.8054 27.9998 31.1998 27.9998 31.6665C27.9998 32.1332 27.8387 32.5276 27.5165 32.8498C27.1943 33.1721 26.7998 33.3332 26.3332 33.3332H16.3332Z" fill="#F3DEDE"/>
</g>
</svg>
