<svg width="32" height="32" viewBox="0 0 32 32" fill="none" xmlns="http://www.w3.org/2000/svg">
<mask id="mask0_29_3834" style="mask-type:alpha" maskUnits="userSpaceOnUse" x="0" y="0" width="32" height="32">
<rect width="32" height="32" fill="#D9D9D9"/>
</mask>
<g mask="url(#mask0_29_3834)">
<path d="M8.33341 25.3327C7.86675 25.3327 7.4723 25.1716 7.15008 24.8493C6.82786 24.5271 6.66675 24.1327 6.66675 23.666C6.66675 23.1993 6.82786 22.8049 7.15008 22.4827C7.4723 22.1605 7.86675 21.9993 8.33341 21.9993H12.0001L16.0001 9.99935H12.3334C11.8667 9.99935 11.4723 9.83824 11.1501 9.51602C10.8279 9.19379 10.6667 8.79935 10.6667 8.33268C10.6667 7.86602 10.8279 7.47157 11.1501 7.14935C11.4723 6.82713 11.8667 6.66602 12.3334 6.66602H22.3334C22.8001 6.66602 23.1945 6.82713 23.5167 7.14935C23.839 7.47157 24.0001 7.86602 24.0001 8.33268C24.0001 8.79935 23.839 9.19379 23.5167 9.51602C23.1945 9.83824 22.8001 9.99935 22.3334 9.99935H19.3334L15.3334 21.9993H18.3334C18.8001 21.9993 19.1945 22.1605 19.5167 22.4827C19.839 22.8049 20.0001 23.1993 20.0001 23.666C20.0001 24.1327 19.839 24.5271 19.5167 24.8493C19.1945 25.1716 18.8001 25.3327 18.3334 25.3327H8.33341Z" fill="#3F2525"/>
</g>
</svg>
