<svg width="32" height="32" viewBox="0 0 32 32" fill="none" xmlns="http://www.w3.org/2000/svg">
<mask id="mask0_29_3859" style="mask-type:alpha" maskUnits="userSpaceOnUse" x="0" y="0" width="32" height="32">
<rect width="32" height="32" fill="#D9D9D9"/>
</mask>
<g mask="url(#mask0_29_3859)">
<path d="M22.6667 22.6673H19.9667C19.589 22.6673 19.2779 22.5395 19.0334 22.284C18.789 22.0284 18.6667 21.7118 18.6667 21.334C18.6667 20.9562 18.7945 20.6395 19.0501 20.384C19.3056 20.1284 19.6223 20.0007 20.0001 20.0007H22.6667V17.334C22.6667 16.9562 22.7945 16.6395 23.0501 16.384C23.3056 16.1284 23.6223 16.0007 24.0001 16.0007C24.3779 16.0007 24.6945 16.1284 24.9501 16.384C25.2056 16.6395 25.3334 16.9562 25.3334 17.334V20.0007H28.0001C28.3779 20.0007 28.6945 20.1284 28.9501 20.384C29.2056 20.6395 29.3334 20.9562 29.3334 21.334C29.3334 21.7118 29.2056 22.0284 28.9501 22.284C28.6945 22.5395 28.3779 22.6673 28.0001 22.6673H25.3334V25.334C25.3334 25.7118 25.2056 26.0284 24.9501 26.284C24.6945 26.5395 24.3779 26.6673 24.0001 26.6673C23.6223 26.6673 23.3056 26.5395 23.0501 26.284C22.7945 26.0284 22.6667 25.7118 22.6667 25.334V22.6673ZM13.3334 22.6673H9.33341C7.48897 22.6673 5.91675 22.0173 4.61675 20.7173C3.31675 19.4173 2.66675 17.8451 2.66675 16.0007C2.66675 14.1562 3.31675 12.584 4.61675 11.284C5.91675 9.98398 7.48897 9.33398 9.33341 9.33398H13.3334C13.7112 9.33398 14.0279 9.46176 14.2834 9.71732C14.539 9.97287 14.6667 10.2895 14.6667 10.6673C14.6667 11.0451 14.539 11.3618 14.2834 11.6173C14.0279 11.8729 13.7112 12.0007 13.3334 12.0007H9.33341C8.2223 12.0007 7.27786 12.3895 6.50008 13.1673C5.7223 13.9451 5.33341 14.8895 5.33341 16.0007C5.33341 17.1118 5.7223 18.0562 6.50008 18.834C7.27786 19.6118 8.2223 20.0007 9.33341 20.0007H13.3334C13.7112 20.0007 14.0279 20.1284 14.2834 20.384C14.539 20.6395 14.6667 20.9562 14.6667 21.334C14.6667 21.7118 14.539 22.0284 14.2834 22.284C14.0279 22.5395 13.7112 22.6673 13.3334 22.6673ZM12.0001 17.334C11.6223 17.334 11.3056 17.2062 11.0501 16.9507C10.7945 16.6951 10.6667 16.3784 10.6667 16.0007C10.6667 15.6229 10.7945 15.3062 11.0501 15.0507C11.3056 14.7951 11.6223 14.6673 12.0001 14.6673H20.0001C20.3779 14.6673 20.6945 14.7951 20.9501 15.0507C21.2056 15.3062 21.3334 15.6229 21.3334 16.0007C21.3334 16.3784 21.2056 16.6951 20.9501 16.9507C20.6945 17.2062 20.3779 17.334 20.0001 17.334H12.0001ZM29.3334 16.0007H26.6667C26.6667 14.8895 26.2779 13.9451 25.5001 13.1673C24.7223 12.3895 23.7779 12.0007 22.6667 12.0007H18.6334C18.2556 12.0007 17.9445 11.8729 17.7001 11.6173C17.4556 11.3618 17.3334 11.0451 17.3334 10.6673C17.3334 10.2895 17.4612 9.97287 17.7167 9.71732C17.9723 9.46176 18.289 9.33398 18.6667 9.33398H22.6667C24.5112 9.33398 26.0834 9.98398 27.3834 11.284C28.6834 12.584 29.3334 14.1562 29.3334 16.0007Z" fill="#3F2525"/>
</g>
</svg>
