<svg width="48" height="48" viewBox="0 0 48 48" fill="none" xmlns="http://www.w3.org/2000/svg">
<rect width="48" height="48" rx="24" fill="#3F2525"/>
<mask id="mask0_1_989" style="mask-type:alpha" maskUnits="userSpaceOnUse" x="8" y="8" width="32" height="32">
<rect x="8" y="8" width="32" height="32" fill="#D9D9D9"/>
</mask>
<g mask="url(#mask0_1_989)">
<path d="M30.6665 30.6668H27.9665C27.5887 30.6668 27.2776 30.5391 27.0332 30.2835C26.7887 30.0279 26.6665 29.7113 26.6665 29.3335C26.6665 28.9557 26.7943 28.6391 27.0498 28.3835C27.3054 28.1279 27.6221 28.0002 27.9998 28.0002H30.6665V25.3335C30.6665 24.9557 30.7943 24.6391 31.0498 24.3835C31.3054 24.1279 31.6221 24.0002 31.9998 24.0002C32.3776 24.0002 32.6943 24.1279 32.9498 24.3835C33.2054 24.6391 33.3332 24.9557 33.3332 25.3335V28.0002H35.9998C36.3776 28.0002 36.6943 28.1279 36.9498 28.3835C37.2054 28.6391 37.3332 28.9557 37.3332 29.3335C37.3332 29.7113 37.2054 30.0279 36.9498 30.2835C36.6943 30.5391 36.3776 30.6668 35.9998 30.6668H33.3332V33.3335C33.3332 33.7113 33.2054 34.0279 32.9498 34.2835C32.6943 34.5391 32.3776 34.6668 31.9998 34.6668C31.6221 34.6668 31.3054 34.5391 31.0498 34.2835C30.7943 34.0279 30.6665 33.7113 30.6665 33.3335V30.6668ZM21.3332 30.6668H17.3332C15.4887 30.6668 13.9165 30.0168 12.6165 28.7168C11.3165 27.4168 10.6665 25.8446 10.6665 24.0002C10.6665 22.1557 11.3165 20.5835 12.6165 19.2835C13.9165 17.9835 15.4887 17.3335 17.3332 17.3335H21.3332C21.7109 17.3335 22.0276 17.4613 22.2832 17.7168C22.5387 17.9724 22.6665 18.2891 22.6665 18.6668C22.6665 19.0446 22.5387 19.3613 22.2832 19.6168C22.0276 19.8724 21.7109 20.0002 21.3332 20.0002H17.3332C16.2221 20.0002 15.2776 20.3891 14.4998 21.1668C13.7221 21.9446 13.3332 22.8891 13.3332 24.0002C13.3332 25.1113 13.7221 26.0557 14.4998 26.8335C15.2776 27.6113 16.2221 28.0002 17.3332 28.0002H21.3332C21.7109 28.0002 22.0276 28.1279 22.2832 28.3835C22.5387 28.6391 22.6665 28.9557 22.6665 29.3335C22.6665 29.7113 22.5387 30.0279 22.2832 30.2835C22.0276 30.5391 21.7109 30.6668 21.3332 30.6668ZM19.9998 25.3335C19.6221 25.3335 19.3054 25.2057 19.0498 24.9502C18.7943 24.6946 18.6665 24.3779 18.6665 24.0002C18.6665 23.6224 18.7943 23.3057 19.0498 23.0502C19.3054 22.7946 19.6221 22.6668 19.9998 22.6668H27.9998C28.3776 22.6668 28.6943 22.7946 28.9498 23.0502C29.2054 23.3057 29.3332 23.6224 29.3332 24.0002C29.3332 24.3779 29.2054 24.6946 28.9498 24.9502C28.6943 25.2057 28.3776 25.3335 27.9998 25.3335H19.9998ZM37.3332 24.0002H34.6665C34.6665 22.8891 34.2776 21.9446 33.4998 21.1668C32.7221 20.3891 31.7776 20.0002 30.6665 20.0002H26.6332C26.2554 20.0002 25.9443 19.8724 25.6998 19.6168C25.4554 19.3613 25.3332 19.0446 25.3332 18.6668C25.3332 18.2891 25.4609 17.9724 25.7165 17.7168C25.9721 17.4613 26.2887 17.3335 26.6665 17.3335H30.6665C32.5109 17.3335 34.0832 17.9835 35.3832 19.2835C36.6832 20.5835 37.3332 22.1557 37.3332 24.0002Z" fill="#F3DEDE"/>
</g>
</svg>
