<svg width="48" height="48" viewBox="0 0 48 48" fill="none" xmlns="http://www.w3.org/2000/svg">
<rect width="48" height="48" rx="24" fill="#3F2525"/>
<mask id="mask0_1_993" style="mask-type:alpha" maskUnits="userSpaceOnUse" x="8" y="8" width="32" height="32">
<rect x="8" y="8" width="32" height="32" fill="#D9D9D9"/>
</mask>
<g mask="url(#mask0_1_993)">
<path d="M13 37.3332C12.7111 37.3332 12.4722 37.2387 12.2833 37.0498C12.0944 36.8609 12 36.6221 12 36.3332C12 36.0443 12.0944 35.8054 12.2833 35.6165C12.4722 35.4276 12.7111 35.3332 13 35.3332H15.3333V34.3332H14.3333C14.0444 34.3332 13.8056 34.2387 13.6167 34.0498C13.4278 33.8609 13.3333 33.6221 13.3333 33.3332C13.3333 33.0443 13.4278 32.8054 13.6167 32.6165C13.8056 32.4276 14.0444 32.3332 14.3333 32.3332H15.3333V31.3332H13C12.7111 31.3332 12.4722 31.2387 12.2833 31.0498C12.0944 30.8609 12 30.6221 12 30.3332C12 30.0443 12.0944 29.8054 12.2833 29.6165C12.4722 29.4276 12.7111 29.3332 13 29.3332H16C16.3778 29.3332 16.6944 29.4609 16.95 29.7165C17.2056 29.9721 17.3333 30.2887 17.3333 30.6665V31.9998C17.3333 32.3776 17.2056 32.6943 16.95 32.9498C16.6944 33.2054 16.3778 33.3332 16 33.3332C16.3778 33.3332 16.6944 33.4609 16.95 33.7165C17.2056 33.9721 17.3333 34.2887 17.3333 34.6665V35.9998C17.3333 36.3776 17.2056 36.6943 16.95 36.9498C16.6944 37.2054 16.3778 37.3332 16 37.3332H13ZM13 27.9998C12.7111 27.9998 12.4722 27.9054 12.2833 27.7165C12.0944 27.5276 12 27.2887 12 26.9998V24.3332C12 23.9554 12.1278 23.6387 12.3833 23.3832C12.6389 23.1276 12.9556 22.9998 13.3333 22.9998H15.3333V21.9998H13C12.7111 21.9998 12.4722 21.9054 12.2833 21.7165C12.0944 21.5276 12 21.2887 12 20.9998C12 20.7109 12.0944 20.4721 12.2833 20.2832C12.4722 20.0943 12.7111 19.9998 13 19.9998H16C16.3778 19.9998 16.6944 20.1276 16.95 20.3832C17.2056 20.6387 17.3333 20.9554 17.3333 21.3332V23.6665C17.3333 24.0443 17.2056 24.3609 16.95 24.6165C16.6944 24.8721 16.3778 24.9998 16 24.9998H14V25.9998H16.3333C16.6222 25.9998 16.8611 26.0943 17.05 26.2832C17.2389 26.4721 17.3333 26.7109 17.3333 26.9998C17.3333 27.2887 17.2389 27.5276 17.05 27.7165C16.8611 27.9054 16.6222 27.9998 16.3333 27.9998H13ZM15 18.6665C14.7111 18.6665 14.4722 18.5721 14.2833 18.3832C14.0944 18.1943 14 17.9554 14 17.6665V12.6665H13C12.7111 12.6665 12.4722 12.5721 12.2833 12.3832C12.0944 12.1943 12 11.9554 12 11.6665C12 11.3776 12.0944 11.1387 12.2833 10.9498C12.4722 10.7609 12.7111 10.6665 13 10.6665H15C15.2889 10.6665 15.5278 10.7609 15.7167 10.9498C15.9056 11.1387 16 11.3776 16 11.6665V17.6665C16 17.9554 15.9056 18.1943 15.7167 18.3832C15.5278 18.5721 15.2889 18.6665 15 18.6665ZM21.3333 33.3332C20.9556 33.3332 20.6389 33.2054 20.3833 32.9498C20.1278 32.6943 20 32.3776 20 31.9998C20 31.6221 20.1278 31.3054 20.3833 31.0498C20.6389 30.7943 20.9556 30.6665 21.3333 30.6665H34.6667C35.0444 30.6665 35.3611 30.7943 35.6167 31.0498C35.8722 31.3054 36 31.6221 36 31.9998C36 32.3776 35.8722 32.6943 35.6167 32.9498C35.3611 33.2054 35.0444 33.3332 34.6667 33.3332H21.3333ZM21.3333 25.3332C20.9556 25.3332 20.6389 25.2054 20.3833 24.9498C20.1278 24.6943 20 24.3776 20 23.9998C20 23.6221 20.1278 23.3054 20.3833 23.0498C20.6389 22.7943 20.9556 22.6665 21.3333 22.6665H34.6667C35.0444 22.6665 35.3611 22.7943 35.6167 23.0498C35.8722 23.3054 36 23.6221 36 23.9998C36 24.3776 35.8722 24.6943 35.6167 24.9498C35.3611 25.2054 35.0444 25.3332 34.6667 25.3332H21.3333ZM21.3333 17.3332C20.9556 17.3332 20.6389 17.2054 20.3833 16.9498C20.1278 16.6943 20 16.3776 20 15.9998C20 15.6221 20.1278 15.3054 20.3833 15.0498C20.6389 14.7943 20.9556 14.6665 21.3333 14.6665H34.6667C35.0444 14.6665 35.3611 14.7943 35.6167 15.0498C35.8722 15.3054 36 15.6221 36 15.9998C36 16.3776 35.8722 16.6943 35.6167 16.9498C35.3611 17.2054 35.0444 17.3332 34.6667 17.3332H21.3333Z" fill="#F3DEDE"/>
</g>
</svg>
