<svg width="48" height="48" viewBox="0 0 48 48" fill="none" xmlns="http://www.w3.org/2000/svg">
<mask id="mask0_1_3607" style="mask-type:alpha" maskUnits="userSpaceOnUse" x="8" y="8" width="32" height="32">
<rect x="8" y="8" width="32" height="32" fill="#D9D9D9"/>
</mask>
<g mask="url(#mask0_1_3607)">
<path d="M13 37.3327C12.7111 37.3327 12.4722 37.2382 12.2833 37.0493C12.0944 36.8605 12 36.6216 12 36.3327C12 36.0438 12.0944 35.8049 12.2833 35.616C12.4722 35.4271 12.7111 35.3327 13 35.3327H15.3333V34.3327H14.3333C14.0444 34.3327 13.8056 34.2382 13.6167 34.0493C13.4278 33.8605 13.3333 33.6216 13.3333 33.3327C13.3333 33.0438 13.4278 32.8049 13.6167 32.616C13.8056 32.4271 14.0444 32.3327 14.3333 32.3327H15.3333V31.3327H13C12.7111 31.3327 12.4722 31.2382 12.2833 31.0493C12.0944 30.8605 12 30.6216 12 30.3327C12 30.0438 12.0944 29.8049 12.2833 29.616C12.4722 29.4271 12.7111 29.3327 13 29.3327H16C16.3778 29.3327 16.6944 29.4605 16.95 29.716C17.2056 29.9716 17.3333 30.2882 17.3333 30.666V31.9993C17.3333 32.3771 17.2056 32.6938 16.95 32.9493C16.6944 33.2049 16.3778 33.3327 16 33.3327C16.3778 33.3327 16.6944 33.4605 16.95 33.716C17.2056 33.9716 17.3333 34.2882 17.3333 34.666V35.9993C17.3333 36.3771 17.2056 36.6938 16.95 36.9493C16.6944 37.2049 16.3778 37.3327 16 37.3327H13ZM13 27.9993C12.7111 27.9993 12.4722 27.9049 12.2833 27.716C12.0944 27.5271 12 27.2882 12 26.9993V24.3327C12 23.9549 12.1278 23.6382 12.3833 23.3827C12.6389 23.1271 12.9556 22.9993 13.3333 22.9993H15.3333V21.9993H13C12.7111 21.9993 12.4722 21.9049 12.2833 21.716C12.0944 21.5271 12 21.2882 12 20.9993C12 20.7105 12.0944 20.4716 12.2833 20.2827C12.4722 20.0938 12.7111 19.9993 13 19.9993H16C16.3778 19.9993 16.6944 20.1271 16.95 20.3827C17.2056 20.6382 17.3333 20.9549 17.3333 21.3327V23.666C17.3333 24.0438 17.2056 24.3605 16.95 24.616C16.6944 24.8716 16.3778 24.9993 16 24.9993H14V25.9993H16.3333C16.6222 25.9993 16.8611 26.0938 17.05 26.2827C17.2389 26.4716 17.3333 26.7105 17.3333 26.9993C17.3333 27.2882 17.2389 27.5271 17.05 27.716C16.8611 27.9049 16.6222 27.9993 16.3333 27.9993H13ZM15 18.666C14.7111 18.666 14.4722 18.5716 14.2833 18.3827C14.0944 18.1938 14 17.9549 14 17.666V12.666H13C12.7111 12.666 12.4722 12.5716 12.2833 12.3827C12.0944 12.1938 12 11.9549 12 11.666C12 11.3771 12.0944 11.1382 12.2833 10.9493C12.4722 10.7605 12.7111 10.666 13 10.666H15C15.2889 10.666 15.5278 10.7605 15.7167 10.9493C15.9056 11.1382 16 11.3771 16 11.666V17.666C16 17.9549 15.9056 18.1938 15.7167 18.3827C15.5278 18.5716 15.2889 18.666 15 18.666ZM21.3333 33.3327C20.9556 33.3327 20.6389 33.2049 20.3833 32.9493C20.1278 32.6938 20 32.3771 20 31.9993C20 31.6216 20.1278 31.3049 20.3833 31.0493C20.6389 30.7938 20.9556 30.666 21.3333 30.666H34.6667C35.0444 30.666 35.3611 30.7938 35.6167 31.0493C35.8722 31.3049 36 31.6216 36 31.9993C36 32.3771 35.8722 32.6938 35.6167 32.9493C35.3611 33.2049 35.0444 33.3327 34.6667 33.3327H21.3333ZM21.3333 25.3327C20.9556 25.3327 20.6389 25.2049 20.3833 24.9493C20.1278 24.6938 20 24.3771 20 23.9993C20 23.6216 20.1278 23.3049 20.3833 23.0493C20.6389 22.7938 20.9556 22.666 21.3333 22.666H34.6667C35.0444 22.666 35.3611 22.7938 35.6167 23.0493C35.8722 23.3049 36 23.6216 36 23.9993C36 24.3771 35.8722 24.6938 35.6167 24.9493C35.3611 25.2049 35.0444 25.3327 34.6667 25.3327H21.3333ZM21.3333 17.3327C20.9556 17.3327 20.6389 17.2049 20.3833 16.9493C20.1278 16.6938 20 16.3771 20 15.9993C20 15.6216 20.1278 15.3049 20.3833 15.0493C20.6389 14.7938 20.9556 14.666 21.3333 14.666H34.6667C35.0444 14.666 35.3611 14.7938 35.6167 15.0493C35.8722 15.3049 36 15.6216 36 15.9993C36 16.3771 35.8722 16.6938 35.6167 16.9493C35.3611 17.2049 35.0444 17.3327 34.6667 17.3327H21.3333Z" fill="#3F2525"/>
</g>
</svg>
