<svg width="48" height="48" viewBox="0 0 48 48" fill="none" xmlns="http://www.w3.org/2000/svg">
<rect width="48" height="48" rx="24" fill="#3F2525"/>
<mask id="mask0_1_997" style="mask-type:alpha" maskUnits="userSpaceOnUse" x="8" y="8" width="32" height="32">
<rect x="8" y="8" width="32" height="32" fill="#D9D9D9"/>
</mask>
<g mask="url(#mask0_1_997)">
<path d="M21.3333 33.3335C20.9556 33.3335 20.6389 33.2057 20.3833 32.9502C20.1278 32.6946 20 32.3779 20 32.0002C20 31.6224 20.1278 31.3057 20.3833 31.0502C20.6389 30.7946 20.9556 30.6668 21.3333 30.6668H34.6667C35.0444 30.6668 35.3611 30.7946 35.6167 31.0502C35.8722 31.3057 36 31.6224 36 32.0002C36 32.3779 35.8722 32.6946 35.6167 32.9502C35.3611 33.2057 35.0444 33.3335 34.6667 33.3335H21.3333ZM21.3333 25.3335C20.9556 25.3335 20.6389 25.2057 20.3833 24.9502C20.1278 24.6946 20 24.3779 20 24.0002C20 23.6224 20.1278 23.3057 20.3833 23.0502C20.6389 22.7946 20.9556 22.6668 21.3333 22.6668H34.6667C35.0444 22.6668 35.3611 22.7946 35.6167 23.0502C35.8722 23.3057 36 23.6224 36 24.0002C36 24.3779 35.8722 24.6946 35.6167 24.9502C35.3611 25.2057 35.0444 25.3335 34.6667 25.3335H21.3333ZM21.3333 17.3335C20.9556 17.3335 20.6389 17.2057 20.3833 16.9502C20.1278 16.6946 20 16.3779 20 16.0002C20 15.6224 20.1278 15.3057 20.3833 15.0502C20.6389 14.7946 20.9556 14.6668 21.3333 14.6668H34.6667C35.0444 14.6668 35.3611 14.7946 35.6167 15.0502C35.8722 15.3057 36 15.6224 36 16.0002C36 16.3779 35.8722 16.6946 35.6167 16.9502C35.3611 17.2057 35.0444 17.3335 34.6667 17.3335H21.3333ZM14.6667 34.6668C13.9333 34.6668 13.3056 34.4057 12.7833 33.8835C12.2611 33.3613 12 32.7335 12 32.0002C12 31.2668 12.2611 30.6391 12.7833 30.1168C13.3056 29.5946 13.9333 29.3335 14.6667 29.3335C15.4 29.3335 16.0278 29.5946 16.55 30.1168C17.0722 30.6391 17.3333 31.2668 17.3333 32.0002C17.3333 32.7335 17.0722 33.3613 16.55 33.8835C16.0278 34.4057 15.4 34.6668 14.6667 34.6668ZM14.6667 26.6668C13.9333 26.6668 13.3056 26.4057 12.7833 25.8835C12.2611 25.3613 12 24.7335 12 24.0002C12 23.2668 12.2611 22.6391 12.7833 22.1168C13.3056 21.5946 13.9333 21.3335 14.6667 21.3335C15.4 21.3335 16.0278 21.5946 16.55 22.1168C17.0722 22.6391 17.3333 23.2668 17.3333 24.0002C17.3333 24.7335 17.0722 25.3613 16.55 25.8835C16.0278 26.4057 15.4 26.6668 14.6667 26.6668ZM14.6667 18.6668C13.9333 18.6668 13.3056 18.4057 12.7833 17.8835C12.2611 17.3613 12 16.7335 12 16.0002C12 15.2668 12.2611 14.6391 12.7833 14.1168C13.3056 13.5946 13.9333 13.3335 14.6667 13.3335C15.4 13.3335 16.0278 13.5946 16.55 14.1168C17.0722 14.6391 17.3333 15.2668 17.3333 16.0002C17.3333 16.7335 17.0722 17.3613 16.55 17.8835C16.0278 18.4057 15.4 18.6668 14.6667 18.6668Z" fill="#F3DEDE"/>
</g>
</svg>
