<svg width="48" height="48" viewBox="0 0 48 48" fill="none" xmlns="http://www.w3.org/2000/svg">
<mask id="mask0_1_3604" style="mask-type:alpha" maskUnits="userSpaceOnUse" x="0" y="0" width="48" height="48">
<rect width="48" height="48" fill="#D9D9D9"/>
</mask>
<g mask="url(#mask0_1_3604)">
<path d="M21.0556 36.3125C20.5676 36.3125 20.1586 36.1508 19.8285 35.8273C19.4984 35.5039 19.3333 35.1031 19.3333 34.625C19.3333 34.1469 19.4984 33.7461 19.8285 33.4227C20.1586 33.0992 20.5676 32.9375 21.0556 32.9375H38.2778C38.7657 32.9375 39.1748 33.0992 39.5049 33.4227C39.835 33.7461 40 34.1469 40 34.625C40 35.1031 39.835 35.5039 39.5049 35.8273C39.1748 36.1508 38.7657 36.3125 38.2778 36.3125H21.0556ZM21.0556 26.1875C20.5676 26.1875 20.1586 26.0258 19.8285 25.7023C19.4984 25.3789 19.3333 24.9781 19.3333 24.5C19.3333 24.0219 19.4984 23.6211 19.8285 23.2977C20.1586 22.9742 20.5676 22.8125 21.0556 22.8125H38.2778C38.7657 22.8125 39.1748 22.9742 39.5049 23.2977C39.835 23.6211 40 24.0219 40 24.5C40 24.9781 39.835 25.3789 39.5049 25.7023C39.1748 26.0258 38.7657 26.1875 38.2778 26.1875H21.0556ZM21.0556 16.0625C20.5676 16.0625 20.1586 15.9008 19.8285 15.5773C19.4984 15.2539 19.3333 14.8531 19.3333 14.375C19.3333 13.8969 19.4984 13.4961 19.8285 13.1727C20.1586 12.8492 20.5676 12.6875 21.0556 12.6875H38.2778C38.7657 12.6875 39.1748 12.8492 39.5049 13.1727C39.835 13.4961 40 13.8969 40 14.375C40 14.8531 39.835 15.2539 39.5049 15.5773C39.1748 15.9008 38.7657 16.0625 38.2778 16.0625H21.0556ZM12.4444 38C11.4972 38 10.6863 37.6695 10.0118 37.0086C9.33727 36.3477 9 35.5531 9 34.625C9 33.6969 9.33727 32.9023 10.0118 32.2414C10.6863 31.5805 11.4972 31.25 12.4444 31.25C13.3917 31.25 14.2025 31.5805 14.8771 32.2414C15.5516 32.9023 15.8889 33.6969 15.8889 34.625C15.8889 35.5531 15.5516 36.3477 14.8771 37.0086C14.2025 37.6695 13.3917 38 12.4444 38ZM12.4444 27.875C11.4972 27.875 10.6863 27.5445 10.0118 26.8836C9.33727 26.2227 9 25.4281 9 24.5C9 23.5719 9.33727 22.7773 10.0118 22.1164C10.6863 21.4555 11.4972 21.125 12.4444 21.125C13.3917 21.125 14.2025 21.4555 14.8771 22.1164C15.5516 22.7773 15.8889 23.5719 15.8889 24.5C15.8889 25.4281 15.5516 26.2227 14.8771 26.8836C14.2025 27.5445 13.3917 27.875 12.4444 27.875ZM12.4444 17.75C11.4972 17.75 10.6863 17.4195 10.0118 16.7586C9.33727 16.0977 9 15.3031 9 14.375C9 13.4469 9.33727 12.6523 10.0118 11.9914C10.6863 11.3305 11.4972 11 12.4444 11C13.3917 11 14.2025 11.3305 14.8771 11.9914C15.5516 12.6523 15.8889 13.4469 15.8889 14.375C15.8889 15.3031 15.5516 16.0977 14.8771 16.7586C14.2025 17.4195 13.3917 17.75 12.4444 17.75Z" fill="#3F2525"/>
</g>
</svg>
