<svg width="48" height="48" viewBox="0 0 48 48" fill="none" xmlns="http://www.w3.org/2000/svg">
<rect width="48" height="48" rx="24" fill="#3F2525"/>
<mask id="mask0_1_1001" style="mask-type:alpha" maskUnits="userSpaceOnUse" x="8" y="8" width="32" height="32">
<rect x="8" y="8" width="32" height="32" fill="#D9D9D9"/>
</mask>
<g mask="url(#mask0_1_1001)">
<path d="M16.7335 30L18.6668 26.6667C17.2002 26.6667 15.9446 26.1444 14.9002 25.1C13.8557 24.0556 13.3335 22.8 13.3335 21.3333C13.3335 19.8667 13.8557 18.6111 14.9002 17.5667C15.9446 16.5222 17.2002 16 18.6668 16C20.1335 16 21.3891 16.5222 22.4335 17.5667C23.4779 18.6111 24.0002 19.8667 24.0002 21.3333C24.0002 21.8444 23.9391 22.3167 23.8168 22.75C23.6946 23.1833 23.5113 23.6 23.2668 24L19.0335 31.3333C18.9224 31.5333 18.7668 31.6944 18.5668 31.8167C18.3668 31.9389 18.1446 32 17.9002 32C17.3891 32 17.0057 31.7778 16.7502 31.3333C16.4946 30.8889 16.4891 30.4444 16.7335 30ZM28.7335 30L30.6668 26.6667C29.2002 26.6667 27.9446 26.1444 26.9002 25.1C25.8557 24.0556 25.3335 22.8 25.3335 21.3333C25.3335 19.8667 25.8557 18.6111 26.9002 17.5667C27.9446 16.5222 29.2002 16 30.6668 16C32.1335 16 33.3891 16.5222 34.4335 17.5667C35.4779 18.6111 36.0002 19.8667 36.0002 21.3333C36.0002 21.8444 35.9391 22.3167 35.8168 22.75C35.6946 23.1833 35.5113 23.6 35.2668 24L31.0335 31.3333C30.9224 31.5333 30.7668 31.6944 30.5668 31.8167C30.3668 31.9389 30.1446 32 29.9002 32C29.3891 32 29.0057 31.7778 28.7502 31.3333C28.4946 30.8889 28.4891 30.4444 28.7335 30ZM18.6668 23.3333C19.2224 23.3333 19.6946 23.1389 20.0835 22.75C20.4724 22.3611 20.6668 21.8889 20.6668 21.3333C20.6668 20.7778 23.3889 22.3889 23 22C22.6111 21.6111 21.5556 23.3333 21 23.3333C20.4444 23.3333 20.1727 22.6111 19.7839 23C19.395 23.3889 19.5 24.5444 19.5 25.1C19.5 25.6556 16.8613 22.3611 17.2502 22.75C17.6391 23.1389 18.1113 23.3333 18.6668 23.3333ZM30.6668 23.3333C31.2224 23.3333 31.6946 23.1389 32.0835 22.75C32.4724 22.3611 32.6668 21.8889 32.6668 21.3333C32.6668 20.7778 32.4724 20.3056 32.0835 19.9167C31.6946 19.5278 34.9891 21 34.4335 21C33.8779 21 33.3889 23.6111 33 24C32.6111 24.3889 31.0335 23.9444 31.0335 24.5C31.0335 25.0556 28.8613 22.3611 29.2502 22.75C29.6391 23.1389 30.1113 23.3333 30.6668 23.3333Z" fill="#F3DEDE"/>
</g>
</svg>
