<svg width="48" height="48" viewBox="0 0 48 48" fill="none" xmlns="http://www.w3.org/2000/svg">
<rect width="48" height="48" rx="24" fill="#3F2525"/>
<mask id="mask0_1_1005" style="mask-type:alpha" maskUnits="userSpaceOnUse" x="8" y="8" width="32" height="32">
<rect x="8" y="8" width="32" height="32" fill="#D9D9D9"/>
</mask>
<g mask="url(#mask0_1_1005)">
<path d="M25.5998 21.7998L20.7331 16.9331C20.3109 16.5109 20.2164 16.0276 20.4498 15.4831C20.6831 14.9387 21.0998 14.6665 21.6998 14.6665H32.6664C33.222 14.6665 33.6942 14.8609 34.0831 15.2498C34.472 15.6387 34.6664 16.1109 34.6664 16.6665C34.6664 17.222 34.472 17.6942 34.0831 18.0831C33.6942 18.472 33.222 18.6665 32.6664 18.6665H26.9331L25.5998 21.7998ZM33.4664 37.1998L23.3331 27.0665L21.1998 32.0998C21.0442 32.4776 20.7942 32.7776 20.4498 32.9998C20.1053 33.222 19.7331 33.3331 19.3331 33.3331C18.622 33.3331 18.0664 33.0331 17.6664 32.4331C17.2664 31.8331 17.2109 31.1998 17.4998 30.5331L20.2664 23.9998L10.7998 14.5331C10.5553 14.2887 10.4331 13.9776 10.4331 13.5998C10.4331 13.222 10.5553 12.9109 10.7998 12.6665C11.0442 12.422 11.3553 12.2998 11.7331 12.2998C12.1109 12.2998 12.422 12.422 12.6664 12.6665L35.3331 35.3331C35.5776 35.5776 35.6998 35.8887 35.6998 36.2665C35.6998 36.6443 35.5776 36.9554 35.3331 37.1998C35.0887 37.4443 34.7776 37.5665 34.3998 37.5665C34.022 37.5665 33.7109 37.4443 33.4664 37.1998Z" fill="#F3DEDE"/>
</g>
</svg>
