<svg width="32" height="32" viewBox="0 0 32 32" fill="none" xmlns="http://www.w3.org/2000/svg">
<mask id="mask0_1_970" style="mask-type:alpha" maskUnits="userSpaceOnUse" x="0" y="0" width="32" height="32">
<rect width="32" height="32" fill="#D9D9D9"/>
</mask>
<g mask="url(#mask0_1_970)">
<path d="M17.5998 13.7998L12.7331 8.93314C12.3109 8.51092 12.2164 8.02758 12.4498 7.48314C12.6831 6.93869 13.0998 6.66647 13.6998 6.66647H24.6664C25.222 6.66647 25.6942 6.86092 26.0831 7.2498C26.472 7.63869 26.6664 8.11092 26.6664 8.66647C26.6664 9.22203 26.472 9.69425 26.0831 10.0831C25.6942 10.472 25.222 10.6665 24.6664 10.6665H18.9331L17.5998 13.7998ZM25.4664 29.1998L15.3331 19.0665L13.1998 24.0998C13.0442 24.4776 12.7942 24.7776 12.4498 24.9998C12.1053 25.222 11.7331 25.3331 11.3331 25.3331C10.622 25.3331 10.0664 25.0331 9.66644 24.4331C9.26644 23.8331 9.21088 23.1998 9.49977 22.5331L12.2664 15.9998L2.79977 6.53314C2.55533 6.28869 2.43311 5.97758 2.43311 5.5998C2.43311 5.22203 2.55533 4.91092 2.79977 4.66647C3.04422 4.42203 3.35533 4.2998 3.73311 4.2998C4.11088 4.2998 4.42199 4.42203 4.66644 4.66647L27.3331 27.3331C27.5776 27.5776 27.6998 27.8887 27.6998 28.2665C27.6998 28.6443 27.5776 28.9554 27.3331 29.1998C27.0887 29.4443 26.7776 29.5665 26.3998 29.5665C26.022 29.5665 25.7109 29.4443 25.4664 29.1998Z" fill="#3F2525"/>
</g>
</svg>
