<svg width="48" height="48" viewBox="0 0 48 48" fill="none" xmlns="http://www.w3.org/2000/svg">
<rect x="0.5" y="0.5" width="47" height="47" rx="23.5" fill="#3F2525"/>
<rect x="0.5" y="0.5" width="47" height="47" rx="23.5" stroke="black"/>
<mask id="mask0_1_981" style="mask-type:alpha" maskUnits="userSpaceOnUse" x="8" y="8" width="32" height="32">
<rect x="8" y="8" width="32" height="32" fill="#D9D9D9"/>
</mask>
<g mask="url(#mask0_1_981)">
<path d="M15.9998 36C15.6221 36 15.3054 35.8722 15.0498 35.6167C14.7943 35.3611 14.6665 35.0444 14.6665 34.6667C14.6665 34.2889 14.7943 33.9722 15.0498 33.7167C15.3054 33.4611 15.6221 33.3333 15.9998 33.3333H31.9998C32.3776 33.3333 32.6943 33.4611 32.9498 33.7167C33.2054 33.9722 33.3332 34.2889 33.3332 34.6667C33.3332 35.0444 33.2054 35.3611 32.9498 35.6167C32.6943 35.8722 32.3776 36 31.9998 36H15.9998ZM23.9998 30.6667C21.7554 30.6667 20.0109 29.9667 18.7665 28.5667C17.5221 27.1667 16.8998 25.3111 16.8998 23V13.7C16.8998 13.2333 17.0721 12.8333 17.4165 12.5C17.7609 12.1667 18.1665 12 18.6332 12C19.0998 12 19.4998 12.1667 19.8332 12.5C20.1665 12.8333 20.3332 13.2333 20.3332 13.7V23.2C20.3332 24.4444 20.6443 25.4556 21.2665 26.2333C21.8887 27.0111 22.7998 27.4 23.9998 27.4C25.1998 27.4 26.1109 27.0111 26.7332 26.2333C27.3554 25.4556 27.6665 24.4444 27.6665 23.2V13.7C27.6665 13.2333 27.8387 12.8333 28.1832 12.5C28.5276 12.1667 28.9332 12 29.3998 12C29.8665 12 30.2665 12.1667 30.5998 12.5C30.9332 12.8333 31.0998 13.2333 31.0998 13.7V23C31.0998 25.3111 30.4776 27.1667 29.2332 28.5667C27.9887 29.9667 26.2443 30.6667 23.9998 30.6667Z" fill="#F3DEDE"/>
</g>
</svg>
