<svg width="32" height="32" viewBox="0 0 32 32" fill="none" xmlns="http://www.w3.org/2000/svg">
<mask id="mask0_29_3854" style="mask-type:alpha" maskUnits="userSpaceOnUse" x="0" y="0" width="32" height="32">
<rect width="32" height="32" fill="#D9D9D9"/>
</mask>
<g mask="url(#mask0_29_3854)">
<path d="M8.00008 28C7.6223 28 7.30564 27.8722 7.05008 27.6167C6.79453 27.3611 6.66675 27.0444 6.66675 26.6667C6.66675 26.2889 6.79453 25.9722 7.05008 25.7167C7.30564 25.4611 7.6223 25.3333 8.00008 25.3333H24.0001C24.3779 25.3333 24.6945 25.4611 24.9501 25.7167C25.2056 25.9722 25.3334 26.2889 25.3334 26.6667C25.3334 27.0444 25.2056 27.3611 24.9501 27.6167C24.6945 27.8722 24.3779 28 24.0001 28H8.00008ZM16.0001 22.6667C13.7556 22.6667 12.0112 21.9667 10.7667 20.5667C9.5223 19.1667 8.90008 17.3111 8.90008 15V5.7C8.90008 5.23333 9.0723 4.83333 9.41675 4.5C9.76119 4.16667 10.1667 4 10.6334 4C11.1001 4 11.5001 4.16667 11.8334 4.5C12.1667 4.83333 12.3334 5.23333 12.3334 5.7V15.2C12.3334 16.4444 12.6445 17.4556 13.2667 18.2333C13.889 19.0111 14.8001 19.4 16.0001 19.4C17.2001 19.4 18.1112 19.0111 18.7334 18.2333C19.3556 17.4556 19.6667 16.4444 19.6667 15.2V5.7C19.6667 5.23333 19.839 4.83333 20.1834 4.5C20.5279 4.16667 20.9334 4 21.4001 4C21.8667 4 22.2667 4.16667 22.6001 4.5C22.9334 4.83333 23.1001 5.23333 23.1001 5.7V15C23.1001 17.3111 22.4779 19.1667 21.2334 20.5667C19.989 21.9667 18.2445 22.6667 16.0001 22.6667Z" fill="#3F2525"/>
</g>
</svg>
