<svg width="98" height="32" viewBox="0 0 98 32" fill="none" xmlns="http://www.w3.org/2000/svg">
<rect width="98" height="32" rx="16" fill="#86F5AE"/>
<g clip-path="url(#clip0_2631_7504)">
<path d="M15.443 23.9907C12.4747 23.8254 9.69793 21.8534 8.58769 19.0907C7.93217 17.5445 7.84769 15.7789 8.18849 14.1459C8.76977 11.6331 10.6266 9.46576 13.0429 8.5448C15.6837 7.49824 18.8662 7.96656 21.0597 9.7864C23.7765 11.9368 24.7587 15.9406 23.3792 19.1128C22.1731 22.0523 19.0808 24.1011 15.8944 23.9982C15.744 24 15.593 24.0026 15.4429 23.9906L15.443 23.9907ZM19.497 19.6578C20.2422 18.9397 18.9546 18.4702 18.4149 18.2466C16.8155 17.549 15.0242 17.5078 13.3157 17.6947C12.6738 17.7315 11.0018 17.9747 11.8894 18.8963C12.7211 18.9806 13.5462 18.6165 14.3894 18.6445C16.0147 18.539 17.6749 18.8822 19.0746 19.7296C19.2126 19.8064 19.387 19.7602 19.497 19.6578ZM20.4458 17.5934C21.1891 16.8674 20.0602 16.2506 19.4438 16.0394C17.0259 14.9738 14.2045 14.7808 11.6774 15.5629C10.6851 16.1395 11.8758 17.1918 12.6336 16.6144C15.028 16.0954 17.6314 16.4192 19.7715 17.6352C19.9792 17.7302 20.2554 17.7288 20.4458 17.5934ZM21.3414 15.2931C22.1994 14.865 21.6741 13.795 20.901 13.6397C18.3122 12.4248 15.3376 12.2061 12.5334 12.6125C11.7797 12.6691 10.3107 13.0171 10.9048 14.064C11.5795 14.8381 12.6274 13.9792 13.4726 14.0541C15.8094 13.8208 18.273 14.0629 20.3946 15.1277C20.6778 15.291 21.0157 15.4643 21.3414 15.2931Z" fill="#063B19"/>
</g>
<path d="M36.116 21.168C34.002 21.168 32.434 19.824 32.434 18.102H34.66C34.66 18.732 35.318 19.236 36.144 19.236C36.886 19.236 37.502 18.844 37.502 18.298C37.502 16.786 32.588 17.444 32.588 14.168C32.588 12.348 34.114 11.172 36.06 11.172C38.062 11.172 39.588 12.432 39.588 14.112H37.362C37.362 13.538 36.788 13.104 36.046 13.104C35.374 13.104 34.814 13.44 34.814 13.986C34.814 15.512 39.728 14.686 39.728 18.046C39.728 19.936 38.146 21.168 36.116 21.168ZM40.9741 23.66V13.86H43.0181V14.574C43.5641 14.014 44.3061 13.692 45.1741 13.692C47.1481 13.692 48.6181 15.302 48.6181 17.43C48.6181 19.558 47.1481 21.168 45.1741 21.168C44.3061 21.168 43.5641 20.846 43.0181 20.286V23.66H40.9741ZM44.7681 19.194C45.7761 19.194 46.5181 18.438 46.5181 17.43C46.5181 16.422 45.7761 15.666 44.7681 15.666C43.7601 15.666 43.0181 16.422 43.0181 17.43C43.0181 18.438 43.7601 19.194 44.7681 19.194ZM53.2772 21.168C51.0792 21.168 49.4272 19.558 49.4272 17.43C49.4272 15.302 51.0792 13.692 53.2772 13.692C55.4752 13.692 57.1272 15.302 57.1272 17.43C57.1272 19.558 55.4752 21.168 53.2772 21.168ZM53.2772 19.194C54.2852 19.194 55.0272 18.438 55.0272 17.43C55.0272 16.422 54.2852 15.666 53.2772 15.666C52.2692 15.666 51.5272 16.422 51.5272 17.43C51.5272 18.438 52.2692 19.194 53.2772 19.194ZM61.2686 21C59.7706 21 58.7486 20.09 58.7486 18.732V15.722H57.6846V13.86H58.2726C58.6646 13.86 58.8606 13.664 58.8606 13.272V11.984H60.7926V13.86H63.1306V15.722H60.7926V18.536C60.7926 18.9 61.0446 19.138 61.3946 19.138C61.7866 19.138 62.0246 18.858 62.0246 18.396H63.8446C63.8446 19.978 62.8366 21 61.2686 21ZM65.7311 12.978C65.0171 12.978 64.4711 12.446 64.4711 11.718C64.4711 11.004 65.0171 10.472 65.7311 10.472C66.4591 10.472 67.0051 11.004 67.0051 11.718C67.0051 12.446 66.4591 12.978 65.7311 12.978ZM64.7091 21V13.86H66.7531V21H64.7091ZM69.1279 21V15.834H68.0499V13.972H69.1279V13.048C69.1279 11.676 70.1639 10.752 71.6899 10.752C73.2579 10.752 74.2659 11.718 74.2659 13.244H72.4459C72.4459 12.866 72.1939 12.614 71.8019 12.614C71.4239 12.614 71.1719 12.866 71.1719 13.244V13.972H73.1739V15.834H71.1719V21H69.1279ZM74.8856 23.8V21.812H75.0956C75.9216 21.812 76.3556 21.518 76.7196 20.846L73.8776 13.86H76.2156L77.8676 18.396L79.5056 13.86H81.7876L78.5116 21.91C77.9516 23.282 77.0416 23.8 75.0956 23.8H74.8856Z" fill="#063B19"/>
<defs>
<clipPath id="clip0_2631_7504">
<rect width="16" height="16" fill="white" transform="translate(8 8)"/>
</clipPath>
</defs>
</svg>
