<svg width="128" height="61" viewBox="0 0 128 61" fill="none" xmlns="http://www.w3.org/2000/svg">
<mask id="mask0_2631_8435" style="mask-type:alpha" maskUnits="userSpaceOnUse" x="0" y="0" width="128" height="61">
<path d="M123.062 60.5441L70.2616 55.9464C70.6449 51.5448 67.3874 47.6659 62.9857 47.2826C58.5841 46.8993 54.7052 50.1568 54.3219 54.5584L0.525483 49.874L4.86292 0.0625L58.6593 4.74693C58.2761 9.14855 61.5336 13.0275 65.9352 13.4108C70.3368 13.794 74.2157 10.5365 74.599 6.1349L127.399 10.7326L123.062 60.5441Z" fill="#D9D9D9"/>
</mask>
<g mask="url(#mask0_2631_8435)">
<rect width="123" height="50" transform="translate(4.86292 0.0625) rotate(4.97659)" fill="#FFF9F9"/>
<path d="M29.5676 29.956L25.0612 29.5636L25.0561 29.622C24.9931 30.3458 25.0392 31.0321 25.1944 31.6808C25.3575 32.3302 25.5897 32.8602 25.8912 33.2707C26.2062 33.7059 26.6039 34.0464 27.0844 34.2921C27.5649 34.5378 28.1126 34.6875 28.7274 34.741C29.1866 34.781 29.633 34.7885 30.0665 34.7635C30.5006 34.7307 30.9259 34.6658 31.3421 34.5687L31.3957 36.3849C30.9497 36.4637 30.4905 36.5139 30.018 36.5355C29.5456 36.5571 29.0643 36.5466 28.5739 36.5039C27.6633 36.4246 26.8388 36.2116 26.1005 35.865C25.3699 35.5191 24.7563 35.0461 24.2596 34.4461C23.7765 33.8707 23.4048 33.1404 23.1447 32.2552C22.8846 31.3699 22.7979 30.4291 22.8846 29.4329L22.8897 29.3745L20.8 29.1926L20.924 27.7683L23.0138 27.9502L23.154 26.3391L21.0643 26.1572L21.1893 24.7212L23.2791 24.9032L23.2811 24.8798C23.3618 23.9536 23.607 23.0732 24.0169 22.2384C24.4346 21.4043 24.935 20.746 25.5181 20.2635C26.1097 19.7739 26.7909 19.4254 27.5618 19.2181C28.3327 19.0108 29.1696 18.9464 30.0724 19.025C30.5628 19.0677 31.0306 19.1437 31.4759 19.2531C31.9297 19.3553 32.3892 19.4816 32.8545 19.6319L32.4868 21.4232C32.0929 21.2634 31.6811 21.1295 31.2513 21.0215C30.83 20.9064 30.3859 20.8285 29.9189 20.7879C29.3118 20.735 28.7547 20.7845 28.2474 20.9364C27.7401 21.0883 27.2948 21.3396 26.9113 21.6905C26.5279 22.0414 26.2033 22.5268 25.9376 23.1467C25.6719 23.7666 25.5099 24.4112 25.4516 25.0806L25.4505 25.0922L29.9569 25.4847L29.8319 26.9206L25.3255 26.5282L25.1852 28.1393L29.6916 28.5317L29.5676 29.956ZM45.1267 31.9461L47.4967 32.1524L47.3432 33.9153L44.9732 33.7089L44.6296 37.6549L42.4698 37.4669L42.8134 33.5209L35.0615 32.8458L35.1723 31.5733L43.8099 20.4565L46.1098 20.6568L45.1267 31.9461ZM37.6083 31.2914L42.9669 31.758L43.6999 23.3406L43.2927 23.9639L37.6083 31.2914ZM62.1875 32.6318C62.0933 33.7136 61.8851 34.664 61.5628 35.4829C61.2412 36.294 60.8222 36.9633 60.3058 37.4908C59.7886 38.026 59.1786 38.4121 58.4757 38.6489C57.7729 38.8857 56.9856 38.9661 56.1139 38.8902C55.25 38.815 54.4881 38.6036 53.8282 38.2559C53.1691 37.9005 52.6275 37.4103 52.2036 36.7852C51.7783 36.1757 51.4774 35.4438 51.3009 34.5893C51.125 33.727 51.0842 32.755 51.1784 31.6731L51.525 27.6921C51.6192 26.6103 51.8271 25.6638 52.1487 24.8527C52.4709 24.0338 52.8945 23.3571 53.4194 22.8225C53.9366 22.2872 54.5466 21.9011 55.2495 21.6643C55.9608 21.4204 56.7484 21.3361 57.6124 21.4113C58.4841 21.4872 59.2453 21.7064 59.8959 22.0689C60.5551 22.4243 61.097 22.9107 61.5216 23.528C61.9384 24.1446 62.2348 24.884 62.4106 25.7463C62.5872 26.6007 62.6284 27.5689 62.5342 28.6507L62.1875 32.6318ZM53.3875 31.4303L60.4492 26.9282C60.4357 26.3624 60.3659 25.8584 60.2397 25.4161C60.122 24.9667 59.9395 24.5861 59.6921 24.2744C59.4533 23.9556 59.1457 23.7053 58.7694 23.5236C58.4009 23.3425 57.9637 23.2299 57.4578 23.1859C56.9442 23.1411 56.4817 23.1832 56.0706 23.3121C55.6679 23.4339 55.3171 23.6347 55.0182 23.9145C54.6581 24.2674 54.3699 24.7403 54.1536 25.3331C53.9458 25.9189 53.8073 26.6087 53.7382 27.4025L53.4901 30.2511C53.4732 30.4457 53.4562 30.6403 53.4393 30.8349C53.4224 31.0294 53.4051 31.2279 53.3875 31.4303ZM59.9764 32.898L60.1858 30.493C60.196 30.3763 60.2153 30.1545 60.2437 29.8276C60.2729 29.4929 60.2969 29.2166 60.3159 28.9987L53.2679 33.4784C53.2885 34.0527 53.3693 34.5655 53.5104 35.0169C53.6521 35.4606 53.8548 35.8351 54.1183 36.1403C54.3599 36.428 54.6614 36.6581 55.0228 36.8308C55.3849 36.9956 55.7994 37.0984 56.2664 37.139C56.7567 37.1817 57.199 37.1457 57.5932 37.0311C57.9875 36.9164 58.3291 36.7305 58.6181 36.4733C59.0094 36.1231 59.3135 35.6477 59.5305 35.0471C59.7552 34.4471 59.9039 33.7308 59.9764 32.898ZM69.9089 38.4446C69.9489 37.9854 70.1232 37.6046 70.4319 37.3021C70.7405 36.9996 71.1789 36.8731 71.7471 36.9225C72.3075 36.9713 72.7174 37.1717 72.9769 37.5237C73.2449 37.8685 73.3585 38.2745 73.3179 38.7414C73.2779 39.2006 73.0965 39.573 72.7736 39.8586C72.4507 40.1442 72.013 40.2629 71.4604 40.2148C70.9 40.166 70.4894 39.9734 70.2286 39.637C69.9761 39.2935 69.8696 38.896 69.9089 38.4446ZM92.3415 35.2575C92.2473 36.3393 92.0391 37.2897 91.7168 38.1086C91.3953 38.9197 90.9762 39.589 90.4598 40.1165C89.9427 40.6518 89.3326 41.0378 88.6298 41.2746C87.9269 41.5114 87.1396 41.5918 86.2679 41.5159C85.404 41.4407 84.6421 41.2293 83.9823 40.8817C83.3231 40.5263 82.7816 40.036 82.3576 39.411C81.9323 38.8015 81.6314 38.0695 81.4549 37.215C81.279 36.3527 81.2382 35.3807 81.3324 34.2988L81.679 30.3178C81.7733 29.236 81.9811 28.2895 82.3027 27.4784C82.625 26.6595 83.0486 25.9828 83.5735 25.4482C84.0906 24.9129 84.7006 24.5269 85.4035 24.2901C86.1148 24.0462 86.9025 23.9618 87.7664 24.0371C88.6381 24.113 89.3993 24.3322 90.05 24.6947C90.7091 25.0501 91.251 25.5364 91.6756 26.1537C92.0925 26.7703 92.3888 27.5097 92.5647 28.372C92.7412 29.2265 92.7824 30.1946 92.6882 31.2765L92.3415 35.2575ZM83.5415 34.056L90.6032 29.5539C90.5897 28.9881 90.5199 28.4841 90.3937 28.0418C90.276 27.5924 90.0935 27.2118 89.8462 26.9001C89.6073 26.5813 89.2997 26.3311 88.9234 26.1493C88.5549 25.9682 88.1178 25.8556 87.6119 25.8116C87.0982 25.7669 86.6357 25.8089 86.2246 25.9378C85.8219 26.0596 85.4711 26.2604 85.1723 26.5402C84.8122 26.8931 84.524 27.366 84.3077 27.9588C84.0998 28.5446 83.9613 29.2344 83.8922 30.0282L83.6442 32.8768C83.6272 33.0714 83.6103 33.266 83.5933 33.4606C83.5764 33.6551 83.5591 33.8536 83.5415 34.056ZM90.1304 35.5237L90.3398 33.1188C90.35 33.002 90.3693 32.7802 90.3978 32.4533C90.4269 32.1186 90.451 31.8423 90.4699 31.6244L83.4219 36.1041C83.4425 36.6784 83.5233 37.1912 83.6644 37.6427C83.8061 38.0863 84.0088 38.4608 84.2724 38.766C84.5139 39.0537 84.8154 39.2839 85.1768 39.4565C85.5389 39.6213 85.9534 39.7241 86.4204 39.7647C86.9107 39.8074 87.353 39.7714 87.7473 39.6568C88.1415 39.5421 88.4831 39.3562 88.7722 39.0991C89.1634 38.7489 89.4675 38.2734 89.6845 37.6728C89.9092 37.0729 90.0579 36.3565 90.1304 35.5237ZM107.419 36.5703C107.324 37.6522 107.116 38.6026 106.794 39.4214C106.472 40.2325 106.053 40.9018 105.537 41.4293C105.02 41.9646 104.41 42.3507 103.707 42.5874C103.004 42.8242 102.217 42.9047 101.345 42.8288C100.481 42.7536 99.7191 42.5421 99.0593 42.1945C98.4001 41.8391 97.8586 41.3489 97.4346 40.7238C97.0093 40.1143 96.7084 39.3823 96.5319 38.5279C96.356 37.6656 96.3152 36.6936 96.4094 35.6117L96.7561 31.6307C96.8503 30.5488 97.0581 29.6024 97.3797 28.7913C97.702 27.9724 98.1256 27.2956 98.6505 26.761C99.1676 26.2258 99.7776 25.8397 100.48 25.6029C101.192 25.359 101.979 25.2747 102.843 25.3499C103.715 25.4258 104.476 25.645 105.127 26.0075C105.786 26.3629 106.328 26.8493 106.753 27.4665C107.169 28.0832 107.466 28.8226 107.642 29.6848C107.818 30.5393 107.859 31.5075 107.765 32.5893L107.419 36.5703ZM98.6185 35.3688L105.68 30.8668C105.667 30.301 105.597 29.7969 105.471 29.3546C105.353 28.9052 105.17 28.5247 104.923 28.213C104.684 27.8942 104.377 27.6439 104 27.4622C103.632 27.2811 103.195 27.1685 102.689 27.1244C102.175 27.0797 101.713 27.1218 101.302 27.2507C100.899 27.3724 100.548 27.5732 100.249 27.8531C99.8892 28.206 99.601 28.6788 99.3847 29.2717C99.1768 29.8574 99.0383 30.5472 98.9692 31.3411L98.7212 34.1897C98.7042 34.3843 98.6873 34.5789 98.6703 34.7734C98.6534 34.968 98.6361 35.1665 98.6185 35.3688ZM105.207 36.8366L105.417 34.4316C105.427 34.3149 105.446 34.093 105.475 33.7662C105.504 33.4315 105.528 33.1552 105.547 32.9373L98.499 37.417C98.5195 37.9912 98.6003 38.5041 98.7414 38.9555C98.8831 39.3992 99.0858 39.7736 99.3494 40.0789C99.5909 40.3666 99.8924 40.5967 100.254 40.7693C100.616 40.9342 101.03 41.0369 101.497 41.0776C101.988 41.1203 102.43 41.0843 102.824 40.9696C103.219 40.855 103.56 40.6691 103.849 40.4119C104.24 40.0617 104.544 39.5863 104.761 38.9857C104.986 38.3857 105.135 37.6694 105.207 36.8366Z" fill="#757272"/>
</g>
</svg>
