<svg width="110" height="57" viewBox="0 0 110 57" fill="none" xmlns="http://www.w3.org/2000/svg">
<mask id="mask0_2631_8377" style="mask-type:alpha" maskUnits="userSpaceOnUse" x="0" y="0" width="110" height="57">
<path d="M109.925 49.9028L65.0134 52.7247C64.7363 48.3151 60.937 44.965 56.5274 45.2421C52.1179 45.5191 48.7678 49.3184 49.0449 53.728L3.13538 56.6125L0 6.71094L45.9095 3.82638C46.1865 8.23597 49.9858 11.586 54.3954 11.309C58.805 11.0319 62.155 7.23264 61.878 2.82306L106.789 0.00121521L109.925 49.9028Z" fill="#D9D9D9"/>
</mask>
<g mask="url(#mask0_2631_8377)">
<rect width="107" height="50" transform="translate(0 6.71094) rotate(-3.59524)" fill="#FFF9F9"/>
<path d="M28.02 32.6412L23.5054 32.9249L23.5091 32.9834C23.5547 33.7085 23.7025 34.3802 23.9527 34.9986C24.2107 35.6164 24.5194 36.1058 24.8787 36.4668C25.255 36.8502 25.6991 37.1276 26.2108 37.299C26.7226 37.4704 27.2864 37.5367 27.9024 37.498C28.3624 37.4691 28.8049 37.41 29.2298 37.3207C29.6543 37.2235 30.065 37.096 30.4622 36.9379L30.7859 38.7258C30.3566 38.8702 29.91 38.9883 29.4461 39.0801C28.9822 39.1719 28.5046 39.2332 28.0134 39.264C27.1011 39.3214 26.2541 39.2337 25.4723 39.001C24.6984 38.7678 24.0211 38.3916 23.4405 37.8723C22.877 37.3754 22.4007 36.7086 22.0115 35.872C21.6223 35.0354 21.3964 34.1181 21.3337 33.12L21.33 33.0616L19.2365 33.1931L19.1468 31.7662L21.2404 31.6347L21.139 30.0207L19.0454 30.1522L18.955 28.7136L21.0486 28.5821L21.0471 28.5587C20.9888 27.6309 21.1001 26.7237 21.381 25.8371C21.6697 24.9501 22.0664 24.2246 22.5711 23.6605C23.0831 23.0882 23.7048 22.6421 24.4361 22.3222C25.1675 22.0023 25.9854 21.8139 26.8899 21.7571C27.3811 21.7262 27.855 21.7317 28.3117 21.7734C28.7756 21.8069 29.2489 21.8633 29.7313 21.9425L29.6347 23.7686C29.2214 23.6693 28.7943 23.5983 28.3532 23.5556C27.9195 23.5045 27.4687 23.4937 27.0009 23.5231C26.3927 23.5613 25.8491 23.6933 25.3701 23.9191C24.8912 24.1449 24.4883 24.4599 24.1614 24.864C23.8345 25.2681 23.5859 25.7964 23.4156 26.449C23.2452 27.1016 23.1811 27.7632 23.2232 28.4337L23.224 28.4454L27.7385 28.1618L27.8289 29.6003L23.3144 29.884L23.4158 31.498L27.9303 31.2143L28.02 32.6412ZM43.7019 32.29L46.0761 32.1408L46.1871 33.9068L43.8129 34.056L44.0613 38.0092L41.8976 38.1451L41.6492 34.192L33.8832 34.6799L33.8031 33.4051L40.6873 21.125L42.9913 20.9802L43.7019 32.29ZM36.1699 32.7632L41.5382 32.4259L41.0084 23.9933L40.6987 24.6703L36.1699 32.7632ZM54.0716 35.9712C54.0427 35.5111 54.1583 35.1086 54.4184 34.7634C54.6785 34.4183 55.0932 34.2279 55.6624 34.1921C56.2238 34.1569 56.659 34.2939 56.9681 34.6032C57.2845 34.9043 57.4573 35.2888 57.4867 35.7566C57.5156 36.2166 57.3918 36.6119 57.1151 36.9424C56.8384 37.2729 56.4232 37.4555 55.8696 37.4903C55.3082 37.5256 54.8735 37.3963 54.5654 37.1026C54.2646 36.8005 54.1 36.4234 54.0716 35.9712ZM75.7786 29.4761C75.8467 30.5599 75.7824 31.5307 75.5858 32.3884C75.3888 33.2384 75.0742 33.9627 74.6421 34.5613C74.2105 35.1677 73.6649 35.6403 73.0052 35.9792C72.3454 36.3181 71.5789 36.515 70.7056 36.5699C69.8402 36.6243 69.0553 36.5288 68.351 36.2834C67.6462 36.0302 67.0377 35.6262 66.5253 35.0713C66.0139 34.532 65.6073 33.853 65.3053 33.0344C65.0029 32.208 64.8177 31.2529 64.7496 30.1691L64.499 26.1808C64.4309 25.097 64.4954 24.1301 64.6925 23.2802C64.8891 22.4224 65.207 21.6901 65.6464 21.0832C66.078 20.4768 66.6236 20.0042 67.2834 19.6653C67.9504 19.3181 68.7167 19.1173 69.5822 19.0629C70.4554 19.008 71.2408 19.1113 71.9383 19.3728C72.643 19.626 73.2513 20.0261 73.7632 20.5732C74.2673 21.1208 74.6706 21.8078 74.973 22.6342C75.2749 23.4529 75.4599 24.4041 75.528 25.4879L75.7786 29.4761ZM66.8978 29.5996L73.2096 24.0954C73.1119 23.5379 72.9677 23.0499 72.7771 22.6313C72.5937 22.2045 72.3565 21.8554 72.0655 21.584C71.7817 21.3044 71.4403 21.1028 71.0411 20.9791C70.6498 20.855 70.2007 20.8088 69.6939 20.8407C69.1793 20.873 68.7283 20.9835 68.3409 21.1722C67.9608 21.3527 67.6439 21.6035 67.3901 21.9248C67.0866 22.3274 66.8721 22.8379 66.7466 23.4564C66.6284 24.0666 66.5943 24.7693 66.6442 25.5646L66.8235 28.4184C66.8358 28.6133 66.848 28.8082 66.8603 29.0032C66.8725 29.1981 66.885 29.3969 66.8978 29.5996ZM73.6319 30.0689L73.4805 27.6596C73.4731 27.5426 73.4592 27.3204 73.4386 26.9929C73.4175 26.6577 73.4001 26.3809 73.3864 26.1625L67.0848 31.6427C67.1908 32.2075 67.3471 32.7026 67.5539 33.1279C67.7602 33.5455 68.0164 33.8856 68.3225 34.1482C68.6043 34.3966 68.9367 34.5792 69.3198 34.6961C69.7024 34.8051 70.1276 34.8449 70.5954 34.8155C71.0866 34.7847 71.5186 34.6832 71.8914 34.511C72.2641 34.3389 72.5742 34.1041 72.8217 33.8068C73.1563 33.4022 73.3862 32.8867 73.5112 32.2605C73.6441 31.6337 73.6843 30.9032 73.6319 30.0689ZM90.8829 28.5271C90.951 29.6109 90.8867 30.5817 90.6901 31.4394C90.493 32.2894 90.1785 33.0137 89.7464 33.6123C89.3148 34.2186 88.7692 34.6913 88.1094 35.0302C87.4497 35.3691 86.6832 35.566 85.8099 35.6209C84.9444 35.6752 84.1596 35.5797 83.4553 35.3344C82.7505 35.0812 82.142 34.6771 81.6296 34.1222C81.1182 33.5829 80.7115 32.904 80.4096 32.0854C80.1072 31.2589 79.9219 30.3038 79.8538 29.22L79.6033 25.2318C79.5352 24.148 79.5997 23.1811 79.7967 22.3312C79.9933 21.4734 80.3113 20.7411 80.7507 20.1342C81.1823 19.5278 81.7279 19.0552 82.3877 18.7163C83.0547 18.3691 83.821 18.1683 84.6864 18.1139C85.5597 18.059 86.3451 18.1623 87.0425 18.4238C87.7473 18.677 88.3556 19.0771 88.8675 19.6242C89.3716 20.1718 89.7748 20.8588 90.0773 21.6852C90.3792 22.5038 90.5642 23.455 90.6323 24.5388L90.8829 28.5271ZM82.002 28.6506L88.3138 23.1463C88.2162 22.5889 88.072 22.1008 87.8813 21.6823C87.698 21.2554 87.4608 20.9064 87.1697 20.635C86.886 20.3554 86.5446 20.1537 86.1454 20.0301C85.754 19.9059 85.305 19.8598 84.7981 19.8916C84.2835 19.924 83.8325 20.0345 83.4452 20.2232C83.0651 20.4037 82.7482 20.6545 82.4944 20.9757C82.1909 21.3784 81.9764 21.8889 81.8509 22.5074C81.7327 23.1176 81.6986 23.8203 81.7485 24.6156L81.9278 27.4694C81.9401 27.6643 81.9523 27.8592 81.9646 28.0541C81.9768 28.2491 81.9893 28.4479 82.002 28.6506ZM88.7361 29.1199L88.5848 26.7106C88.5774 26.5936 88.5634 26.3714 88.5429 26.0439C88.5218 25.7086 88.5044 25.4318 88.4907 25.2135L82.1891 30.6937C82.2951 31.2585 82.4514 31.7535 82.6582 32.1789C82.8645 32.5965 83.1207 32.9366 83.4268 33.1991C83.7086 33.4476 84.041 33.6302 84.4241 33.747C84.8066 33.8561 85.2319 33.8959 85.6997 33.8665C86.1909 33.8356 86.6229 33.7341 86.9956 33.562C87.3684 33.3898 87.6785 33.1551 87.926 32.8577C88.2606 32.4531 88.4905 31.9377 88.6155 31.3115C88.7483 30.6847 88.7886 29.9542 88.7361 29.1199Z" fill="#757272"/>
</g>
</svg>
