<svg width="24" height="24" viewBox="0 0 24 24" fill="none" xmlns="http://www.w3.org/2000/svg">
<mask id="mask0_11_6821" style="mask-type:alpha" maskUnits="userSpaceOnUse" x="0" y="0" width="24" height="24">
<rect width="24" height="24" fill="#D9D9D9"/>
</mask>
<g mask="url(#mask0_11_6821)">
<path d="M12 4.8C11.3583 4.8 10.809 4.565 10.3521 4.095C9.89514 3.625 9.66667 3.06 9.66667 2.4C9.66667 1.74 9.89514 1.175 10.3521 0.705C10.809 0.235 11.3583 0 12 0C12.6417 0 13.191 0.235 13.6479 0.705C14.1049 1.175 14.3333 1.74 14.3333 2.4C14.3333 3.06 14.1049 3.625 13.6479 4.095C13.191 4.565 12.6417 4.8 12 4.8ZM8.5 22.8V8.4H2.66667C2.33611 8.4 2.05903 8.285 1.83542 8.055C1.61181 7.825 1.5 7.54 1.5 7.2C1.5 6.86 1.61181 6.575 1.83542 6.345C2.05903 6.115 2.33611 6 2.66667 6H21.3333C21.6639 6 21.941 6.115 22.1646 6.345C22.3882 6.575 22.5 6.86 22.5 7.2C22.5 7.54 22.3882 7.825 22.1646 8.055C21.941 8.285 21.6639 8.4 21.3333 8.4H15.5V22.8C15.5 23.14 15.3882 23.425 15.1646 23.655C14.941 23.885 14.6639 24 14.3333 24C14.0028 24 13.7257 23.885 13.5021 23.655C13.2785 23.425 13.1667 23.14 13.1667 22.8V16.8H10.8333V22.8C10.8333 23.14 10.7215 23.425 10.4979 23.655C10.2743 23.885 9.99722 24 9.66667 24C9.33611 24 9.05903 23.885 8.83542 23.655C8.61181 23.425 8.5 23.14 8.5 22.8Z" fill="#EECECE"/>
</g>
</svg>
