<svg width="40" height="40" viewBox="0 0 40 40" fill="none" xmlns="http://www.w3.org/2000/svg">
<mask id="mask0_6_6795" style="mask-type:alpha" maskUnits="userSpaceOnUse" x="0" y="0" width="40" height="40">
<rect width="40" height="40" fill="#D9D9D9"/>
</mask>
<g mask="url(#mask0_6_6795)">
<path d="M28.3333 36.6663C26.0278 36.6663 24.0625 35.8538 22.4375 34.2288C20.8125 32.6038 20 30.6386 20 28.333C20 26.0275 20.8125 24.0622 22.4375 22.4372C24.0625 20.8122 26.0278 19.9997 28.3333 19.9997C30.6389 19.9997 32.6042 20.8122 34.2292 22.4372C35.8542 24.0622 36.6667 26.0275 36.6667 28.333C36.6667 30.6386 35.8542 32.6038 34.2292 34.2288C32.6042 35.8538 30.6389 36.6663 28.3333 36.6663ZM6.66666 18.4997V10.6247C6.66666 9.93023 6.86805 9.30523 7.27083 8.74967C7.67361 8.19412 8.19444 7.79134 8.83333 7.54134L18.8333 3.79134C19.2222 3.65245 19.6111 3.58301 20 3.58301C20.3889 3.58301 20.7778 3.65245 21.1667 3.79134L31.1667 7.54134C31.8056 7.79134 32.3264 8.19412 32.7292 8.74967C33.1319 9.30523 33.3333 9.93023 33.3333 10.6247V15.708C33.3333 16.1802 33.125 16.5622 32.7083 16.8538C32.2917 17.1455 31.8472 17.2219 31.375 17.083C30.875 16.9441 30.375 16.84 29.875 16.7705C29.375 16.7011 28.8611 16.6663 28.3333 16.6663C25.1111 16.6663 22.3611 17.8052 20.0833 20.083C17.8056 22.3608 16.6667 25.1108 16.6667 28.333C16.6667 29.2219 16.7708 30.09 16.9792 30.9372C17.1875 31.7844 17.4861 32.6386 17.875 33.4997C18.125 34.0275 18.0486 34.4997 17.6458 34.9163C17.2431 35.333 16.7778 35.4163 16.25 35.1663C15.0833 34.5552 14.0139 33.8052 13.0417 32.9163C12.0694 32.0275 11.2083 31.0552 10.4583 29.9997C9.26389 28.3608 8.33333 26.5622 7.66666 24.6038C7 22.6455 6.66666 20.6108 6.66666 18.4997ZM28.3333 28.333C29.0278 28.333 29.6181 28.09 30.1042 27.6038C30.5903 27.1177 30.8333 26.5275 30.8333 25.833C30.8333 25.1386 30.5903 24.5483 30.1042 24.0622C29.6181 23.5761 29.0278 23.333 28.3333 23.333C27.6389 23.333 27.0486 23.5761 26.5625 24.0622C26.0764 24.5483 25.8333 25.1386 25.8333 25.833C25.8333 26.5275 26.0764 27.1177 26.5625 27.6038C27.0486 28.09 27.6389 28.333 28.3333 28.333ZM28.3333 33.333C29.0278 33.333 29.6806 33.2011 30.2917 32.9372C30.9028 32.6733 31.4444 32.2913 31.9167 31.7913C32.0556 31.6247 32.1111 31.4372 32.0833 31.2288C32.0556 31.0205 31.9306 30.8608 31.7083 30.7497C31.1806 30.4997 30.6319 30.3122 30.0625 30.1872C29.4931 30.0622 28.9167 29.9997 28.3333 29.9997C27.75 29.9997 27.1736 30.0622 26.6042 30.1872C26.0347 30.3122 25.4861 30.4997 24.9583 30.7497C24.7361 30.8608 24.6111 31.0205 24.5833 31.2288C24.5556 31.4372 24.6111 31.6247 24.75 31.7913C25.2222 32.2913 25.7639 32.6733 26.375 32.9372C26.9861 33.2011 27.6389 33.333 28.3333 33.333Z" fill="#EECECE"/>
</g>
</svg>
