<svg width="24" height="24" viewBox="0 0 24 24" fill="none" xmlns="http://www.w3.org/2000/svg">
<g clip-path="url(#clip0_15_6830)">
<mask id="mask0_15_6830" style="mask-type:alpha" maskUnits="userSpaceOnUse" x="0" y="0" width="24" height="24">
<path d="M24 0H0V24H24V0Z" fill="#D9D9D9"/>
</mask>
<g mask="url(#mask0_15_6830)">
<path d="M9.8 21.7497C7.51667 21.233 5.64583 20.0663 4.1875 18.2497C2.72917 16.433 2 14.3497 2 11.9997C2 9.64966 2.72917 7.56632 4.1875 5.74966C5.64583 3.93299 7.51667 2.76632 9.8 2.24966C10.1167 2.16632 10.3958 2.22466 10.6375 2.42466C10.8792 2.62466 11 2.89132 11 3.22466C11 3.45799 10.9333 3.66632 10.8 3.84966C10.6667 4.03299 10.4833 4.14966 10.25 4.19966C8.41667 4.61632 6.91667 5.54966 5.75 6.99966C4.58333 8.44966 4 10.1163 4 11.9997C4 13.883 4.58333 15.5497 5.75 16.9997C6.91667 18.4497 8.41667 19.383 10.25 19.7997C10.4833 19.8497 10.6667 19.9663 10.8 20.1497C10.9333 20.333 11 20.5413 11 20.7747C11 21.108 10.8792 21.3747 10.6375 21.5747C10.3958 21.7747 10.1167 21.833 9.8 21.7497ZM14.2 21.7497C13.8833 21.833 13.6042 21.7747 13.3625 21.5747C13.1208 21.3747 13 21.108 13 20.7747C13 20.5413 13.0667 20.333 13.2 20.1497C13.3333 19.9663 13.5167 19.8497 13.75 19.7997C14.2 19.6997 14.6375 19.5622 15.0625 19.3872C15.4875 19.2122 15.8917 18.9997 16.275 18.7497C16.4583 18.6163 16.6625 18.5663 16.8875 18.5997C17.1125 18.633 17.3083 18.733 17.475 18.8997C17.7083 19.133 17.8083 19.4038 17.775 19.7122C17.7417 20.0205 17.5917 20.2663 17.325 20.4497C16.8417 20.7497 16.3375 21.008 15.8125 21.2247C15.2875 21.4413 14.75 21.6163 14.2 21.7497ZM18.9 17.4997C18.7333 17.333 18.6333 17.1372 18.6 16.9122C18.5667 16.6872 18.6167 16.483 18.75 16.2997C19 15.9163 19.2125 15.508 19.3875 15.0747C19.5625 14.6413 19.7 14.1997 19.8 13.7497C19.85 13.5163 19.9667 13.3372 20.15 13.2122C20.3333 13.0872 20.5417 13.0247 20.775 13.0247C21.1083 13.0247 21.375 13.1455 21.575 13.3872C21.775 13.6288 21.8333 13.908 21.75 14.2247C21.6167 14.7747 21.4417 15.3122 21.225 15.8372C21.0083 16.3622 20.75 16.8663 20.45 17.3497C20.2667 17.6163 20.0208 17.7663 19.7125 17.7997C19.4042 17.833 19.1333 17.733 18.9 17.4997ZM20.775 10.9997C20.5417 10.9997 20.3333 10.933 20.15 10.7997C19.9667 10.6663 19.85 10.483 19.8 10.2497C19.7 9.79966 19.5625 9.36216 19.3875 8.93716C19.2125 8.51216 19 8.10799 18.75 7.72466C18.6167 7.52466 18.5667 7.31216 18.6 7.08716C18.6333 6.86216 18.7333 6.66632 18.9 6.49966C19.1333 6.26632 19.4042 6.16632 19.7125 6.19966C20.0208 6.23299 20.2667 6.39132 20.45 6.67466C20.75 7.15799 21.0083 7.66216 21.225 8.18716C21.4417 8.71216 21.6167 9.24966 21.75 9.79966C21.8333 10.1163 21.775 10.3955 21.575 10.6372C21.375 10.8788 21.1083 10.9997 20.775 10.9997ZM16.275 5.24966C15.8917 4.99966 15.4875 4.78716 15.0625 4.61216C14.6375 4.43716 14.2 4.29966 13.75 4.19966C13.5167 4.14966 13.3333 4.03299 13.2 3.84966C13.0667 3.66632 13 3.45799 13 3.22466C13 2.89132 13.1208 2.62466 13.3625 2.42466C13.6042 2.22466 13.8833 2.16632 14.2 2.24966C14.75 2.38299 15.2875 2.55799 15.8125 2.77466C16.3375 2.99132 16.8417 3.24966 17.325 3.54966C17.6083 3.73299 17.7667 3.97882 17.8 4.28716C17.8333 4.59549 17.7333 4.86632 17.5 5.09966C17.3333 5.26632 17.1375 5.36632 16.9125 5.39966C16.6875 5.43299 16.475 5.38299 16.275 5.24966ZM11.975 16.9997C11.6917 16.9997 11.4542 16.9038 11.2625 16.7122C11.0708 16.5205 10.975 16.283 10.975 15.9997V10.8747L9.1 12.7747C8.9 12.9747 8.6625 13.0747 8.3875 13.0747C8.1125 13.0747 7.875 12.9747 7.675 12.7747C7.475 12.5747 7.37083 12.3372 7.3625 12.0622C7.35417 11.7872 7.45 11.5497 7.65 11.3497L11.275 7.69966C11.4583 7.51632 11.6917 7.42466 11.975 7.42466C12.2583 7.42466 12.4917 7.51632 12.675 7.69966L16.25 11.2747C16.45 11.4747 16.5542 11.7163 16.5625 11.9997C16.5708 12.283 16.475 12.5247 16.275 12.7247C16.075 12.9247 15.8333 13.0247 15.55 13.0247C15.2667 13.0247 15.025 12.9247 14.825 12.7247L12.975 10.8747V15.9997C12.975 16.283 12.8792 16.5205 12.6875 16.7122C12.4958 16.9038 12.2583 16.9997 11.975 16.9997Z" fill="#333333"/>
</g>
</g>
<defs>
<clipPath id="clip0_15_6830">
<rect width="24" height="24" fill="white"/>
</clipPath>
</defs>
</svg>
