<svg width="24" height="24" viewBox="0 0 24 24" fill="none" xmlns="http://www.w3.org/2000/svg">
<g clip-path="url(#clip0_7_6798)">
<path d="M0.503575 10.9402C-0.166068 11.5262 -0.166068 12.4777 0.503575 13.0637L9.075 20.5637C9.74465 21.1496 10.8321 21.1496 11.5018 20.5637C12.1714 19.9777 12.1714 19.0262 11.5018 18.4402L5.85 13.4996H22.2857C23.2339 13.4996 24 12.8293 24 11.9996C24 11.1699 23.2339 10.4996 22.2857 10.4996H5.85536L11.4964 5.55898C12.1661 4.97305 12.1661 4.02148 11.4964 3.43555C10.8268 2.84961 9.73929 2.84961 9.06965 3.43555L0.498218 10.9355L0.503575 10.9402Z" fill="#EECECE"/>
</g>
<defs>
<clipPath id="clip0_7_6798">
<rect width="24" height="24" fill="white"/>
</clipPath>
</defs>
</svg>
