<svg width="24" height="24" viewBox="0 0 24 24" fill="none" xmlns="http://www.w3.org/2000/svg">
<mask id="mask0_6_6786" style="mask-type:alpha" maskUnits="userSpaceOnUse" x="0" y="0" width="24" height="24">
<rect width="24" height="24" fill="#D9D9D9"/>
</mask>
<g mask="url(#mask0_6_6786)">
<path d="M15.25 5.00038C14.9 5.00038 14.6042 4.87954 14.3625 4.63788C14.1208 4.39621 14 4.10038 14 3.75038C14 3.40038 14.1208 3.10454 14.3625 2.86288C14.6042 2.62121 14.9 2.50038 15.25 2.50038C15.6 2.50038 15.8958 2.62121 16.1375 2.86288C16.3792 3.10454 16.5 3.40038 16.5 3.75038C16.5 4.10038 16.3792 4.39621 16.1375 4.63788C15.8958 4.87954 15.6 5.00038 15.25 5.00038ZM15.25 21.5004C14.9 21.5004 14.6042 21.3795 14.3625 21.1379C14.1208 20.8962 14 20.6004 14 20.2504C14 19.9004 14.1208 19.6045 14.3625 19.3629C14.6042 19.1212 14.9 19.0004 15.25 19.0004C15.6 19.0004 15.8958 19.1212 16.1375 19.3629C16.3792 19.6045 16.5 19.9004 16.5 20.2504C16.5 20.6004 16.3792 20.8962 16.1375 21.1379C15.8958 21.3795 15.6 21.5004 15.25 21.5004ZM19.25 8.50038C18.9 8.50038 18.6042 8.37954 18.3625 8.13788C18.1208 7.89621 18 7.60038 18 7.25038C18 6.90038 18.1208 6.60454 18.3625 6.36288C18.6042 6.12121 18.9 6.00038 19.25 6.00038C19.6 6.00038 19.8958 6.12121 20.1375 6.36288C20.3792 6.60454 20.5 6.90038 20.5 7.25038C20.5 7.60038 20.3792 7.89621 20.1375 8.13788C19.8958 8.37954 19.6 8.50038 19.25 8.50038ZM19.25 18.0004C18.9 18.0004 18.6042 17.8795 18.3625 17.6379C18.1208 17.3962 18 17.1004 18 16.7504C18 16.4004 18.1208 16.1045 18.3625 15.8629C18.6042 15.6212 18.9 15.5004 19.25 15.5004C19.6 15.5004 19.8958 15.6212 20.1375 15.8629C20.3792 16.1045 20.5 16.4004 20.5 16.7504C20.5 17.1004 20.3792 17.3962 20.1375 17.6379C19.8958 17.8795 19.6 18.0004 19.25 18.0004ZM20.75 13.2504C20.4 13.2504 20.1042 13.1295 19.8625 12.8879C19.6208 12.6462 19.5 12.3504 19.5 12.0004C19.5 11.6504 19.6208 11.3545 19.8625 11.1129C20.1042 10.8712 20.4 10.7504 20.75 10.7504C21.1 10.7504 21.3958 10.8712 21.6375 11.1129C21.8792 11.3545 22 11.6504 22 12.0004C22 12.3504 21.8792 12.6462 21.6375 12.8879C21.3958 13.1295 21.1 13.2504 20.75 13.2504ZM2 12.0004C2 9.38371 2.87083 7.13371 4.6125 5.25038C6.35417 3.36704 8.49167 2.30038 11.025 2.05038C11.2917 2.01704 11.5208 2.09621 11.7125 2.28788C11.9042 2.47954 12 2.71704 12 3.00038C12 3.26704 11.9125 3.50038 11.7375 3.70038C11.5625 3.90038 11.3417 4.01704 11.075 4.05038C9.05833 4.28371 7.375 5.15038 6.025 6.65038C4.675 8.15038 4 9.93371 4 12.0004C4 14.0837 4.675 15.8712 6.025 17.3629C7.375 18.8545 9.05833 19.717 11.075 19.9504C11.3417 19.9837 11.5625 20.1004 11.7375 20.3004C11.9125 20.5004 12 20.7337 12 21.0004C12 21.2837 11.9042 21.5212 11.7125 21.7129C11.5208 21.9045 11.2917 21.9837 11.025 21.9504C8.475 21.7004 6.33333 20.6337 4.6 18.7504C2.86667 16.867 2 14.617 2 12.0004ZM12 14.0004C11.45 14.0004 10.9792 13.8045 10.5875 13.4129C10.1958 13.0212 10 12.5504 10 12.0004C10 11.917 10.0042 11.8295 10.0125 11.7379C10.0208 11.6462 10.0417 11.5587 10.075 11.4754L8.7 10.1004C8.51667 9.91704 8.425 9.68371 8.425 9.40038C8.425 9.11704 8.51667 8.88371 8.7 8.70038C8.88333 8.51704 9.11667 8.42538 9.4 8.42538C9.68333 8.42538 9.91667 8.51704 10.1 8.70038L11.475 10.0754C11.5417 10.0587 11.7167 10.0337 12 10.0004C12.55 10.0004 13.0208 10.1962 13.4125 10.5879C13.8042 10.9795 14 11.4504 14 12.0004C14 12.5504 13.8042 13.0212 13.4125 13.4129C13.0208 13.8045 12.55 14.0004 12 14.0004Z" fill="#EECECE"/>
</g>
</svg>
