<svg width="24" height="24" viewBox="0 0 24 24" fill="none" xmlns="http://www.w3.org/2000/svg">
<mask id="mask0_8_6803" style="mask-type:alpha" maskUnits="userSpaceOnUse" x="0" y="0" width="24" height="24">
<rect width="24" height="24" fill="#D9D9D9"/>
</mask>
<g mask="url(#mask0_8_6803)">
<path d="M4 21C3.45 21 2.97917 20.8042 2.5875 20.4125C2.19583 20.0208 2 19.55 2 19V8C2 7.71667 2.09583 7.47917 2.2875 7.2875C2.47917 7.09583 2.71667 7 3 7C3.28333 7 3.52083 7.09583 3.7125 7.2875C3.90417 7.47917 4 7.71667 4 8V19H18C18.2833 19 18.5208 19.0958 18.7125 19.2875C18.9042 19.4792 19 19.7167 19 20C19 20.2833 18.9042 20.5208 18.7125 20.7125C18.5208 20.9042 18.2833 21 18 21H4ZM8 17C7.45 17 6.97917 16.8042 6.5875 16.4125C6.19583 16.0208 6 15.55 6 15V4C6 3.71667 6.09583 3.47917 6.2875 3.2875C6.47917 3.09583 6.71667 3 7 3H22C22.2833 3 22.5208 3.09583 22.7125 3.2875C22.9042 3.47917 23 3.71667 23 4V15C23 15.55 22.8042 16.0208 22.4125 16.4125C22.0208 16.8042 21.55 17 21 17H8ZM8 15H21V5H8V15ZM11 12H13C13.2833 12 13.5208 11.9042 13.7125 11.7125C13.9042 11.5208 14 11.2833 14 11V8C14 7.71667 13.9042 7.47917 13.7125 7.2875C13.5208 7.09583 13.2833 7 13 7H11C10.7167 7 10.4792 7.09583 10.2875 7.2875C10.0958 7.47917 10 7.71667 10 8V11C10 11.2833 10.0958 11.5208 10.2875 11.7125C10.4792 11.9042 10.7167 12 11 12ZM16 12H18C18.2833 12 18.5208 11.9042 18.7125 11.7125C18.9042 11.5208 19 11.2833 19 11C19 10.7167 18.9042 10.4792 18.7125 10.2875C18.5208 10.0958 18.2833 10 18 10H16C15.7167 10 15.4792 10.0958 15.2875 10.2875C15.0958 10.4792 15 10.7167 15 11C15 11.2833 15.0958 11.5208 15.2875 11.7125C15.4792 11.9042 15.7167 12 16 12ZM16 9H18C18.2833 9 18.5208 8.90417 18.7125 8.7125C18.9042 8.52083 19 8.28333 19 8C19 7.71667 18.9042 7.47917 18.7125 7.2875C18.5208 7.09583 18.2833 7 18 7H16C15.7167 7 15.4792 7.09583 15.2875 7.2875C15.0958 7.47917 15 7.71667 15 8C15 8.28333 15.0958 8.52083 15.2875 8.7125C15.4792 8.90417 15.7167 9 16 9Z" fill="#E0E0E0"/>
</g>
</svg>
