<svg width="20" height="18" viewBox="0 0 20 18" fill="none" xmlns="http://www.w3.org/2000/svg">
<path d="M1.85937 10.4279L8.91797 17.2399C9.21094 17.5225 9.59766 17.68 10 17.68C10.4023 17.68 10.7891 17.5225 11.082 17.2399L18.1406 10.4279C19.3281 9.28516 20 7.68211 20 6.00637V5.77217C20 2.94967 18.0273 0.543064 15.3359 0.0787033C13.5547 -0.228179 11.7422 0.373472 10.4688 1.68983L10 2.17438L9.53125 1.68983C8.25781 0.373472 6.44531 -0.228179 4.66406 0.0787033C1.97266 0.543064 0 2.94967 0 5.77217V6.00637C0 7.68211 0.671875 9.28516 1.85937 10.4279Z" fill="#EECECE"/>
</svg>
