<svg width="40" height="40" viewBox="0 0 40 40" fill="none" xmlns="http://www.w3.org/2000/svg">
<mask id="mask0_5_6777" style="mask-type:alpha" maskUnits="userSpaceOnUse" x="0" y="0" width="40" height="40">
<rect width="40" height="40" fill="#D9D9D9"/>
</mask>
<g mask="url(#mask0_5_6777)">
<path d="M3.33333 30.0003V28.667C3.33333 27.7225 3.56944 26.8545 4.04166 26.0628C4.51388 25.2712 5.16666 24.667 5.99999 24.2503C7.58333 23.4448 9.22916 22.8059 10.9375 22.3337C12.6458 21.8614 14.3889 21.6253 16.1667 21.6253C16.5556 21.6253 16.8611 21.7989 17.0833 22.1462C17.3056 22.4934 17.3472 22.8614 17.2083 23.2503C17.0417 23.8337 16.9167 24.417 16.8333 25.0003C16.75 25.5837 16.7083 26.1809 16.7083 26.792C16.7083 27.5975 16.7917 28.3753 16.9583 29.1253C17.125 29.8753 17.3611 30.6114 17.6667 31.3337C17.8889 31.8059 17.8681 32.2573 17.6042 32.6878C17.3403 33.1184 16.9722 33.3337 16.5 33.3337H6.66666C5.74999 33.3337 4.96527 33.0073 4.31249 32.3545C3.65972 31.7017 3.33333 30.917 3.33333 30.0003ZM28.3333 30.0003C29.25 30.0003 30.0347 29.6739 30.6875 29.0212C31.3403 28.3684 31.6667 27.5837 31.6667 26.667C31.6667 25.7503 31.3403 24.9656 30.6875 24.3128C30.0347 23.66 29.25 23.3337 28.3333 23.3337C27.4167 23.3337 26.6319 23.66 25.9792 24.3128C25.3264 24.9656 25 25.7503 25 26.667C25 27.5837 25.3264 28.3684 25.9792 29.0212C26.6319 29.6739 27.4167 30.0003 28.3333 30.0003ZM16.6667 20.0003C14.8333 20.0003 13.2639 19.3475 11.9583 18.042C10.6528 16.7364 9.99999 15.167 9.99999 13.3337C9.99999 11.5003 10.6528 9.93088 11.9583 8.62533C13.2639 7.31977 14.8333 6.66699 16.6667 6.66699C18.5 6.66699 20.0694 7.31977 21.375 8.62533C22.6805 9.93088 23.3333 11.5003 23.3333 13.3337C23.3333 15.167 22.6805 16.7364 21.375 18.042C20.0694 19.3475 18.5 20.0003 16.6667 20.0003ZM26.4167 33.667L26.1667 32.5003C25.8333 32.3614 25.5208 32.2156 25.2292 32.0628C24.9375 31.91 24.6389 31.7225 24.3333 31.5003L23.125 31.8753C22.7639 31.9864 22.4097 31.9725 22.0625 31.8337C21.7153 31.6948 21.4444 31.4725 21.25 31.167L20.9167 30.5837C20.7222 30.2503 20.6528 29.8892 20.7083 29.5003C20.7639 29.1114 20.9444 28.792 21.25 28.542L22.1667 27.7503C22.1111 27.3614 22.0833 27.0003 22.0833 26.667C22.0833 26.3337 22.1111 25.9725 22.1667 25.5837L21.25 24.792C20.9444 24.542 20.7639 24.2295 20.7083 23.8545C20.6528 23.4795 20.7222 23.1253 20.9167 22.792L21.2917 22.167C21.4861 21.8614 21.75 21.6392 22.0833 21.5003C22.4167 21.3614 22.7639 21.3475 23.125 21.4587L24.3333 21.8337C24.6389 21.6114 24.9375 21.4239 25.2292 21.2712C25.5208 21.1184 25.8333 20.9725 26.1667 20.8337L26.4167 19.6253C26.5 19.2364 26.6875 18.9239 26.9792 18.6878C27.2708 18.4517 27.6111 18.3337 28 18.3337H28.6667C29.0555 18.3337 29.3958 18.4587 29.6875 18.7087C29.9792 18.9587 30.1667 19.2781 30.25 19.667L30.5 20.8337C30.8333 20.9725 31.1458 21.1253 31.4375 21.292C31.7292 21.4587 32.0278 21.667 32.3333 21.917L33.4583 21.542C33.8472 21.4031 34.2222 21.4031 34.5833 21.542C34.9444 21.6809 35.2222 21.917 35.4167 22.2503L35.75 22.8337C35.9444 23.167 36.0139 23.5281 35.9583 23.917C35.9028 24.3059 35.7222 24.6253 35.4167 24.8753L34.5 25.667C34.5556 26.0003 34.5833 26.3475 34.5833 26.7087C34.5833 27.0698 34.5556 27.417 34.5 27.7503L35.4167 28.542C35.7222 28.792 35.9028 29.1045 35.9583 29.4795C36.0139 29.8545 35.9444 30.2087 35.75 30.542L35.375 31.167C35.1806 31.4725 34.9167 31.6948 34.5833 31.8337C34.25 31.9725 33.9028 31.9864 33.5417 31.8753L32.3333 31.5003C32.0278 31.7225 31.7292 31.91 31.4375 32.0628C31.1458 32.2156 30.8333 32.3614 30.5 32.5003L30.25 33.7087C30.1667 34.0975 29.9792 34.41 29.6875 34.6462C29.3958 34.8823 29.0555 35.0003 28.6667 35.0003H28C27.6111 35.0003 27.2708 34.8753 26.9792 34.6253C26.6875 34.3753 26.5 34.0559 26.4167 33.667Z" fill="#EECECE"/>
</g>
</svg>
