<svg width="24" height="24" viewBox="0 0 24 24" fill="none" xmlns="http://www.w3.org/2000/svg">
<mask id="mask0_9_6818" style="mask-type:alpha" maskUnits="userSpaceOnUse" x="0" y="0" width="24" height="24">
<rect width="24" height="24" fill="#D9D9D9"/>
</mask>
<g mask="url(#mask0_9_6818)">
<path d="M3 19.0246C2.45 19.0246 1.97917 18.8288 1.5875 18.4371C1.19583 18.0454 1 17.5746 1 17.0246V15.0246C1 14.7413 1.09583 14.5038 1.2875 14.3121C1.47917 14.1204 1.71667 14.0246 2 14.0246C2.28333 14.0246 2.52083 14.1204 2.7125 14.3121C2.90417 14.5038 3 14.7413 3 15.0246V17.0246H21V15.0246C21 14.7413 21.0958 14.5038 21.2875 14.3121C21.4792 14.1204 21.7167 14.0246 22 14.0246C22.2833 14.0246 22.5208 14.1204 22.7125 14.3121C22.9042 14.5038 23 14.7413 23 15.0246V17.0246C23 17.5746 22.8042 18.0454 22.4125 18.4371C22.0208 18.8288 21.55 19.0246 21 19.0246H3ZM7.35 15.2246C6.53333 15.2246 5.89167 15.0121 5.425 14.5871C4.95833 14.1621 4.725 13.5829 4.725 12.8496C4.725 12.1496 4.99583 11.5788 5.5375 11.1371C6.07917 10.6954 6.775 10.4746 7.625 10.4746C8.00833 10.4746 8.3625 10.5038 8.6875 10.5621C9.0125 10.6204 9.29167 10.7163 9.525 10.8496V10.4996C9.525 10.0496 9.37083 9.69128 9.0625 9.42461C8.75417 9.15794 8.33333 9.02461 7.8 9.02461C7.55 9.02461 7.3125 9.06211 7.0875 9.13711C6.8625 9.21211 6.65833 9.31628 6.475 9.44961C6.325 9.56628 6.1625 9.63294 5.9875 9.64961C5.8125 9.66628 5.65 9.61628 5.5 9.49961C5.35 9.38294 5.25833 9.23711 5.225 9.06211C5.19167 8.88711 5.24167 8.73294 5.375 8.59961C5.675 8.31628 6.02917 8.09961 6.4375 7.94961C6.84583 7.79961 7.30833 7.72461 7.825 7.72461C8.85833 7.72461 9.65 7.97044 10.2 8.46211C10.75 8.95378 11.025 9.66628 11.025 10.5996V14.2746C11.025 14.4746 10.9542 14.6454 10.8125 14.7871C10.6708 14.9288 10.5 14.9996 10.3 14.9996C10.0833 14.9996 9.90417 14.9288 9.7625 14.7871C9.62083 14.6454 9.55 14.4663 9.55 14.2496V14.1496H9.475C9.25833 14.4829 8.96667 14.7454 8.6 14.9371C8.23333 15.1288 7.81667 15.2246 7.35 15.2246ZM7.9 11.6496C7.36667 11.6496 6.95833 11.7538 6.675 11.9621C6.39167 12.1704 6.25 12.4663 6.25 12.8496C6.25 13.1829 6.375 13.4538 6.625 13.6621C6.875 13.8704 7.2 13.9746 7.6 13.9746C8.13333 13.9746 8.5875 13.7871 8.9625 13.4121C9.3375 13.0371 9.525 12.5829 9.525 12.0496C9.29167 11.9163 9.025 11.8163 8.725 11.7496C8.425 11.6829 8.15 11.6496 7.9 11.6496ZM16.325 15.2246C15.6417 15.2246 15.1208 15.0746 14.7625 14.7746C14.4042 14.4746 14.175 14.2413 14.075 14.0746H14V14.3996C14 14.5996 13.9292 14.7704 13.7875 14.9121C13.6458 15.0538 13.475 15.1246 13.275 15.1246C13.075 15.1246 12.9 15.0496 12.75 14.8996C12.6 14.7496 12.525 14.5746 12.525 14.3746V5.74961C12.525 5.53294 12.6 5.34961 12.75 5.19961C12.9 5.04961 13.0833 4.97461 13.3 4.97461C13.5167 4.97461 13.7 5.04961 13.85 5.19961C14 5.34961 14.075 5.53294 14.075 5.74961V7.79961L14 8.79961H14.075C14.125 8.71628 14.325 8.50378 14.675 8.16211C15.025 7.82044 15.575 7.64961 16.325 7.64961C17.3917 7.64961 18.2333 8.03294 18.85 8.79961C19.4667 9.56628 19.775 10.4496 19.775 11.4496C19.775 12.4496 19.4708 13.3288 18.8625 14.0871C18.2542 14.8454 17.4083 15.2246 16.325 15.2246ZM16.1 9.04961C15.4333 9.04961 14.9167 9.29544 14.55 9.78711C14.1833 10.2788 14 10.8246 14 11.4246C14 12.0413 14.1833 12.5913 14.55 13.0746C14.9167 13.5579 15.4333 13.7996 16.1 13.7996C16.7667 13.7996 17.2875 13.5579 17.6625 13.0746C18.0375 12.5913 18.225 12.0413 18.225 11.4246C18.225 10.8079 18.0375 10.2579 17.6625 9.77461C17.2875 9.29128 16.7667 9.04961 16.1 9.04961Z" fill="#EECECE"/>
</g>
</svg>
