<svg width="40" height="40" viewBox="0 0 40 40" fill="none" xmlns="http://www.w3.org/2000/svg">
<mask id="mask0_5_6774" style="mask-type:alpha" maskUnits="userSpaceOnUse" x="0" y="0" width="40" height="40">
<rect width="40" height="40" fill="#D9D9D9"/>
</mask>
<g mask="url(#mask0_5_6774)">
<path d="M23.3333 33.3337V31.2503C23.3333 30.8059 23.4236 30.3823 23.6042 29.9795C23.7847 29.5767 24.0278 29.2225 24.3333 28.917L32.5417 20.7087C32.7917 20.4587 33.0694 20.2781 33.375 20.167C33.6805 20.0559 33.9861 20.0003 34.2917 20.0003C34.625 20.0003 34.9444 20.0628 35.25 20.1878C35.5555 20.3128 35.8333 20.5003 36.0833 20.7503L37.625 22.292C37.8472 22.542 38.0208 22.8198 38.1458 23.1253C38.2708 23.4309 38.3333 23.7364 38.3333 24.042C38.3333 24.3475 38.2778 24.66 38.1667 24.9795C38.0555 25.2989 37.875 25.5837 37.625 25.8337L29.4167 34.042C29.1111 34.3476 28.7569 34.5837 28.3542 34.7503C27.9514 34.917 27.5278 35.0003 27.0833 35.0003H25C24.5278 35.0003 24.1319 34.8406 23.8125 34.5212C23.493 34.2017 23.3333 33.8059 23.3333 33.3337ZM6.66666 31.667V28.667C6.66666 27.7225 6.90971 26.8545 7.39582 26.0628C7.88193 25.2712 8.52777 24.667 9.33332 24.2503C11.0555 23.3892 12.8055 22.7434 14.5833 22.3128C16.3611 21.8823 18.1667 21.667 20 21.667C21.0278 21.667 22.0417 21.7295 23.0417 21.8545C24.0417 21.9795 25.0417 22.1809 26.0417 22.4587L21.4583 27.042C20.9861 27.5142 20.625 28.0559 20.375 28.667C20.125 29.2781 20 29.917 20 30.5837V33.3337H8.33332C7.8611 33.3337 7.46527 33.1739 7.14582 32.8545C6.82638 32.535 6.66666 32.1392 6.66666 31.667ZM34.2917 25.667L35.8333 24.042L34.2917 22.5003L32.7083 24.0837L34.2917 25.667ZM20 20.0003C18.1667 20.0003 16.5972 19.3475 15.2917 18.042C13.9861 16.7364 13.3333 15.167 13.3333 13.3337C13.3333 11.5003 13.9861 9.93088 15.2917 8.62533C16.5972 7.31977 18.1667 6.66699 20 6.66699C21.8333 6.66699 23.4028 7.31977 24.7083 8.62533C26.0139 9.93088 26.6667 11.5003 26.6667 13.3337C26.6667 15.167 26.0139 16.7364 24.7083 18.042C23.4028 19.3475 21.8333 20.0003 20 20.0003Z" fill="#EECECE"/>
</g>
</svg>
