<svg width="24" height="24" viewBox="0 0 24 24" fill="none" xmlns="http://www.w3.org/2000/svg">
<mask id="mask0_6_6792" style="mask-type:alpha" maskUnits="userSpaceOnUse" x="0" y="0" width="24" height="24">
<rect width="24" height="24" fill="#D9D9D9"/>
</mask>
<g mask="url(#mask0_6_6792)">
<path d="M21 16.0004V10.1004L12.95 14.4754C12.65 14.6421 12.3333 14.7254 12 14.7254C11.6667 14.7254 11.35 14.6421 11.05 14.4754L2.60001 9.87539C2.41667 9.77539 2.28751 9.65039 2.21251 9.50039C2.13751 9.35039 2.10001 9.18372 2.10001 9.00039C2.10001 8.81706 2.13751 8.65039 2.21251 8.50039C2.28751 8.35039 2.41667 8.22539 2.60001 8.12539L11.05 3.52539C11.2 3.44206 11.3542 3.37956 11.5125 3.33789C11.6708 3.29622 11.8333 3.27539 12 3.27539C12.1667 3.27539 12.3292 3.29622 12.4875 3.33789C12.6458 3.37956 12.8 3.44206 12.95 3.52539L22.475 8.72539C22.6417 8.80872 22.7708 8.92956 22.8625 9.08789C22.9542 9.24622 23 9.41706 23 9.60039V16.0004C23 16.2837 22.9042 16.5212 22.7125 16.7129C22.5208 16.9046 22.2833 17.0004 22 17.0004C21.7167 17.0004 21.4792 16.9046 21.2875 16.7129C21.0958 16.5212 21 16.2837 21 16.0004ZM11.05 20.4754L6.05001 17.7754C5.71667 17.5921 5.45834 17.3421 5.27501 17.0254C5.09167 16.7087 5.00001 16.3671 5.00001 16.0004V12.2004L11.05 15.4754C11.35 15.6421 11.6667 15.7254 12 15.7254C12.3333 15.7254 12.65 15.6421 12.95 15.4754L19 12.2004V16.0004C19 16.3671 18.9083 16.7087 18.725 17.0254C18.5417 17.3421 18.2833 17.5921 17.95 17.7754L12.95 20.4754C12.8 20.5587 12.6458 20.6212 12.4875 20.6629C12.3292 20.7046 12.1667 20.7254 12 20.7254C11.8333 20.7254 11.6708 20.7046 11.5125 20.6629C11.3542 20.6212 11.2 20.5587 11.05 20.4754Z" fill="#EECECE"/>
</g>
</svg>
